<?xml version="1.0" encoding="UTF-8"?>
<svg version="1.1" xmlns="http://www.w3.org/2000/svg" width="210" height="213">
<path d="M0 0 C0 1.32 0 2.64 0 4 C-0.60328125 4.23074219 -1.2065625 4.46148438 -1.828125 4.69921875 C-7.61515809 7.06070161 -11.11912519 9.23825038 -14 15 C-14.37747393 20.66210888 -14.06654703 24.04634711 -11 29 C-10.34 29.66 -9.68 30.32 -9 31 C-8.01 31 -7.02 31 -6 31 C-4.16898358 29.00622387 -4.16898358 29.00622387 -2.375 26.4375 C1.85615922 20.92132205 6.72031307 16.13984346 13 13 C17.61141254 12.45288326 20.75001295 12.30444962 24.5625 15.125 C32.33374989 22.66506854 36.23754132 34.57631578 38 45 C38 45.99 38 46.98 38 48 C38.66515625 48.09023438 39.3303125 48.18046875 40.015625 48.2734375 C43.88958004 49.21657315 47.20162893 50.8341437 50.75 52.625 C51.4630127 52.984729 52.17602539 53.34445801 52.91064453 53.71508789 C58.47158835 56.59180934 63.30944871 59.83647695 68 64 C68.85335937 64.73476562 69.70671875 65.46953125 70.5859375 66.2265625 C77.54572434 72.32913219 77.54572434 72.32913219 80.1875 76.23046875 C83.66164551 79.65153704 85.40539443 79.69193712 90.109375 79.78515625 C90.98078125 79.77355469 91.8521875 79.76195313 92.75 79.75 C103.20121868 79.79721936 114.81513109 80.56481217 123.0625 87.8125 C125.5847377 93.69772129 123.66251068 99.35779055 121.45703125 105.03125 C115.92863506 116.29554251 106.53933213 126.25482744 96 133 C95.34 133 94.68 133 94 133 C94.0825 133.9075 94.165 134.815 94.25 135.75 C94.28908606 140.53804255 92.53315642 144.69954708 90.875 149.1328125 C90.00936667 151.96930743 89.71356597 154.05893625 90 157 C92.41258405 159.91520573 94.09205763 160.0103936 97.875 160.4375 C102.1659538 160.26938427 104.72018157 158.81127294 108 156 C110.39198065 152.69678862 110.5403461 148.98366713 111 145 C112.32 145 113.64 145 115 145 C115.40429834 151.73830572 114.04914517 155.48247879 109.8125 160.6875 C105.31269959 164.3873359 101.07767995 165.78871051 95.3125 166.375 C91.74459891 165.97108667 89.92519281 165.0058465 87 163 C86.34 163 85.68 163 85 163 C84.01 165.97 84.01 165.97 83 169 C83.5053125 169.31453125 84.010625 169.6290625 84.53125 169.953125 C85.1809375 170.38109375 85.830625 170.8090625 86.5 171.25 C87.1496875 171.66765625 87.799375 172.0853125 88.46875 172.515625 C89.22671875 173.25039063 89.22671875 173.25039063 90 174 C90 175.32 90 176.64 90 178 C86.68289418 177.63143269 85.30834668 177.31769052 82.9375 174.875 C81.9784375 173.946875 81.9784375 173.946875 81 173 C77.98188578 173.17753613 77.16264785 173.83735215 75 176 C75.21478873 179.00704218 76.3555435 180.52792822 78.0625 183.0625 C80 186 80 186 80 189 C76 189 76 189 74.515625 187.5390625 C74.09796875 186.90742188 73.6803125 186.27578125 73.25 185.625 C72.82203125 184.99851563 72.3940625 184.37203125 71.953125 183.7265625 C71 182 71 182 71 180 C69.77990234 180.54140625 69.77990234 180.54140625 68.53515625 181.09375 C51.93417758 187.81630604 35.64606496 185.95565494 19.30078125 179.08203125 C-9.77848836 166.19925559 -37.56143003 144.29419124 -50.90625 114.97265625 C-53.08857922 109.04139718 -53.13115243 103.35652871 -53.0625 97.125 C-53.05798828 96.34125 -53.05347656 95.5575 -53.04882812 94.75 C-53.03714093 92.83329986 -53.01920908 90.91663952 -53 89 C-56.63 87.68 -60.26 86.36 -64 85 C-63.67 83.68 -63.34 82.36 -63 81 C-62.31292969 81.2165625 -61.62585938 81.433125 -60.91796875 81.65625 C-60.01691406 81.9346875 -59.11585937 82.213125 -58.1875 82.5 C-57.29417969 82.7784375 -56.40085937 83.056875 -55.48046875 83.34375 C-52.94426605 84.12788351 -52.94426605 84.12788351 -50 84 C-49.01 81.69 -48.02 79.38 -47 77 C-47.7425 76.731875 -48.485 76.46375 -49.25 76.1875 C-51.90909879 75.0392528 -53.87781485 73.96498625 -56 72 C-56 71.01 -56 70.02 -56 69 C-52.96963773 69.4329089 -51.04997985 69.96830546 -48.4375 71.625 C-46.14888521 73.17912752 -46.14888521 73.17912752 -43.8125 73 C-41.20826105 71.56317851 -40.85003792 69.76262325 -40 67 C-40.44472656 66.54109375 -40.88945313 66.0821875 -41.34765625 65.609375 C-41.91355469 64.99578125 -42.47945312 64.3821875 -43.0625 63.75 C-43.63097656 63.14671875 -44.19945313 62.5434375 -44.78515625 61.921875 C-46 60 -46 60 -45.68359375 57.765625 C-45.45800781 57.18296875 -45.23242188 56.6003125 -45 56 C-40.44984107 57.51671964 -38.49942736 61.16891053 -36 65 C-35.45472656 64.63648437 -34.90945312 64.27296875 -34.34765625 63.8984375 C-32.76322113 62.84214742 -31.17857081 61.78618008 -29.59375 60.73046875 C-27.88380711 59.58964842 -26.17543367 58.44647168 -24.46875 57.30078125 C-23.6746875 56.76839844 -22.880625 56.23601563 -22.0625 55.6875 C-21.33160156 55.19636719 -20.60070313 54.70523438 -19.84765625 54.19921875 C-18 53 -18 53 -16 52 C-15.09697801 49.92478601 -14.2757026 47.81358732 -13.5 45.6875 C-12.15337201 42.02122318 -10.83968428 38.44940802 -9 35 C-9.5775 34.7525 -10.155 34.505 -10.75 34.25 C-14.12063422 32.37742544 -16.2951921 30.19817343 -18.25 26.875 C-19.58006749 21.77640795 -20.10833123 16.67923045 -18.0546875 11.71484375 C-13.94752273 4.80499107 -8.35966007 -0.46442556 0 0 Z " fill="#F6AE57" transform="translate(82,6)"/>
<path d="M0 0 C7.13537779 1.95356945 12.64694781 3.86028725 18.1875 8.875 C26.89716152 16.51739446 36.0147209 18.33616075 47.30078125 18.30078125 C51.9714392 17.92101286 55.8203287 16.53565018 60.1796875 14.90234375 C65.79348799 13.10623861 70.82179557 13.27393186 76.375 15.125 C80.01386044 17.72418603 82.5667872 20.58709899 83.38134766 25.12402344 C83.54589027 27.52542867 83.60977831 29.90556983 83.625 32.3125 C83.81862355 44.38492816 85.71508937 55.0529084 94.11328125 64.3359375 C97.6485226 67.62084224 101.04429377 70.17826593 105.4375 72.1875 C109 74 109 74 110.25 76.4375 C110.4975 77.283125 110.745 78.12875 111 79 C112.28667172 80.70294787 113.61096733 82.37946188 115 84 C114.0345546 86.49879986 113.46692853 87.74617273 111.07421875 89.046875 C93.97599513 94.08399489 76.10153876 89.69813594 60.75 81.4375 C59.93080078 81.00058838 59.11160156 80.56367676 58.26757812 80.11352539 C50.70520809 75.99215179 43.80332077 71.26406944 37 66 C36.071875 65.29488281 35.14375 64.58976562 34.1875 63.86328125 C17.7391632 50.92934199 5.69938863 37.09816589 -1 17 C-1.09599519 14.46742101 -1.13937035 11.96907608 -1.125 9.4375 C-1.12886719 8.75236328 -1.13273437 8.06722656 -1.13671875 7.36132812 C-1.12669335 2.2533867 -1.12669335 2.2533867 0 0 Z " fill="#FAFBFA" transform="translate(34,96)"/>
<path d="M0 0 C0 1.32 0 2.64 0 4 C-0.60328125 4.23074219 -1.2065625 4.46148438 -1.828125 4.69921875 C-7.61515809 7.06070161 -11.11912519 9.23825038 -14 15 C-14.37747393 20.66210888 -14.06654703 24.04634711 -11 29 C-10.34 29.66 -9.68 30.32 -9 31 C-8.01 31 -7.02 31 -6 31 C-4.16898358 29.00622387 -4.16898358 29.00622387 -2.375 26.4375 C1.85615922 20.92132205 6.72031307 16.13984346 13 13 C17.61141254 12.45288326 20.75001295 12.30444962 24.5625 15.125 C32.33374989 22.66506854 36.23754132 34.57631578 38 45 C38 45.99 38 46.98 38 48 C38.66515625 48.09023438 39.3303125 48.18046875 40.015625 48.2734375 C43.88958004 49.21657315 47.20162893 50.8341437 50.75 52.625 C51.4630127 52.984729 52.17602539 53.34445801 52.91064453 53.71508789 C58.47158835 56.59180934 63.30944871 59.83647695 68 64 C68.85335937 64.73476562 69.70671875 65.46953125 70.5859375 66.2265625 C77.54572434 72.32913219 77.54572434 72.32913219 80.1875 76.23046875 C83.66164551 79.65153704 85.40539443 79.69193712 90.109375 79.78515625 C90.98078125 79.77355469 91.8521875 79.76195313 92.75 79.75 C103.20121868 79.79721936 114.81513109 80.56481217 123.0625 87.8125 C125.5847377 93.69772129 123.66251068 99.35779055 121.45703125 105.03125 C115.92863506 116.29554251 106.53933213 126.25482744 96 133 C95.34 133 94.68 133 94 133 C94.0825 133.9075 94.165 134.815 94.25 135.75 C94.28908606 140.53804255 92.53315642 144.69954708 90.875 149.1328125 C90.00936667 151.96930743 89.71356597 154.05893625 90 157 C92.41258405 159.91520573 94.09205763 160.0103936 97.875 160.4375 C102.1659538 160.26938427 104.72018157 158.81127294 108 156 C110.39198065 152.69678862 110.5403461 148.98366713 111 145 C112.32 145 113.64 145 115 145 C115.40429834 151.73830572 114.04914517 155.48247879 109.8125 160.6875 C105.31269959 164.3873359 101.07767995 165.78871051 95.3125 166.375 C91.74459891 165.97108667 89.92519281 165.0058465 87 163 C86.34 163 85.68 163 85 163 C84.01 165.97 84.01 165.97 83 169 C83.5053125 169.31453125 84.010625 169.6290625 84.53125 169.953125 C85.1809375 170.38109375 85.830625 170.8090625 86.5 171.25 C87.1496875 171.66765625 87.799375 172.0853125 88.46875 172.515625 C89.22671875 173.25039063 89.22671875 173.25039063 90 174 C90 175.32 90 176.64 90 178 C86.68289418 177.63143269 85.30834668 177.31769052 82.9375 174.875 C81.9784375 173.946875 81.9784375 173.946875 81 173 C77.98188578 173.17753613 77.16264785 173.83735215 75 176 C75.21478873 179.00704218 76.3555435 180.52792822 78.0625 183.0625 C80 186 80 186 80 189 C76 189 76 189 74.515625 187.5390625 C74.09796875 186.90742188 73.6803125 186.27578125 73.25 185.625 C72.82203125 184.99851563 72.3940625 184.37203125 71.953125 183.7265625 C71 182 71 182 71 180 C69.77990234 180.54140625 69.77990234 180.54140625 68.53515625 181.09375 C51.93417758 187.81630604 35.64606496 185.95565494 19.30078125 179.08203125 C-9.77848836 166.19925559 -37.56143003 144.29419124 -50.90625 114.97265625 C-53.08857922 109.04139718 -53.13115243 103.35652871 -53.0625 97.125 C-53.05798828 96.34125 -53.05347656 95.5575 -53.04882812 94.75 C-53.03714093 92.83329986 -53.01920908 90.91663952 -53 89 C-56.63 87.68 -60.26 86.36 -64 85 C-63.67 83.68 -63.34 82.36 -63 81 C-62.31292969 81.2165625 -61.62585938 81.433125 -60.91796875 81.65625 C-60.01691406 81.9346875 -59.11585937 82.213125 -58.1875 82.5 C-57.29417969 82.7784375 -56.40085937 83.056875 -55.48046875 83.34375 C-52.94426605 84.12788351 -52.94426605 84.12788351 -50 84 C-49.01 81.69 -48.02 79.38 -47 77 C-47.7425 76.731875 -48.485 76.46375 -49.25 76.1875 C-51.90909879 75.0392528 -53.87781485 73.96498625 -56 72 C-56 71.01 -56 70.02 -56 69 C-52.96963773 69.4329089 -51.04997985 69.96830546 -48.4375 71.625 C-46.14888521 73.17912752 -46.14888521 73.17912752 -43.8125 73 C-41.20826105 71.56317851 -40.85003792 69.76262325 -40 67 C-40.44472656 66.54109375 -40.88945313 66.0821875 -41.34765625 65.609375 C-41.91355469 64.99578125 -42.47945312 64.3821875 -43.0625 63.75 C-43.63097656 63.14671875 -44.19945313 62.5434375 -44.78515625 61.921875 C-46 60 -46 60 -45.68359375 57.765625 C-45.45800781 57.18296875 -45.23242188 56.6003125 -45 56 C-40.44984107 57.51671964 -38.49942736 61.16891053 -36 65 C-35.45472656 64.63648437 -34.90945312 64.27296875 -34.34765625 63.8984375 C-32.76322113 62.84214742 -31.17857081 61.78618008 -29.59375 60.73046875 C-27.88380711 59.58964842 -26.17543367 58.44647168 -24.46875 57.30078125 C-23.6746875 56.76839844 -22.880625 56.23601563 -22.0625 55.6875 C-21.33160156 55.19636719 -20.60070313 54.70523438 -19.84765625 54.19921875 C-18 53 -18 53 -16 52 C-15.09697801 49.92478601 -14.2757026 47.81358732 -13.5 45.6875 C-12.15337201 42.02122318 -10.83968428 38.44940802 -9 35 C-9.5775 34.7525 -10.155 34.505 -10.75 34.25 C-14.12063422 32.37742544 -16.2951921 30.19817343 -18.25 26.875 C-19.58006749 21.77640795 -20.10833123 16.67923045 -18.0546875 11.71484375 C-13.94752273 4.80499107 -8.35966007 -0.46442556 0 0 Z M-32 68 C-32 71.38052219 -31.56634911 71.88869475 -29.5625 74.4375 C-27.59808236 76.93919426 -26.59983656 78.86292373 -26 82 C-29.47132095 80.59070303 -30.88093274 79.09394917 -32.75 75.875 C-33.39195313 74.78832031 -33.39195313 74.78832031 -34.046875 73.6796875 C-34.36140625 73.12539062 -34.6759375 72.57109375 -35 72 C-37.0162233 72.71563266 -37.0162233 72.71563266 -39 74 C-39.80528889 76.05000871 -39.80528889 76.05000871 -40 78 C-39.4946875 78.40992187 -38.989375 78.81984375 -38.46875 79.2421875 C-37.8190625 79.78101562 -37.169375 80.31984375 -36.5 80.875 C-35.8503125 81.40867188 -35.200625 81.94234375 -34.53125 82.4921875 C-34.0259375 82.98976562 -33.520625 83.48734375 -33 84 C-33 84.66 -33 85.32 -33 86 C-37.66617211 84.36053412 -37.66617211 84.36053412 -39.5625 82.3125 C-40.036875 81.879375 -40.51125 81.44625 -41 81 C-43.16299211 81.22757731 -43.16299211 81.22757731 -45 82 C-45.495 84.475 -45.495 84.475 -46 87 C-44.70990357 87.50403768 -43.41786211 88.00309926 -42.125 88.5 C-41.40570313 88.7784375 -40.68640625 89.056875 -39.9453125 89.34375 C-38.02632539 90.10655018 -38.02632539 90.10655018 -36 90 C-36 90.99 -36 91.98 -36 93 C-39.96 92.01 -43.92 91.02 -48 90 C-50.83451224 95.66902448 -49.63702574 104.51779627 -48.09375 110.53125 C-43.77573822 122.15666633 -37.54426682 131.10727206 -29 140 C-28.26136719 140.80179687 -27.52273437 141.60359375 -26.76171875 142.4296875 C-7.70440467 162.47990366 20.18509878 180.52209175 48.375 181.25 C54.1001052 181.19668121 59.88197605 180.7822118 65 178 C66.29584407 175.98394566 66.29584407 175.98394566 67 174 C66.360625 173.2575 65.72125 172.515 65.0625 171.75 C63.21666593 169.2888879 62.43930826 167.96533074 62 165 C65.34998521 166.11666174 65.79340222 166.74694925 67.6875 169.5625 C68.34298828 170.52349609 68.34298828 170.52349609 69.01171875 171.50390625 C69.33785156 171.99761719 69.66398437 172.49132812 70 173 C71.94074861 172.72382467 71.94074861 172.72382467 74 172 C74.99 170.515 74.99 170.515 76 169 C75.4225 168.60167969 74.845 168.20335937 74.25 167.79296875 C73.13625 166.99826172 73.13625 166.99826172 72 166.1875 C71.2575 165.66542969 70.515 165.14335937 69.75 164.60546875 C69.1725 164.07566406 68.595 163.54585938 68 163 C68 162.01 68 161.02 68 160 C70.55542423 161.1357441 72.43077828 162.34872527 74.625 164.125 C76.75730599 166.2065481 76.75730599 166.2065481 79 166 C79.99 164.02 80.98 162.04 82 160 C81.14535156 159.67386719 80.29070312 159.34773438 79.41015625 159.01171875 C78.30542969 158.57472656 77.20070313 158.13773437 76.0625 157.6875 C74.96035156 157.25824219 73.85820312 156.82898438 72.72265625 156.38671875 C70 155 70 155 69 152 C69.83144531 152.28875 70.66289062 152.5775 71.51953125 152.875 C72.60621094 153.24625 73.69289063 153.6175 74.8125 154 C76.43091797 154.556875 76.43091797 154.556875 78.08203125 155.125 C80.97120802 156.14361512 80.97120802 156.14361512 84 156 C91.58388253 134.10690514 96.1553705 114.90361695 86.5625 92.66796875 C76.75541688 72.79448061 57.1809042 57.70040472 36.4375 50.5 C13.19580494 43.2137792 -15.11074597 50.07752102 -32 68 Z " fill="#484644" transform="translate(82,6)"/>
<path d="M0 0 C0 1.32 0 2.64 0 4 C-0.60328125 4.23074219 -1.2065625 4.46148438 -1.828125 4.69921875 C-7.61515809 7.06070161 -11.11912519 9.23825038 -14 15 C-14.37747393 20.66210888 -14.06654703 24.04634711 -11 29 C-10.34 29.66 -9.68 30.32 -9 31 C-8.01 31 -7.02 31 -6 31 C-4.16898358 29.00622387 -4.16898358 29.00622387 -2.375 26.4375 C1.85615922 20.92132205 6.72031307 16.13984346 13 13 C20.26739927 12.41391941 20.26739927 12.41391941 23.5 15 C23.995 15.66 24.49 16.32 25 17 C24.34 17.33 23.68 17.66 23 18 C22.23300781 17.64292969 21.46601562 17.28585938 20.67578125 16.91796875 C18.04909503 15.71391379 18.04909503 15.71391379 15.60546875 16.80078125 C3.75676756 24.2086122 -4.0862006 34.92833947 -9 48 C-8.41476563 47.7834375 -7.82953125 47.566875 -7.2265625 47.34375 C1.83604906 44.40452463 10.5934223 44.7205967 20 45 C20 45.66 20 46.32 20 47 C19.14003418 47.14248169 19.14003418 47.14248169 18.26269531 47.2878418 C-0.69350483 50.49093017 -17.57871609 55.56198544 -32 69 C-31.566875 69.60328125 -31.13375 70.2065625 -30.6875 70.828125 C-30.130625 71.62734375 -29.57375 72.4265625 -29 73.25 C-28.1646875 74.43335937 -28.1646875 74.43335937 -27.3125 75.640625 C-26 78 -26 78 -26 82 C-28.48660455 81.6121322 -29.72345219 81.29037521 -31.484375 79.44140625 C-31.90203125 78.82136719 -32.3196875 78.20132813 -32.75 77.5625 C-33.17796875 76.94503906 -33.6059375 76.32757813 -34.046875 75.69140625 C-35 74 -35 74 -35 72 C-36.32 73.32 -37.64 74.64 -39 76 C-37.9521672 79.14349841 -37.42086332 79.73251185 -34.9375 81.6875 C-33.4834375 82.8321875 -33.4834375 82.8321875 -32 84 C-32.33 84.99 -32.66 85.98 -33 87 C-36.45918019 85.78461236 -38.44032926 84.55967074 -41 82 C-41.99 82 -42.98 82 -44 82 C-44.66 83.65 -45.32 85.3 -46 87 C-42.7 87.99 -39.4 88.98 -36 90 C-36 90.99 -36 91.98 -36 93 C-44.03571429 92.19642857 -44.03571429 92.19642857 -48 90 C-48.95367968 107.69605623 -44.62792132 121.56463242 -32.6875 135.0625 C-31.13373933 136.71658627 -29.57141176 138.36267331 -28 140 C-27.33484375 140.72832031 -26.6696875 141.45664063 -25.984375 142.20703125 C-8.3400482 160.89520181 18.91978306 178.75721909 45.046875 180.1640625 C52.25126686 180.3500914 58.25541901 179.55776435 65 177 C65.4 173.11666667 65.4 173.11666667 63.5 171 C62 169 62 169 62 165 C63.75 165.125 63.75 165.125 66 166 C68.25 169.0625 68.25 169.0625 70 172 C71.32 171.67 72.64 171.34 74 171 C74 170.01 74 169.02 74 168 C72.4645122 166.53909212 72.4645122 166.53909212 70.5 165.3125 C69.8503125 164.87550781 69.200625 164.43851563 68.53125 163.98828125 C68.0259375 163.66214844 67.520625 163.33601562 67 163 C67.33 161.68 67.66 160.36 68 159 C72.04420651 160.77945087 75.46078487 163.39529673 79 166 C79.99 163.03 79.99 163.03 81 160 C80.21753906 159.75765625 79.43507812 159.5153125 78.62890625 159.265625 C77.61699219 158.93046875 76.60507813 158.5953125 75.5625 158.25 C74.55316406 157.92515625 73.54382813 157.6003125 72.50390625 157.265625 C70 156 70 156 69.15234375 153.859375 C69.10207031 153.24578125 69.05179688 152.6321875 69 152 C74.11365014 153.0681847 79.07227969 154.23107476 84 156 C84.144375 155.236875 84.28875 154.47375 84.4375 153.6875 C85.37440475 149.2111773 86.23555116 147.5501105 90 145 C91.53166168 149.08443115 90.63081652 152.79455657 90 157 C92.63574873 159.63574873 94.09442452 160.01066083 97.875 160.4375 C102.1659538 160.26938427 104.72018157 158.81127294 108 156 C110.39198065 152.69678862 110.5403461 148.98366713 111 145 C112.32 145 113.64 145 115 145 C115.40429834 151.73830572 114.04914517 155.48247879 109.8125 160.6875 C105.31269959 164.3873359 101.07767995 165.78871051 95.3125 166.375 C91.74459891 165.97108667 89.92519281 165.0058465 87 163 C86.34 163 85.68 163 85 163 C84.01 165.97 84.01 165.97 83 169 C83.5053125 169.31453125 84.010625 169.6290625 84.53125 169.953125 C85.1809375 170.38109375 85.830625 170.8090625 86.5 171.25 C87.1496875 171.66765625 87.799375 172.0853125 88.46875 172.515625 C89.22671875 173.25039063 89.22671875 173.25039063 90 174 C90 175.32 90 176.64 90 178 C86.68289418 177.63143269 85.30834668 177.31769052 82.9375 174.875 C81.9784375 173.946875 81.9784375 173.946875 81 173 C77.98188578 173.17753613 77.16264785 173.83735215 75 176 C75.21478873 179.00704218 76.3555435 180.52792822 78.0625 183.0625 C80 186 80 186 80 189 C76 189 76 189 74.515625 187.5390625 C74.09796875 186.90742188 73.6803125 186.27578125 73.25 185.625 C72.82203125 184.99851563 72.3940625 184.37203125 71.953125 183.7265625 C71 182 71 182 71 180 C69.77990234 180.54140625 69.77990234 180.54140625 68.53515625 181.09375 C51.93417758 187.81630604 35.64606496 185.95565494 19.30078125 179.08203125 C-9.77848836 166.19925559 -37.56143003 144.29419124 -50.90625 114.97265625 C-53.08857922 109.04139718 -53.13115243 103.35652871 -53.0625 97.125 C-53.05798828 96.34125 -53.05347656 95.5575 -53.04882812 94.75 C-53.03714093 92.83329986 -53.01920908 90.91663952 -53 89 C-56.63 87.68 -60.26 86.36 -64 85 C-63.67 83.68 -63.34 82.36 -63 81 C-62.31292969 81.2165625 -61.62585938 81.433125 -60.91796875 81.65625 C-60.01691406 81.9346875 -59.11585937 82.213125 -58.1875 82.5 C-57.29417969 82.7784375 -56.40085937 83.056875 -55.48046875 83.34375 C-52.94426605 84.12788351 -52.94426605 84.12788351 -50 84 C-49.01 81.69 -48.02 79.38 -47 77 C-47.7425 76.731875 -48.485 76.46375 -49.25 76.1875 C-51.90909879 75.0392528 -53.87781485 73.96498625 -56 72 C-56 71.01 -56 70.02 -56 69 C-52.96963773 69.4329089 -51.04997985 69.96830546 -48.4375 71.625 C-46.14888521 73.17912752 -46.14888521 73.17912752 -43.8125 73 C-41.20826105 71.56317851 -40.85003792 69.76262325 -40 67 C-40.44472656 66.54109375 -40.88945313 66.0821875 -41.34765625 65.609375 C-41.91355469 64.99578125 -42.47945312 64.3821875 -43.0625 63.75 C-43.63097656 63.14671875 -44.19945313 62.5434375 -44.78515625 61.921875 C-46 60 -46 60 -45.68359375 57.765625 C-45.45800781 57.18296875 -45.23242188 56.6003125 -45 56 C-40.44984107 57.51671964 -38.49942736 61.16891053 -36 65 C-35.45472656 64.63648437 -34.90945312 64.27296875 -34.34765625 63.8984375 C-32.76322113 62.84214742 -31.17857081 61.78618008 -29.59375 60.73046875 C-27.88380711 59.58964842 -26.17543367 58.44647168 -24.46875 57.30078125 C-23.6746875 56.76839844 -22.880625 56.23601563 -22.0625 55.6875 C-21.33160156 55.19636719 -20.60070313 54.70523438 -19.84765625 54.19921875 C-18 53 -18 53 -16 52 C-15.09697801 49.92478601 -14.2757026 47.81358732 -13.5 45.6875 C-12.15337201 42.02122318 -10.83968428 38.44940802 -9 35 C-9.5775 34.7525 -10.155 34.505 -10.75 34.25 C-14.12063422 32.37742544 -16.2951921 30.19817343 -18.25 26.875 C-19.58006749 21.77640795 -20.10833123 16.67923045 -18.0546875 11.71484375 C-13.94752273 4.80499107 -8.35966007 -0.46442556 0 0 Z " fill="#414141" transform="translate(82,6)"/>
<path d="M0 0 C23.90625 -0.703125 23.90625 -0.703125 34 7 C33.55215635 20.65923131 25.32971829 29.86040698 16 39 C11.26788686 43 11.26788686 43 10 43 C9.96261719 41.91203125 9.92523438 40.8240625 9.88671875 39.703125 C9.51193967 30.77666121 8.55939035 22.61012296 6 14 C5.67 12.68 5.34 11.36 5 10 C11.6 10 18.2 10 25 10 C21.78136488 6.72985339 21.78136488 6.72985339 17.65625 6.62890625 C16.82222656 6.61150391 15.98820313 6.59410156 15.12890625 6.57617188 C13.37631804 6.56705737 11.62370517 6.56184896 9.87109375 6.56054688 C3.45685679 6.41679659 3.45685679 6.41679659 0.90625 4.08984375 C0 2 0 2 0 0 Z " fill="#F9B15B" transform="translate(168,90)"/>
<path d="M0 0 C8.16515274 5.974502 11.35846775 17.67347272 14 27 C14 27.66 14 28.32 14 29 C12.02 29 10.04 29 8 29 C7.81824219 28.443125 7.63648438 27.88625 7.44921875 27.3125 C6.64494222 24.87079896 5.82308216 22.43542119 5 20 C4.74863281 19.2265625 4.49726562 18.453125 4.23828125 17.65625 C3.58145774 15.73790833 2.79873895 13.86372422 2 12 C1.01 11.67 0.02 11.34 -1 11 C-0.7834375 11.56847656 -0.566875 12.13695312 -0.34375 12.72265625 C-0.0653125 13.49480469 0.213125 14.26695313 0.5 15.0625 C0.7784375 15.81660156 1.056875 16.57070313 1.34375 17.34765625 C2.1534654 20.62025601 2.09864115 23.64209095 2 27 C1.16190796 27.06731323 1.16190796 27.06731323 0.30688477 27.13598633 C-2.27567165 27.35002212 -4.85643746 27.58116977 -7.4375 27.8125 C-8.31599609 27.88275391 -9.19449219 27.95300781 -10.09960938 28.02539062 C-15.45724226 28.5196372 -20.09916478 29.49854956 -25.10961914 31.4831543 C-27 32 -27 32 -30 31 C-14.89789355 -1.75269336 -14.89789355 -1.75269336 0 0 Z " fill="#F0AA58" transform="translate(102,23)"/>
<path d="M0 0 C4.80618918 1.4234052 7.50112796 4.30576675 10.8125 7.875 C28.50609849 26.21186229 53.67277267 43.24915669 79.4375 46.125 C80.16904297 46.21136719 80.90058594 46.29773438 81.65429688 46.38671875 C83.43560094 46.59628393 85.21772281 46.79887868 87 47 C87 47.33 87 47.66 87 48 C85.35 48.33 83.7 48.66 82 49 C85.96 49.33 89.92 49.66 94 50 C94 50.33 94 50.66 94 51 C60.53551541 52.49099189 33.29750028 35.36236256 9.24462891 13.39697266 C0.3377541 5.0132623 0.3377541 5.0132623 -1 1 C-0.67 0.67 -0.34 0.34 0 0 Z " fill="#434647" transform="translate(45,140)"/>
<path d="M0 0 C5.88679465 1.35849107 10.858142 4.64886917 15 9 C15.76171875 11.73046875 15.76171875 11.73046875 16 14 C10.99067246 17.00559652 7.67276511 17.29341888 2 17 C2.99 19.31 3.98 21.62 5 24 C7.64 24 10.28 24 13 24 C13 25.32 13 26.64 13 28 C10.09704195 29.45147903 8.22738221 29.37239025 5 29 C1.86445777 27.18964074 -0.56503134 25.14956003 -1.875 21.6875 C-1.91625 21.130625 -1.9575 20.57375 -2 20 C-2.886875 20.103125 -3.77375 20.20625 -4.6875 20.3125 C-9.03938306 19.90194499 -10.25973354 18.28831975 -13 15 C-14.35439668 12.29120665 -14.06501451 9.99066732 -14 7 C-12.68 6.67 -11.36 6.34 -10 6 C-9.87625 7.11375 -9.7525 8.2275 -9.625 9.375 C-9.3534187 13.03103677 -9.3534187 13.03103677 -7 15 C-4.41645782 15.16687448 -4.41645782 15.16687448 -2 15 C-0.66666667 12 -0.66666667 12 -2 9 C-2.1875 5.4375 -2.1875 5.4375 -2 2 C-1.34 1.34 -0.68 0.68 0 0 Z " fill="#424242" transform="translate(97,115)"/>
<path d="M0 0 C0.17638838 3.16594536 0.28152076 6.33060873 0.375 9.5 C0.45041016 10.8303125 0.45041016 10.8303125 0.52734375 12.1875 C0.68182753 19.19076464 -1.22660895 22.92703875 -6 28 C-10.21853341 27.2040503 -11.55870667 25.53566621 -14 22 C-15.24266632 18.27200105 -15.52902513 14.87217006 -15 11 C-12.47202318 6.1313039 -9.1326386 2.07404752 -3.8125 0.25 C-2 0 -2 0 0 0 Z " fill="#F2AF57" transform="translate(82,10)"/>
<path d="M0 0 C3.49406769 1.66762322 4.82670681 2.74006022 7 6 C7.32399838 10.51105433 6.78910894 14.01959192 3.9375 17.5625 C-0.1676658 19.57141092 -2.44263749 19.5787127 -7 19 C-9.43119623 17.12984906 -10.64069173 15.71861655 -12 13 C-12.39447548 8.81855989 -12.45035186 6.69053952 -10.125 3.125 C-6.78093438 -0.21906562 -4.66879831 -0.36618026 0 0 Z " fill="#3F3F3F" transform="translate(137,123)"/>
<path d="M0 0 C2.7708983 -0.02696009 5.5415345 -0.04681952 8.3125 -0.0625 C9.09818359 -0.07087891 9.88386719 -0.07925781 10.69335938 -0.08789062 C11.45068359 -0.09111328 12.20800781 -0.09433594 12.98828125 -0.09765625 C13.68477783 -0.10289307 14.38127441 -0.10812988 15.09887695 -0.11352539 C17 0 17 0 20 1 C19.61619157 10.01949811 13.46060636 17.94804645 7 24 C6.34 24 5.68 24 5 24 C4.80664062 22.85402344 4.61328125 21.70804688 4.4140625 20.52734375 C4.15124341 18.99736117 3.88821121 17.46741518 3.625 15.9375 C3.49867188 15.18533203 3.37234375 14.43316406 3.2421875 13.65820312 C2.43457615 8.99424757 1.38290374 4.5275066 0 0 Z " fill="#FAB8B9" transform="translate(173,100)"/>
<path d="M0 0 C2.0625 1.5 2.0625 1.5 3 4 C3.44273548 7.08779614 3.52668225 9.91919199 3 13 C1.12379387 15.50160818 -0.23891303 16.61945652 -3 18 C-7.2535161 18.48153012 -9.3220363 18.44716755 -12.9375 16.0625 C-15.33513482 12.50237556 -15.8075425 10.38908982 -15.5390625 6.1640625 C-14.81395283 3.253115 -13.39165073 1.44553467 -10.921875 -0.25390625 C-7.19473802 -1.70082325 -3.74394609 -1.18191239 0 0 Z " fill="#40403F" transform="translate(91,89)"/>
<path d="M0 0 C2.97 1.98 5.94 3.96 9 6 C7.18594575 10.53513563 5.63180765 12.96602241 2.5625 16.625 C1.78003906 17.56601563 0.99757812 18.50703125 0.19140625 19.4765625 C-4.56688273 24.95580436 -4.56688273 24.95580436 -8.0625 25.3125 C-11 25 -11 25 -13 23 C-12.87141083 16.86554037 -10.64585467 13.36646661 -7.0625 8.6875 C-6.60681641 8.06810547 -6.15113281 7.44871094 -5.68164062 6.81054688 C-3.8963094 4.40309437 -2.12159585 2.12159585 0 0 Z " fill="#C3833F" transform="translate(137,66)"/>
<path d="M0 0 C0.51160079 1.68401926 1.00868059 3.37245222 1.5 5.0625 C1.7784375 6.00222656 2.056875 6.94195312 2.34375 7.91015625 C3 11 3 11 3 18 C-8.385 18.99 -8.385 18.99 -20 20 C-17.34292619 12.02877856 -13.01859735 5.81275247 -6 1 C-4 0 -4 0 0 0 Z " fill="#F7B1B2" transform="translate(101,32)"/>
<path d="M0 0 C6.6 0 13.2 0 20 0 C20 6.21029673 19.74553082 7.44462468 16 12 C12.47987944 14.9334338 9.41060379 15.55185502 4.94140625 15.33984375 C1.57598675 14.75072605 0.07708861 13.68011434 -2 11 C-2.2272597 7.10523901 -1.2222943 3.66688289 0 0 Z " fill="#F8B356" transform="translate(173,152)"/>
<path d="M0 0 C1.4589426 0.47730838 2.91713496 0.95691042 4.375 1.4375 C5.18710938 1.70433594 5.99921875 1.97117188 6.8359375 2.24609375 C9 3 9 3 11 4 C9.61047587 8.01018103 7.73301706 10.90032723 5.0625 14.1875 C4.37285156 15.04730469 3.68320313 15.90710938 2.97265625 16.79296875 C1 19 1 19 -2 21 C-4.6875 20.625 -4.6875 20.625 -7 20 C-8.13009258 16.15413521 -8.21324403 13.83855602 -6.34765625 10.3515625 C-5.6028183 9.0991801 -4.84055201 7.85702285 -4.0625 6.625 C-3.67642578 5.98433594 -3.29035156 5.34367187 -2.89257812 4.68359375 C-1.94334402 3.11325585 -0.9736653 1.55530781 0 0 Z " fill="#C78844" transform="translate(120,58)"/>
<path d="M0 0 C1.75 0.125 1.75 0.125 4 1 C5.34331654 2.99330842 6.67594012 4.99384866 8 7 C8.886875 7.515625 9.77375 8.03125 10.6875 8.5625 C13 10 13 10 13.5625 12.3125 C13.706875 13.199375 13.85125 14.08625 14 15 C15.32405988 17.00615134 16.65668346 19.00669158 18 21 C18 21.99 18 22.98 18 24 C14 24 14 24 12.515625 22.5390625 C12.09796875 21.90742188 11.6803125 21.27578125 11.25 20.625 C10.82203125 19.99851563 10.3940625 19.37203125 9.953125 18.7265625 C9 17 9 17 9 15 C8.08734375 15.433125 8.08734375 15.433125 7.15625 15.875 C-1.34855138 19.47703353 -8.95255003 19.40866775 -18 19 C-17.67 18.34 -17.34 17.68 -17 17 C-13.94525787 16.28057244 -10.90471217 15.74258181 -7.81054688 15.23242188 C-3.42117804 14.44814176 0.11044627 13.17161709 4 11 C2.79618552 8.50638429 1.54571278 6.31856917 0 4 C0 2.68 0 1.36 0 0 Z " fill="#3F4345" transform="translate(144,171)"/>
<path d="M0 0 C1.17539996 0.92652701 2.34010577 1.86663387 3.5 2.8125 C4.1496875 3.33457031 4.799375 3.85664062 5.46875 4.39453125 C7 6 7 6 7 9 C5.57421875 10.9375 5.57421875 10.9375 3.6875 13 C2.76517578 14.0209375 2.76517578 14.0209375 1.82421875 15.0625 C0.92123047 16.0215625 0.92123047 16.0215625 0 17 C-0.50789062 17.57105469 -1.01578125 18.14210938 -1.5390625 18.73046875 C-3 20 -3 20 -6.0625 20.3125 C-9 20 -9 20 -11 18 C-10.88365454 12.58605777 -8.41167271 9.49581141 -4.9375 5.625 C-4.46505859 5.07972656 -3.99261719 4.53445312 -3.50585938 3.97265625 C-2.34782921 2.63916697 -1.17533989 1.31825781 0 0 Z " fill="#C88944" transform="translate(152,78)"/>
<path d="M0 0 C5.04572883 0.47601215 7.86161024 3.1288794 11.6875 6.25 C13.3125 8.3125 13.3125 8.3125 13.625 11 C13.3125 13.3125 13.3125 13.3125 12.3125 14.3125 C7.61851499 14.98306929 4.78989941 14.35991383 0.9375 11.75 C-2.12266805 9.2639834 -2.64092542 8.47962055 -3.75 4.5 C-3.67013254 0.4267596 -3.67013254 0.4267596 0 0 Z " fill="#FAB4B4" transform="translate(131.6875,146.6875)"/>
<path d="M0 0 C5.37606184 0.68267452 8.59147142 3.28073957 11.9375 7.5 C12.7890625 10.11328125 12.7890625 10.11328125 12.9375 12.5 C10.9375 14.5 10.9375 14.5 8.3125 14.5625 C3.58197338 13.07326014 0.09233648 10.32495688 -3.0625 6.5 C-3.85546875 3.828125 -3.85546875 3.828125 -4.0625 1.5 C-3.0625 0.5 -3.0625 0.5 0 0 Z " fill="#FAB2AB" transform="translate(59.0625,93.5)"/>
<path d="M0 0 C0 3 0 3 -2.1875 5.5625 C-4.81277706 7.83774012 -6.72443519 8.97053677 -10 10 C-3.84965831 2.51708428 -3.84965831 2.51708428 0 0 Z " fill="#474847" transform="translate(91,21)"/>
<path d="M0 0 C1.65 0 3.3 0 5 0 C5 1.32 5 2.64 5 4 C2.69 4.33 0.38 4.66 -2 5 C-1.34 3.35 -0.68 1.7 0 0 Z " fill="#4F4E4A" transform="translate(77,6)"/>
</svg>