<?xml version="1.0" encoding="UTF-8"?>
<svg version="1.1" xmlns="http://www.w3.org/2000/svg" width="195" height="222">
<path d="M0 0 C1.965385 0.96010187 3.73581521 2.01093391 5.5390625 3.24609375 C6.4259375 3.80296875 7.3128125 4.35984375 8.2265625 4.93359375 C13.70530277 10.41233402 15.87197783 15.52245094 16.1640625 23.30859375 C15.907122 30.73577997 13.6971227 35.08803355 8.5390625 40.24609375 C8.83981609 45.04045987 11.31543024 49.14665944 13.4140625 53.37109375 C20.12400697 67.42450137 24.00670298 82.97712935 18.9765625 98.37109375 C16.6997762 103.62331918 13.29965143 107.96789567 9.5390625 112.24609375 C10.28929687 112.354375 11.03953125 112.46265625 11.8125 112.57421875 C14.68737154 113.28263982 15.97541384 114.05729083 18.1640625 115.99609375 C18.73382813 116.4859375 19.30359375 116.97578125 19.890625 117.48046875 C23.65799113 121.51565711 24.95628983 124.72838907 24.9140625 130.24609375 C24.92179688 131.25671875 24.92953125 132.26734375 24.9375 133.30859375 C24.32593724 137.81737019 22.48463784 140.25769344 19.3828125 143.5 C15.57458178 145.83829551 12.43390485 146.02040012 8.0390625 146.18359375 C7.29269531 146.23837891 6.54632813 146.29316406 5.77734375 146.34960938 C1.05207188 146.5879638 -1.50231073 146.06158766 -5.4609375 143.24609375 C-6.6365625 142.95734375 -7.8121875 142.66859375 -9.0234375 142.37109375 C-13.16639195 141.01521775 -14.35912921 140.04551643 -16.4609375 136.24609375 C-17.05408792 133.25018145 -17.32809121 130.29491608 -17.4609375 127.24609375 C-18.26273438 127.50003906 -19.06453125 127.75398437 -19.890625 128.015625 C-29.65002896 130.97000239 -39.382397 132.79305264 -49.4609375 134.24609375 C-51.29011719 134.52646484 -51.29011719 134.52646484 -53.15625 134.8125 C-76.39685349 137.61405223 -101.25002626 135.93666593 -121.4609375 123.24609375 C-122.1828125 123.86484375 -122.9046875 124.48359375 -123.6484375 125.12109375 C-128.12855932 128.50607468 -131.80805571 129.93828336 -137.4609375 129.24609375 C-141.54247812 127.04834111 -143.57285905 125.39986634 -145.4609375 121.24609375 C-146.6984375 120.19421875 -146.6984375 120.19421875 -147.9609375 119.12109375 C-151.44232859 115.11749399 -151.88455466 111.41774802 -152.4609375 106.24609375 C-152.54472656 105.51519531 -152.62851563 104.78429687 -152.71484375 104.03125 C-153.01993718 98.90371201 -151.77676828 96.08547675 -148.4609375 92.24609375 C-144.1536125 88.70451542 -140.9205643 87.89866453 -135.4609375 87.24609375 C-135.42355469 86.14652344 -135.38617188 85.04695313 -135.34765625 83.9140625 C-135.02063911 76.08869292 -134.51227603 68.85932194 -132.08203125 61.34765625 C-131.31922717 59.1318326 -131.31922717 59.1318326 -131.4609375 56.24609375 C-133.0974672 54.58225767 -133.0974672 54.58225767 -135.2109375 52.99609375 C-140.12584832 48.79576216 -143.02868059 45.76268382 -143.8359375 39.1953125 C-144.08663541 32.40296601 -143.78361559 26.68393082 -139.4609375 21.24609375 C-133.80129151 15.32247173 -128.74077193 11.02121515 -120.2734375 10.80859375 C-113.37762858 10.91109902 -108.11594112 13.77059329 -102.5 17.57421875 C-100.37992688 18.51610703 -100.37992688 18.51610703 -98.04296875 17.26953125 C-97.12902344 16.72554687 -96.21507812 16.1815625 -95.2734375 15.62109375 C-82.49387172 8.96411564 -70.48005611 7.89075087 -56.2109375 7.80859375 C-54.95619629 7.79844238 -53.70145508 7.78829102 -52.40869141 7.77783203 C-44.07044169 7.85567762 -36.49630214 9.03139066 -28.4609375 11.24609375 C-28.17412109 10.45750977 -27.88730469 9.66892578 -27.59179688 8.85644531 C-26.2198895 5.68968503 -24.86712929 4.7888744 -21.9609375 2.99609375 C-21.166875 2.4959375 -20.3728125 1.99578125 -19.5546875 1.48046875 C-13.79073132 -1.91768452 -6.38569714 -1.95625325 0 0 Z " fill="#FBFBFB" transform="translate(160.4609375,63.75390625)"/>
<path d="M0 0 C1.965385 0.96010187 3.73581521 2.01093391 5.5390625 3.24609375 C6.4259375 3.80296875 7.3128125 4.35984375 8.2265625 4.93359375 C13.70530277 10.41233402 15.87197783 15.52245094 16.1640625 23.30859375 C15.907122 30.73577997 13.6971227 35.08803355 8.5390625 40.24609375 C8.83981609 45.04045987 11.31543024 49.14665944 13.4140625 53.37109375 C20.12400697 67.42450137 24.00670298 82.97712935 18.9765625 98.37109375 C16.6997762 103.62331918 13.29965143 107.96789567 9.5390625 112.24609375 C10.28929687 112.354375 11.03953125 112.46265625 11.8125 112.57421875 C14.68737154 113.28263982 15.97541384 114.05729083 18.1640625 115.99609375 C18.73382813 116.4859375 19.30359375 116.97578125 19.890625 117.48046875 C23.65799113 121.51565711 24.95628983 124.72838907 24.9140625 130.24609375 C24.92179688 131.25671875 24.92953125 132.26734375 24.9375 133.30859375 C24.32593724 137.81737019 22.48463784 140.25769344 19.3828125 143.5 C15.57458178 145.83829551 12.43390485 146.02040012 8.0390625 146.18359375 C7.29269531 146.23837891 6.54632813 146.29316406 5.77734375 146.34960938 C1.05207188 146.5879638 -1.50231073 146.06158766 -5.4609375 143.24609375 C-6.6365625 142.95734375 -7.8121875 142.66859375 -9.0234375 142.37109375 C-13.16639195 141.01521775 -14.35912921 140.04551643 -16.4609375 136.24609375 C-17.05408792 133.25018145 -17.32809121 130.29491608 -17.4609375 127.24609375 C-18.26273438 127.50003906 -19.06453125 127.75398437 -19.890625 128.015625 C-29.65002896 130.97000239 -39.382397 132.79305264 -49.4609375 134.24609375 C-51.29011719 134.52646484 -51.29011719 134.52646484 -53.15625 134.8125 C-76.39685349 137.61405223 -101.25002626 135.93666593 -121.4609375 123.24609375 C-122.1828125 123.86484375 -122.9046875 124.48359375 -123.6484375 125.12109375 C-128.12855932 128.50607468 -131.80805571 129.93828336 -137.4609375 129.24609375 C-141.54247812 127.04834111 -143.57285905 125.39986634 -145.4609375 121.24609375 C-146.6984375 120.19421875 -146.6984375 120.19421875 -147.9609375 119.12109375 C-151.44232859 115.11749399 -151.88455466 111.41774802 -152.4609375 106.24609375 C-152.54472656 105.51519531 -152.62851563 104.78429687 -152.71484375 104.03125 C-153.01993718 98.90371201 -151.77676828 96.08547675 -148.4609375 92.24609375 C-144.1536125 88.70451542 -140.9205643 87.89866453 -135.4609375 87.24609375 C-135.42355469 86.14652344 -135.38617188 85.04695313 -135.34765625 83.9140625 C-135.02063911 76.08869292 -134.51227603 68.85932194 -132.08203125 61.34765625 C-131.31922717 59.1318326 -131.31922717 59.1318326 -131.4609375 56.24609375 C-133.0974672 54.58225767 -133.0974672 54.58225767 -135.2109375 52.99609375 C-140.12584832 48.79576216 -143.02868059 45.76268382 -143.8359375 39.1953125 C-144.08663541 32.40296601 -143.78361559 26.68393082 -139.4609375 21.24609375 C-133.80129151 15.32247173 -128.74077193 11.02121515 -120.2734375 10.80859375 C-113.37762858 10.91109902 -108.11594112 13.77059329 -102.5 17.57421875 C-100.37992688 18.51610703 -100.37992688 18.51610703 -98.04296875 17.26953125 C-97.12902344 16.72554687 -96.21507812 16.1815625 -95.2734375 15.62109375 C-82.49387172 8.96411564 -70.48005611 7.89075087 -56.2109375 7.80859375 C-54.95619629 7.79844238 -53.70145508 7.78829102 -52.40869141 7.77783203 C-44.07044169 7.85567762 -36.49630214 9.03139066 -28.4609375 11.24609375 C-28.17412109 10.45750977 -27.88730469 9.66892578 -27.59179688 8.85644531 C-26.2198895 5.68968503 -24.86712929 4.7888744 -21.9609375 2.99609375 C-21.166875 2.4959375 -20.3728125 1.99578125 -19.5546875 1.48046875 C-13.79073132 -1.91768452 -6.38569714 -1.95625325 0 0 Z M-84.4609375 15.24609375 C-85.31558594 15.50132813 -86.17023438 15.7565625 -87.05078125 16.01953125 C-103.66681236 21.74195586 -115.8976226 34.96415712 -123.59277344 50.36669922 C-131.12297053 66.66800889 -135.067714 87.41612862 -129.9609375 104.99609375 C-125.31424664 116.33853706 -116.02894316 122.55201918 -105.078125 127.2734375 C-94.69066878 131.0151556 -84.03195234 131.60632857 -73.0859375 131.55859375 C-71.76972412 131.5544043 -70.45351074 131.55021484 -69.09741211 131.54589844 C-51.58423585 131.39173104 -23.29476813 130.57602529 -9.7734375 117.68359375 C-9.0103125 116.87921875 -8.2471875 116.07484375 -7.4609375 115.24609375 C-4.49315827 113.5411993 -1.91505906 112.35468804 1.4140625 111.55859375 C8.2584955 108.68393189 12.79988013 102.72037298 15.84765625 96.10546875 C20.80508537 82.77362547 16.20233405 68.45468367 10.7421875 56.02734375 C3.42711182 40.28297556 -6.67938637 26.89933121 -22.3359375 18.87109375 C-22.95927979 18.54915039 -23.58262207 18.22720703 -24.22485352 17.89550781 C-34.56661634 12.91374874 -44.97126101 11.73755608 -56.3359375 11.87109375 C-57.56812012 11.87979492 -58.80030273 11.88849609 -60.06982422 11.89746094 C-68.56033298 12.03460407 -76.3437634 12.59040379 -84.4609375 15.24609375 Z " fill="#3B3E40" transform="translate(160.4609375,63.75390625)"/>
<path d="M0 0 C0.33 0 0.66 0 1 0 C1.17015625 1.05058594 1.3403125 2.10117188 1.515625 3.18359375 C3.35084623 14.02315163 5.2875748 24.45270951 14 32 C28.46870847 41.94852708 43.07026327 44.38796477 60.375 44.3125 C61.69121338 44.30831055 63.00742676 44.30412109 64.36352539 44.29980469 C81.87670165 44.14563729 110.16616937 43.32993154 123.6875 30.4375 C124.8321875 29.2309375 124.8321875 29.2309375 126 28 C128.99425631 26.27989531 131.76220623 25.07279401 135.0625 24.0625 C138.32066471 22.88401489 140.41697962 21.27913563 143 19 C141.70775933 22.98440872 140.41040443 24.63628473 137 27 C137.66386719 27.23074219 138.32773438 27.46148437 139.01171875 27.69921875 C145.8433656 30.22244014 149.89070272 32.83605409 154 39 C154.79057216 44.37589066 154.97758814 48.64223869 151.75 53.125 C149.35242604 54.75970952 147.85025556 55.68330494 145 56 C144.67 53.69 144.34 51.38 144 49 C141.21366246 50.39316877 141.06507306 52.15980516 140 55 C139 56 139 56 135.5 56.125 C132 56 132 56 131 55 C131.08937803 53.47480724 131.24537146 51.95318071 131.4375 50.4375 C131.53933594 49.61121094 131.64117187 48.78492188 131.74609375 47.93359375 C131.82988281 47.29550781 131.91367188 46.65742188 132 46 C130.68 46 129.36 46 128 46 C127.67 47.98 127.34 49.96 127 52 C124.5625 51.625 124.5625 51.625 122 51 C120.85185003 48.70370006 120.69230191 46.92301914 120.4375 44.375 C120.35371094 43.55773437 120.26992187 42.74046875 120.18359375 41.8984375 C120.12300781 41.27195313 120.06242188 40.64546875 120 40 C119.01 40.66 118.02 41.32 117 42 C116.01 42 115.02 42 114 42 C112.47871012 42.30859595 110.96483192 42.65453166 109.45703125 43.0234375 C78.67662798 50.40026289 43.52601358 54.95242166 14.6875 38.6875 C13.800625 38.130625 12.91375 37.57375 12 37 C10.9171875 37.928125 10.9171875 37.928125 9.8125 38.875 C5.33237818 42.25998093 1.65288179 43.69218961 -4 43 C-8.08154062 40.80224736 -10.11192155 39.15377259 -12 35 C-13.2375 33.948125 -13.2375 33.948125 -14.5 32.875 C-17.98139109 28.87140024 -18.42361716 25.17165427 -19 20 C-19.08378906 19.26910156 -19.16757812 18.53820312 -19.25390625 17.78515625 C-19.55899968 12.65761826 -18.31583078 9.839383 -15 6 C-10.34824377 2.0882959 -6.85140623 1.49588188 -1 1 C-0.67 0.67 -0.34 0.34 0 0 Z " fill="#3A3D3E" transform="translate(27,150)"/>
<path d="M0 0 C9.23179903 3.36343251 16.35011306 9.17662429 21.06640625 17.84765625 C23.22805774 23.60358317 22.77367513 28.98718122 21.125 34.8125 C17.32074905 39.76955427 13.20618243 42.98193997 6.93359375 44.015625 C-1.38271553 44.29054432 -8.5998625 42.96559946 -15.19140625 37.69921875 C-22.0302074 31.21306296 -25.99629276 24.65905091 -26.25 15.125 C-26.19636434 10.08995231 -25.39696717 7.33346362 -21.9375 3.5 C-14.94533815 -2.65976163 -8.72607711 -2.55589613 0 0 Z " fill="#404041" transform="translate(140.9375,112.5)"/>
<path d="M0 0 C4.01970948 2.29471604 6.48487954 4.94278632 7.75 9.4375 C9.0455296 18.66660609 7.30366453 26.35318598 2.75 34.4375 C0.25 37.4375 0.25 37.4375 -2.25 39.4375 C-3.03375 40.13875 -3.8175 40.84 -4.625 41.5625 C-11.20402692 46.26180494 -17.22444822 47.63672038 -25.25 46.4375 C-29.99484486 44.72935585 -33.21208991 42.10954591 -35.75 37.75 C-38.10615715 32.11846743 -38.33446368 26.69089105 -36.40234375 20.89453125 C-31.81531048 10.86525513 -25.20044275 4.00968461 -15.140625 -0.52734375 C-9.60439275 -2.50991341 -5.46480648 -2.30044243 0 0 Z " fill="#3F4142" transform="translate(78.25,118.5625)"/>
<path d="M0 0 C4.00965776 2.33222295 7.19132326 4.55835514 8.75390625 9.05078125 C9.48233536 14.53055478 9.80803936 18.58670749 6.50390625 23.17578125 C4.10633229 24.81049077 2.60416181 25.73408619 -0.24609375 26.05078125 C-0.57609375 23.74078125 -0.90609375 21.43078125 -1.24609375 19.05078125 C-4.03243129 20.44395002 -4.18102069 22.21058641 -5.24609375 25.05078125 C-6.24609375 26.05078125 -6.24609375 26.05078125 -9.74609375 26.17578125 C-13.24609375 26.05078125 -13.24609375 26.05078125 -14.24609375 25.05078125 C-14.15671572 23.52558849 -14.00072229 22.00396196 -13.80859375 20.48828125 C-13.70675781 19.66199219 -13.60492188 18.83570313 -13.5 17.984375 C-13.41621094 17.34628906 -13.33242187 16.70820313 -13.24609375 16.05078125 C-14.56609375 16.05078125 -15.88609375 16.05078125 -17.24609375 16.05078125 C-17.57609375 18.03078125 -17.90609375 20.01078125 -18.24609375 22.05078125 C-20.68359375 21.67578125 -20.68359375 21.67578125 -23.24609375 21.05078125 C-25.12986857 17.28323161 -24.88336166 13.14400204 -24.24609375 9.05078125 C-22.03910748 4.79445059 -19.02251968 2.50491717 -14.93359375 0.11328125 C-9.70196628 -1.39413684 -5.14360712 -2.1737331 0 0 Z " fill="#696D70" transform="translate(172.24609375,179.94921875)"/>
<path d="M0 0 C10.15068493 3.38356164 10.15068493 3.38356164 13 7 C13.8353125 8.0209375 13.8353125 8.0209375 14.6875 9.0625 C17.40568021 13.07505174 17.57859316 17.31255688 17 22 C15.26819953 27.90135828 11.98628566 31.30424088 7.09765625 34.87109375 C5 36 5 36 0 37 C0 24.79 0 12.58 0 0 Z " fill="#606569" transform="translate(111,34)"/>
<path d="M0 0 C0.07476562 0.81082031 0.14953125 1.62164062 0.2265625 2.45703125 C1.10601526 9.86340303 2.78693779 15.37505152 6.66015625 21.7578125 C8 24 8 24 9 27 C9.66 27 10.32 27 11 27 C10.69611836 29.93752254 10.19330344 30.84080893 7.875 32.75 C4.34118181 34.28644269 1.81926881 34.353636 -2 34 C-2.99 33.34 -3.98 32.68 -5 32 C-5 31.01 -5 30.02 -5 29 C-3.68 28.34 -2.36 27.68 -1 27 C-1 26.34 -1 25.68 -1 25 C-2.258125 25.226875 -3.51625 25.45375 -4.8125 25.6875 C-8.69360814 26.14855363 -8.69360814 26.14855363 -11.0625 25 C-12.58938827 21.74263835 -11.92373199 19.38701731 -11 16 C-8.9375 14.5625 -8.9375 14.5625 -7 14 C-7 13.01 -7 12.02 -7 11 C-9.31 11.66 -11.62 12.32 -14 13 C-14.3735461 9.73147163 -14.14191172 8.23841169 -12.4375 5.375 C-8.83660898 1.86643952 -5.0619831 0 0 0 Z " fill="#636668" transform="translate(25,155)"/>
<path d="M0 0 C0.66 0.66 1.32 1.32 2 2 C1.8782854 7.4771571 -0.27496643 9.27496643 -4 13 C-3.87165745 15.31016597 -3.63394255 16.36605745 -2 18 C0.41482413 18.50059916 0.41482413 18.50059916 3 18 C4.8624438 15.59141286 4.8624438 15.59141286 6 13 C7.32 13.33 8.64 13.66 10 14 C9.79290782 17.72765925 9.19733599 18.82145791 6.375 21.375 C2.28441835 23.34453931 0.35302226 23.0479498 -4 22 C-4.70125 21.7525 -5.4025 21.505 -6.125 21.25 C-8.18892386 20.77560352 -8.18892386 20.77560352 -10.375 22.4375 C-13.62316571 24.37093197 -15.2777319 24.62037802 -19 24 C-21.875 21.6875 -21.875 21.6875 -24 19 C-24 18.01 -24 17.02 -24 16 C-22.68 16.33 -21.36 16.66 -20 17 C-20 17.66 -20 18.32 -20 19 C-16.58343976 19.16677282 -16.58343976 19.16677282 -13 19 C-12.34 18.34 -11.68 17.68 -11 17 C-11 16.01 -11 15.02 -11 14 C-12.97321053 12.6273318 -14.97543152 11.29572383 -17 10 C-19 7 -19 7 -18.625 4.3125 C-18.41875 3.549375 -18.2125 2.78625 -18 2 C-12.07943875 -0.10508844 -6.27248673 -0.7073451 0 0 Z " fill="#434343" transform="translate(111,143)"/>
<path d="M0 0 C0.495 0.99 0.495 0.99 1 2 C-2.75 6.875 -2.75 6.875 -5 8 C-3.68 8.66 -2.36 9.32 -1 10 C-1.71285156 10.07476562 -2.42570312 10.14953125 -3.16015625 10.2265625 C-10.2156353 11.19514778 -14.13916651 12.83615352 -19 18 C-19.97871628 18.9587933 -20.95784006 19.91717092 -21.9375 20.875 C-22.618125 21.57625 -23.29875 22.2775 -24 23 C-24.66 22.67 -25.32 22.34 -26 22 C-28.01827187 22.51658149 -30.01546324 23.11605076 -32 23.75 C-40.55099965 26.29766897 -49.18107312 27.72302773 -58 29 C-59.19882813 29.19078125 -60.39765625 29.3815625 -61.6328125 29.578125 C-67.88645915 30.33957938 -74.2122278 30.10403508 -80.5 30.0625 C-81.799375 30.05798828 -83.09875 30.05347656 -84.4375 30.04882812 C-87.62504825 30.0371092 -90.81249955 30.02070219 -94 30 C-94 29.67 -94 29.34 -94 29 C-88.39 29 -82.78 29 -77 29 C-77 28.34 -77 27.68 -77 27 C-80.63 27 -84.26 27 -88 27 C-88 26.67 -88 26.34 -88 26 C-87.44352783 25.98541748 -86.88705566 25.97083496 -86.3137207 25.95581055 C-48.35722444 25.60428264 -48.35722444 25.60428264 -16 9 C-12.98012638 7.26517898 -10.20976978 6.06293093 -6.875 5.0625 C-3.71384582 3.89424737 -2.18567965 2.52193805 0 0 Z " fill="#424445" transform="translate(169,169)"/>
<path d="M0 0 C1.3814955 0.01510452 2.76300734 0.02878253 4.14453125 0.04101562 C7.47178866 0.07591693 10.79816761 0.12494144 14.125 0.1875 C14.62 2.1675 14.62 2.1675 15.125 4.1875 C14.28952637 4.20208252 13.45405273 4.21666504 12.59326172 4.23168945 C9.42071833 4.29363438 6.24874338 4.36793391 3.07666016 4.44995117 C1.05781767 4.49860656 -0.96133777 4.53368343 -2.98046875 4.56835938 C-13.39100436 4.85041822 -23.10848799 6.19442711 -33 9.5625 C-33.94875 9.76875 -34.8975 9.975 -35.875 10.1875 C-38.0546875 8.7265625 -38.0546875 8.7265625 -39.875 7.1875 C-26.85887366 1.27925832 -14.19952328 -0.27172787 0 0 Z " fill="#3F4041" transform="translate(104.875,71.8125)"/>
<path d="M0 0 C7.45887052 1.62369971 11.70937712 4.66622337 16 11 C17.76199529 16.28598588 17.71504789 21.04112357 15.5 26.125 C12.535323 31.47407914 7.85261779 35.16798648 2 36.875 C1.34 36.91625 0.68 36.9575 0 37 C0 35.68 0 34.36 0 33 C0.53109375 32.79246094 1.0621875 32.58492187 1.609375 32.37109375 C6.11816913 30.40466711 9.25569845 28.58194607 11.4375 24.0625 C12.56439051 19.93056812 12.19123233 16.07927814 11 12 C7.98150471 7.94659204 4.58425778 6.02560228 0 4 C0 2.68 0 1.36 0 0 Z " fill="#3B3F42" transform="translate(111,34)"/>
<path d="M0 0 C1.04285156 0.00386719 2.08570313 0.00773438 3.16015625 0.01171875 C5.9375 0.3125 5.9375 0.3125 8.9375 2.3125 C8.8125 4.625 8.8125 4.625 7.9375 7.3125 C3.25789087 10.62246743 -0.54124606 10.83833371 -6.0625 10.3125 C-9.0625 8.8125 -9.0625 8.8125 -11.0625 7.3125 C-10.70508338 4.72122954 -10.29625731 3.53914058 -8.39453125 1.6953125 C-5.42504114 -0.06549068 -3.43246791 -0.05529378 0 0 Z " fill="#EDAEAE" transform="translate(58.0625,150.6875)"/>
<path d="M0 0 C1.051875 -0.00515625 2.10375 -0.0103125 3.1875 -0.015625 C6 0.25 6 0.25 9 2.25 C8.75 4.625 8.75 4.625 8 7.25 C4.86333637 9.36995197 2.16292219 9.52027441 -1.5625 9.5 C-2.98755859 9.50773438 -2.98755859 9.50773438 -4.44140625 9.515625 C-7 9.25 -7 9.25 -10 7.25 C-9.6875 4.875 -9.6875 4.875 -9 2.25 C-5.53767506 -0.05821663 -4.08201684 -0.02000989 0 0 Z " fill="#F2B4AF" transform="translate(149,141.75)"/>
<path d="M0 0 C1.67365533 4.09939628 0.22913854 7.74680639 -0.875 11.8125 C-2.94739232 19.91119106 -3.75687969 27.64881725 -4 36 C-4.33 36 -4.66 36 -5 36 C-5.33 34.35 -5.66 32.7 -6 31 C-6.33 31.33 -6.66 31.66 -7 32 C-8.66617115 32.04063832 -10.33388095 32.042721 -12 32 C-10.68 31.67 -9.36 31.34 -8 31 C-7.96261719 29.90042969 -7.92523437 28.80085938 -7.88671875 27.66796875 C-7.13633538 9.51485883 -7.13633538 9.51485883 -4 3 C-1.89453125 1.2109375 -1.89453125 1.2109375 0 0 Z " fill="#454748" transform="translate(33,120)"/>
<path d="M0 0 C2.875 1.5625 2.875 1.5625 5 4 C5.8125 7.75 5.8125 7.75 6 11 C4.68 11 3.36 11 2 11 C1.34 9.02 0.68 7.04 0 5 C-2.31 5 -4.62 5 -7 5 C-7.99 7.64 -8.98 10.28 -10 13 C-10.99 12.67 -11.98 12.34 -13 12 C-13.35671933 8.16526716 -13.29771416 6.44657125 -11.125 3.1875 C-7.57218626 -0.46980826 -5.03088285 -0.426346 0 0 Z " fill="#E4E4E5" transform="translate(137,127)"/>
<path d="M0 0 C4.32818451 0.77289009 5.73745486 2.29369557 8.5 5.625 C8.83 5.955 9.16 6.285 9.5 6.625 C9.54063832 8.29117115 9.542721 9.95888095 9.5 11.625 C8.18 11.625 6.86 11.625 5.5 11.625 C5.0359375 10.1709375 5.0359375 10.1709375 4.5625 8.6875 C3.80476658 5.78434208 3.80476658 5.78434208 2.5 4.625 C0.04190002 4.3749227 0.04190002 4.3749227 -2.5 4.625 C-5.0654594 7.1904594 -5.04046087 9.10186668 -5.5 12.625 C-6.82 12.625 -8.14 12.625 -9.5 12.625 C-9.25554295 8.46923007 -8.84064564 6.09589251 -6.375 2.6875 C-3.5 0.625 -3.5 0.625 0 0 Z " fill="#EBEBEB" transform="translate(69.5,132.375)"/>
<path d="M0 0 C3.21274829 3.80242994 5.14993856 8.15486922 7.25 12.625 C7.62640625 13.40101562 8.0028125 14.17703125 8.390625 14.9765625 C8.74125 15.7190625 9.091875 16.4615625 9.453125 17.2265625 C9.77442383 17.90283691 10.09572266 18.57911133 10.42675781 19.27587891 C11 21 11 21 10 23 C8.1953125 22.921875 8.1953125 22.921875 6 22 C4.7549909 19.72443312 3.79382445 17.65158347 2.875 15.25 C2.49794922 14.31800781 2.49794922 14.31800781 2.11328125 13.3671875 C1.39465176 11.58378238 0.69689304 9.79201067 0 8 C-0.43054688 7.08734375 -0.86109375 6.1746875 -1.3046875 5.234375 C-1.53414062 4.49703125 -1.76359375 3.7596875 -2 3 C-1.34 2.01 -0.68 1.02 0 0 Z " fill="#484B4C" transform="translate(167,105)"/>
<path d="M0 0 C5.75 1.875 5.75 1.875 8 3 C14.08516056 3.23333287 14.08516056 3.23333287 20 2 C20 2.99 20 3.98 20 5 C20.66 5.66 21.32 6.32 22 7 C18.01823628 8.99088186 13.32773701 8.52933342 9 8 C5.96472109 6.75611196 3.38446244 5.26332665 1 3 C0.67 2.01 0.34 1.02 0 0 Z " fill="#4D4C4D" transform="translate(44,157)"/>
<path d="M0 0 C7.59 0 15.18 0 23 0 C22.67 1.32 22.34 2.64 22 4 C12.76 4 3.52 4 -6 4 C-6 3.67 -6 3.34 -6 3 C-0.39 3 5.22 3 11 3 C11 2.34 11 1.68 11 1 C7.37 1 3.74 1 0 1 C0 0.67 0 0.34 0 0 Z " fill="#505556" transform="translate(81,195)"/>
</svg>