<?xml version="1.0" encoding="UTF-8"?>
<svg version="1.1" xmlns="http://www.w3.org/2000/svg" width="661" height="377">
<path d="M0 0 C5.96670423 4.513606 9.22401843 10.59030055 10.390625 17.92578125 C11.08604415 32.37153358 5.96751749 46.76730025 -0.125 59.68359375 C0.45991211 59.67312012 1.04482422 59.66264648 1.64746094 59.65185547 C4.30659663 59.61019111 6.96566353 59.58423474 9.625 59.55859375 C10.54539062 59.54183594 11.46578125 59.52507812 12.4140625 59.5078125 C13.30351562 59.50136719 14.19296875 59.49492188 15.109375 59.48828125 C15.92631836 59.47780762 16.74326172 59.46733398 17.58496094 59.45654297 C20.09387518 59.70529459 21.70895625 60.42659246 23.875 61.68359375 C22.34791037 65.11954541 20.27572955 67.80271829 17.875 70.68359375 C21.44131614 71.61762893 23.34839378 71.89647712 26.8125 70.49609375 C28.91123313 69.25398639 30.99536355 67.98696623 33.06640625 66.69921875 C36.8319129 64.56541525 40.64881181 63.46558281 44.875 62.62109375 C45.67043213 62.45826904 46.46586426 62.29544434 47.28540039 62.12768555 C73.92329415 57.06571764 101.82806067 56.20961681 128.875 56.68359375 C130.09413086 56.70244629 130.09413086 56.70244629 131.33789062 56.72167969 C147.14732033 57.04152364 162.92244426 59.81561119 176.875 67.68359375 C177.205 68.67359375 177.535 69.66359375 177.875 70.68359375 C178.865 70.68359375 179.855 70.68359375 180.875 70.68359375 C182.4453125 72.546875 182.4453125 72.546875 184 74.99609375 C184.51820313 75.79660156 185.03640625 76.59710938 185.5703125 77.421875 C188.27072581 82.10313041 188.45746425 86.41714618 187.875 91.68359375 C186.18661401 97.87740105 183.93259001 102.59447842 178.875 106.68359375 C178.15957031 107.29847656 177.44414063 107.91335937 176.70703125 108.546875 C154.75257062 126.18351432 123.96147264 123.46226979 97.5 121.99609375 C96.77208252 121.95646515 96.04416504 121.91683655 95.29418945 121.87600708 C63.6470843 120.0696359 63.6470843 120.0696359 52.875 114.68359375 C53.07996094 115.54082031 53.28492188 116.39804688 53.49609375 117.28125 C53.76550781 118.42464844 54.03492188 119.56804687 54.3125 120.74609375 C54.57933594 121.87144531 54.84617187 122.99679688 55.12109375 124.15625 C60.92925648 151.33122901 56.82525286 185.89862452 42.59375 210.0859375 C40.26995216 213.59804105 37.87967634 216.73312549 34.875 219.68359375 C34.35421875 220.22628906 33.8334375 220.76898438 33.296875 221.328125 C28.73184592 225.71183283 23.97839973 227.28361876 17.875 228.68359375 C18.20113281 229.25207031 18.52726563 229.82054687 18.86328125 230.40625 C20.22801546 232.81768302 21.55151567 235.24932794 22.875 237.68359375 C23.473125 238.73546875 24.07125 239.78734375 24.6875 240.87109375 C27.1765977 248.86240741 26.94727674 258.02769159 23.85546875 265.8515625 C21.35948069 270.51538082 17.46796117 273.29525394 12.875 275.68359375 C5.75517098 277.10755955 -0.86118335 277.66965889 -7.125 273.68359375 C-7.455 272.69359375 -7.785 271.70359375 -8.125 270.68359375 C-10.13492204 269.98760064 -10.13492204 269.98760064 -12.5 269.68359375 C-16.04926966 269.12865908 -17.89830433 268.5789668 -20.125 265.68359375 C-20.93359375 263.7109375 -20.93359375 263.7109375 -21.5625 261.62109375 C-22.56474732 258.45421493 -22.56474732 258.45421493 -25.125 256.49609375 C-25.785 256.22796875 -26.445 255.95984375 -27.125 255.68359375 C-30.45307882 251.8800751 -30.61996356 248.18481306 -30.49609375 243.33203125 C-29.89710285 239.05712777 -28.16441972 235.45287841 -26.125 231.68359375 C-27.46691406 231.41095703 -27.46691406 231.41095703 -28.8359375 231.1328125 C-42.47417575 228.29757107 -53.85630166 224.208066 -66.125 217.68359375 C-67.28902344 217.06460205 -67.28902344 217.06460205 -68.4765625 216.43310547 C-70.86593507 215.15329292 -73.24705141 213.85949767 -75.625 212.55859375 C-76.71844727 211.96582642 -76.71844727 211.96582642 -77.83398438 211.36108398 C-82.93776226 208.52727318 -87.51686779 205.25717295 -92.125 201.68359375 C-93.14464844 200.93335938 -94.16429687 200.183125 -95.21484375 199.41015625 C-108.33529193 189.72730149 -108.33529193 189.72730149 -113.125 184.68359375 C-113.125 184.02359375 -113.125 183.36359375 -113.125 182.68359375 C-113.7025 182.41546875 -114.28 182.14734375 -114.875 181.87109375 C-117.1575868 180.66639516 -119.0987942 179.2756126 -121.125 177.68359375 C-121.35574219 178.22628906 -121.58648437 178.76898438 -121.82421875 179.328125 C-122.15035156 180.04355469 -122.47648437 180.75898438 -122.8125 181.49609375 C-123.12574219 182.20378906 -123.43898437 182.91148437 -123.76171875 183.640625 C-125.60722989 186.40624771 -127.0592094 187.35673277 -130.125 188.68359375 C-133.0740936 189.07952158 -135.96657888 189.05742573 -138.9375 188.99609375 C-139.70642578 188.99931641 -140.47535156 189.00253906 -141.26757812 189.00585938 C-153.50490476 188.89226394 -164.25114769 184.10237671 -173.125 175.68359375 C-176.57952664 170.50180379 -176.69197411 164.77331566 -176.125 158.68359375 C-173.87907071 151.44671049 -169.52562629 146.01236035 -163.3125 141.74609375 C-156.58967727 138.2290081 -148.47959143 139.13938508 -141.125 139.68359375 C-140.135 140.01359375 -139.145 140.34359375 -138.125 140.68359375 C-138.455 140.02359375 -138.785 139.36359375 -139.125 138.68359375 C-140.15746938 119.25876286 -134.71141894 107.51851052 -122.125 92.68359375 C-121.61066406 92.04679687 -121.09632813 91.41 -120.56640625 90.75390625 C-117.44012877 86.94137273 -114.03049376 83.70408462 -110.2734375 80.515625 C-107.217219 77.90950413 -104.26519672 75.1901721 -101.30078125 72.48046875 C-99.01888982 70.59596237 -96.68453024 69.1637562 -94.125 67.68359375 C-92.57671055 66.67283336 -91.03480789 65.65221039 -89.5 64.62109375 C-88.74460937 64.11449219 -87.98921875 63.60789062 -87.2109375 63.0859375 C-86.52257812 62.62316406 -85.83421875 62.16039063 -85.125 61.68359375 C-84.135 61.02359375 -83.145 60.36359375 -82.125 59.68359375 C-84.02572266 59.71839844 -84.02572266 59.71839844 -85.96484375 59.75390625 C-87.66405655 59.77268208 -89.3632758 59.79088032 -91.0625 59.80859375 C-91.89330078 59.82535156 -92.72410156 59.84210938 -93.58007812 59.859375 C-100.5076542 59.9132861 -107.24153221 59.60590561 -113.125 55.68359375 C-113.125 55.02359375 -113.125 54.36359375 -113.125 53.68359375 C-113.74375 53.45671875 -114.3625 53.22984375 -115 52.99609375 C-117.88558871 51.21381837 -118.27172476 49.95448217 -119.125 46.68359375 C-119.6859122 39.61610002 -118.27262412 35.83344246 -114.25 29.93359375 C-111.95542351 27.50404217 -110.19607277 26.84562128 -107.125 25.68359375 C-106.63 24.19859375 -106.63 24.19859375 -106.125 22.68359375 C-103.7223588 21.25515781 -101.388019 20.0104849 -98.875 18.80859375 C-98.15135254 18.45563232 -97.42770508 18.1026709 -96.68212891 17.73901367 C-90.29823362 14.67196528 -83.79390548 12.06709485 -77.125 9.68359375 C-76.04089844 9.2865625 -74.95679688 8.88953125 -73.83984375 8.48046875 C-66.35474174 5.76486343 -58.81860108 3.22034384 -51.25317383 0.73852539 C-47.48715718 -0.5020103 -43.8069319 -1.84238959 -40.125 -3.31640625 C-25.80052487 -7.97025957 -13.02135139 -8.06653569 0 0 Z " fill="#4D4F4F" transform="translate(378.125,40.31640625)"/>
<path d="M0 0 C1.0191448 21.74175583 -2.35248644 41.43766143 -12 61 C-12.35707031 61.92425781 -12.71414063 62.84851563 -13.08203125 63.80078125 C-14 66 -14 66 -16 68 C-17.03101947 70.31979381 -18.02936517 72.65429915 -19 75 C-19.5878125 75.99 -19.5878125 75.99 -20.1875 77 C-22.39769506 82.44048014 -20.69938917 89.317463 -20 95 C-23.3 95 -26.6 95 -30 95 C-31.42258812 91.17679443 -32.24042276 88.08718695 -32 84 C-33.98 84 -35.96 84 -38 84 C-37.7834375 85.48886719 -37.7834375 85.48886719 -37.5625 87.0078125 C-36.43737126 95.12703913 -35.82716053 102.80277102 -36.22265625 111.01171875 C-35.96077747 114.52640766 -35.1628429 116.23717383 -33 119 C-29.61773221 121.23202288 -26.47946467 121.64600772 -22.48828125 121.59375 C-18.31878816 120.59883171 -15.71002627 117.6986678 -12.5625 114.91015625 C-8.62216677 111.97292614 -4.7643073 111.56822014 0 111 C0.99 110.67 1.98 110.34 3 110 C3 109.01 3 108.02 3 107 C2.18015625 107.03480469 1.3603125 107.06960937 0.515625 107.10546875 C-0.56203125 107.13253906 -1.6396875 107.15960938 -2.75 107.1875 C-4.35101563 107.23970703 -4.35101563 107.23970703 -5.984375 107.29296875 C-9.34489034 106.96649381 -10.6928617 106.44024243 -13 104 C-13.25 100.3125 -13.25 100.3125 -13 97 C-12.18015625 96.82984375 -11.3603125 96.6596875 -10.515625 96.484375 C-8.89914062 96.12085938 -8.89914062 96.12085938 -7.25 95.75 C-6.18265625 95.51796875 -5.1153125 95.2859375 -4.015625 95.046875 C-0.00144732 93.65335218 2.00172065 91.71232638 4.125 88.0703125 C4.41375 87.42835938 4.7025 86.78640625 5 86.125 C6.73271333 82.48220897 8.57622036 79.23170619 11 76 C11.66 76 12.32 76 13 76 C13.268125 75.4225 13.53625 74.845 13.8125 74.25 C15.0388622 71.92636635 16.24843434 69.96175354 18 68 C18.99 68 19.98 68 21 68 C21.12568359 67.12601563 21.12568359 67.12601563 21.25390625 66.234375 C22.21726696 63.34933663 23.62979704 62.20299274 25.9375 60.25 C27.00291016 59.32960938 27.00291016 59.32960938 28.08984375 58.390625 C30 57 30 57 32 57 C32.33 56.01 32.66 55.02 33 54 C36.4647392 51.0682976 40.26975281 48.5814226 44 46 C45.04027344 45.25234375 46.08054687 44.5046875 47.15234375 43.734375 C48.17457031 43.01765625 49.19679688 42.3009375 50.25 41.5625 C51.64992188 40.57443359 51.64992188 40.57443359 53.078125 39.56640625 C56.4258349 37.7717115 59.23963195 37.3320723 63 37 C78.45704543 55.05977817 79.25244527 78.78706507 77.76171875 101.359375 C75.82359597 120.23160086 70.68327922 143.04784382 56.5 156.625 C45.5175837 165.36336069 35.43856917 168.17091808 21.75 168.1875 C20.28914157 168.21112057 18.82828546 168.23488481 17.36743164 168.25878906 C1.20656621 168.40024528 -13.09076493 165.17449996 -27.5 157.8125 C-28.71724857 157.19231692 -29.93470495 156.57254157 -31.15234375 155.953125 C-31.77995605 155.63279297 -32.40756836 155.31246094 -33.05419922 154.98242188 C-35.02886777 153.98542485 -37.01402892 153.0131251 -39.00390625 152.046875 C-50.16372912 146.60738518 -61.22678326 140.72765975 -71 133 C-71 132.34 -71 131.68 -71 131 C-71.556875 130.938125 -72.11375 130.87625 -72.6875 130.8125 C-75.95280493 129.6652307 -77.72568726 127.4914885 -80 125 C-80.59941406 124.41605469 -81.19882812 123.83210938 -81.81640625 123.23046875 C-87.94191765 116.96110972 -91.35772587 109.89184947 -95.02539062 102.05322266 C-96.26590169 99.43982134 -97.57888165 96.86712186 -98.89794922 94.29272461 C-104.59738743 83.12054767 -108.16853128 74.61431092 -104.5 62.125 C-100.46846553 51.09132672 -93.02667862 42.37801472 -85 34 C-84.27554687 33.20078125 -83.55109375 32.4015625 -82.8046875 31.578125 C-73.72932533 21.91824797 -62.56479739 14.39107224 -51 8 C-50.21496094 7.5565625 -49.42992187 7.113125 -48.62109375 6.65625 C-34.79945429 -0.66254299 -15.36223977 -5.12074659 0 0 Z " fill="#F9F9F9" transform="translate(351,99)"/>
<path d="M0 0 C0.86398407 -0.00608276 1.72796814 -0.01216553 2.61813354 -0.01843262 C22.97241088 -0.11245783 48.30129033 0.82450676 65.25 13.4375 C66.19875 13.953125 67.1475 14.46875 68.125 15 C71.13881622 18.45702449 70.89585161 21.21917655 70.65234375 25.69140625 C69.69048496 32.25632593 66.79124384 35.28704954 61.6875 39.125 C36.18545929 57.1441485 -4.34701491 53.17290822 -33.6875 49.6875 C-34.69586914 49.57029099 -34.69586914 49.57029099 -35.72460938 49.45071411 C-54.13990789 47.23941261 -54.13990789 47.23941261 -61.75 43.4375 C-63.8495896 40.72472564 -65.24578955 38.23707072 -66.6015625 35.09375 C-67.71423311 32.52022615 -69.06691101 30.65567509 -70.75 28.4375 C-70.75 27.7775 -70.75 27.1175 -70.75 26.4375 C-71.74 26.1075 -72.73 25.7775 -73.75 25.4375 C-75.609375 23.73046875 -75.609375 23.73046875 -77.5 21.625 C-78.13421875 20.93792969 -78.7684375 20.25085938 -79.421875 19.54296875 C-80.75 17.4375 -80.75 17.4375 -80.671875 15.33203125 C-78.73264944 11.34675839 -74.67767205 10.05295513 -70.75 8.4375 C-48.29077019 1.07691208 -23.45230158 0.0620327 0 0 Z " fill="#F6F5F4" transform="translate(487.75,103.5625)"/>
<path d="M0 0 C6.18304076 0.83317571 11.91766106 1.8657698 17.75 4.125 C25.09510536 6.76220538 32.31525487 6.35107973 40 6 C39.34 7.98 38.68 9.96 38 12 C38.4846875 12.42410156 38.969375 12.84820312 39.46875 13.28515625 C40.88467935 14.52409443 42.29999698 15.76373192 43.71484375 17.00390625 C45.16080408 18.26695878 46.61083094 19.52538389 48.06640625 20.77734375 C60.55720566 31.55707475 60.55720566 31.55707475 63 37 C61.906875 37.350625 60.81375 37.70125 59.6875 38.0625 C49.16536382 42.02682596 37.78984534 49.84445709 30 57.9375 C28 60 28 60 25 61 C24.67 61.99 24.34 62.98 24 64 C23.01 64.495 23.01 64.495 22 65 C21.505 66.485 21.505 66.485 21 68 C20.01 68.33 19.02 68.66 18 69 C16.66336397 70.52906046 16.66336397 70.52906046 15.5 72.375 C13.8449277 74.86821788 12.13073704 76.90335475 10 79 C7.63691564 82.2778267 5.73251057 85.524251 4.0625 89.1875 C2.25591092 92.81452176 0.93236146 94.54673598 -3 96 C-6.32750187 96.511137 -9.63977525 96.81078346 -13 97 C-12.73606499 100.43230448 -12.73606499 100.43230448 -12 104 C-8.59568053 106.26954631 -6.83475798 106.36549949 -2.8125 106.625 C-1.18248047 106.73714844 -1.18248047 106.73714844 0.48046875 106.8515625 C1.72763672 106.92503906 1.72763672 106.92503906 3 107 C3 107.99 3 108.98 3 110 C-0.10436171 112.58696809 -2.92924508 113.19353974 -6.8125 113.75 C-11.02821898 114.46093486 -13.04209989 115.61668149 -16.0625 118.625 C-18.90900409 121.37949587 -20.62305165 122.53383587 -24.625 122.6875 C-28.94301754 122.32207192 -31.7170928 120.88255267 -35 118 C-36.74477236 115.15303224 -37.23841407 113.09599933 -37.16015625 109.77734375 C-37.14919922 108.99166016 -37.13824219 108.20597656 -37.12695312 107.39648438 C-37.10568359 106.58501953 -37.08441406 105.77355469 -37.0625 104.9375 C-37.02801268 103.32170509 -36.99788497 101.70580974 -36.97265625 100.08984375 C-36.94570679 99.02044556 -36.94570679 99.02044556 -36.91821289 97.92944336 C-36.92053899 95.77877233 -36.92053899 95.77877233 -38 93 C-38.06740865 91.43881572 -38.08514456 89.8749748 -38.0625 88.3125 C-38.05347656 87.50425781 -38.04445313 86.69601563 -38.03515625 85.86328125 C-38.02355469 85.24839844 -38.01195312 84.63351563 -38 84 C-36.02 84 -34.04 84 -32 84 C-31.34 87.63 -30.68 91.26 -30 95 C-26.7 95 -23.4 95 -20 95 C-20.33 93.659375 -20.66 92.31875 -21 90.9375 C-22.70824166 83.02759841 -22.26427066 78.77266516 -18 72 C-17.62875 71.071875 -17.2575 70.14375 -16.875 69.1875 C-16 67 -16 67 -14 65 C-12.463353 61.75223953 -11.26965257 58.35956178 -10 55 C-9.39091797 53.48019531 -9.39091797 53.48019531 -8.76953125 51.9296875 C-2.2806435 35.03861355 -0.36121757 17.98863495 0 0 Z " fill="#C7C7C7" transform="translate(351,99)"/>
<path d="M0 0 C5.96670423 4.513606 9.22401843 10.59030055 10.390625 17.92578125 C11.08604415 32.37153358 5.96751749 46.76730025 -0.125 59.68359375 C0.45991211 59.67312012 1.04482422 59.66264648 1.64746094 59.65185547 C4.30659663 59.61019111 6.96566353 59.58423474 9.625 59.55859375 C10.54539062 59.54183594 11.46578125 59.52507812 12.4140625 59.5078125 C13.30351562 59.50136719 14.19296875 59.49492188 15.109375 59.48828125 C15.92631836 59.47780762 16.74326172 59.46733398 17.58496094 59.45654297 C20.09387518 59.70529459 21.70895625 60.42659246 23.875 61.68359375 C22.34791037 65.11954541 20.27572955 67.80271829 17.875 70.68359375 C21.44131614 71.61762893 23.34839378 71.89647712 26.8125 70.49609375 C28.91123313 69.25398639 30.99536355 67.98696623 33.06640625 66.69921875 C36.8319129 64.56541525 40.64881181 63.46558281 44.875 62.62109375 C45.67043213 62.45826904 46.46586426 62.29544434 47.28540039 62.12768555 C73.92329415 57.06571764 101.82806067 56.20961681 128.875 56.68359375 C130.09413086 56.70244629 130.09413086 56.70244629 131.33789062 56.72167969 C147.14732033 57.04152364 162.92244426 59.81561119 176.875 67.68359375 C177.205 68.67359375 177.535 69.66359375 177.875 70.68359375 C178.865 70.68359375 179.855 70.68359375 180.875 70.68359375 C182.4453125 72.546875 182.4453125 72.546875 184 74.99609375 C184.51820313 75.79660156 185.03640625 76.59710938 185.5703125 77.421875 C188.27072581 82.10313041 188.45746425 86.41714618 187.875 91.68359375 C186.18661401 97.87740105 183.93259001 102.59447842 178.875 106.68359375 C178.15957031 107.29847656 177.44414063 107.91335937 176.70703125 108.546875 C154.75257062 126.18351432 123.96147264 123.46226979 97.5 121.99609375 C96.77208252 121.95646515 96.04416504 121.91683655 95.29418945 121.87600708 C63.6470843 120.0696359 63.6470843 120.0696359 52.875 114.68359375 C53.0915625 115.4828125 53.308125 116.28203125 53.53125 117.10546875 C55.38327162 124.41066515 57.33631193 132.14690625 55.875 139.68359375 C53.84765625 142.0234375 53.84765625 142.0234375 51.875 143.68359375 C51.71680786 142.70132813 51.71680786 142.70132813 51.55541992 141.69921875 C51.06625425 138.69256184 50.56447422 135.68813765 50.0625 132.68359375 C49.8140332 131.13865234 49.8140332 131.13865234 49.56054688 129.5625 C46.14034684 109.2994281 34.97849957 90.71658972 18.7578125 78.02734375 C17.14467838 76.89191888 15.51119786 75.78552292 13.875 74.68359375 C12.50705253 73.38579743 11.15610407 72.06718615 9.875 70.68359375 C10.875 68.68359375 11.875 66.68359375 12.875 64.68359375 C11.905625 64.82539062 10.93625 64.9671875 9.9375 65.11328125 C-1.14785887 66.43064344 -9.05433281 64.30378016 -19.125 59.68359375 C-18.63 58.19859375 -18.63 58.19859375 -18.125 56.68359375 C-14.165 57.01359375 -10.205 57.34359375 -6.125 57.68359375 C-5.71507812 56.45382813 -5.30515625 55.2240625 -4.8828125 53.95703125 C-3.79947917 50.70703125 -2.71614583 47.45703125 -1.6328125 44.20703125 C-1.375 43.42521484 -1.1171875 42.64339844 -0.8515625 41.83789062 C-0.25286215 40.0627119 0.39449081 38.30401881 1.0546875 36.55078125 C3.58501362 27.70668899 2.18963351 17.46680127 -0.125 8.68359375 C-1.115 8.35359375 -2.105 8.02359375 -3.125 7.68359375 C-3.125 7.02359375 -3.125 6.36359375 -3.125 5.68359375 C-3.929375 5.41546875 -4.73375 5.14734375 -5.5625 4.87109375 C-7.45612374 4.23988584 -9.34747931 3.59818503 -11.2109375 2.8828125 C-21.84900633 -1.0551393 -29.59197571 1.06944206 -40.125 4.68359375 C-42.12474315 5.35103049 -44.12473592 6.01771984 -46.125 6.68359375 C-47.10210937 7.01488281 -48.07921875 7.34617187 -49.0859375 7.6875 C-52.2887898 8.73727807 -55.51436988 9.67768403 -58.75 10.62109375 C-63.71533357 12.13022374 -68.14761829 14.03809809 -72.7265625 16.4609375 C-75.17215739 17.70763327 -77.63276231 18.7438505 -80.1875 19.74609375 C-81.01507813 20.0709375 -81.84265625 20.39578125 -82.6953125 20.73046875 C-83.49710937 21.045 -84.29890625 21.35953125 -85.125 21.68359375 C-94.20995102 25.29225025 -106.51972934 30.47305243 -111.125 39.68359375 C-111.62595023 42.55665603 -111.62595023 42.55665603 -111.125 45.68359375 C-108.66356432 48.61070645 -106.30375822 50.56442161 -103.125 52.68359375 C-104.775 52.68359375 -106.425 52.68359375 -108.125 52.68359375 C-108.125 54.33359375 -108.125 55.98359375 -108.125 57.68359375 C-109.775 57.02359375 -111.425 56.36359375 -113.125 55.68359375 C-113.125 55.02359375 -113.125 54.36359375 -113.125 53.68359375 C-113.74375 53.45671875 -114.3625 53.22984375 -115 52.99609375 C-117.88558871 51.21381837 -118.27172476 49.95448217 -119.125 46.68359375 C-119.6859122 39.61610002 -118.27262412 35.83344246 -114.25 29.93359375 C-111.95542351 27.50404217 -110.19607277 26.84562128 -107.125 25.68359375 C-106.795 24.69359375 -106.465 23.70359375 -106.125 22.68359375 C-103.7223588 21.25515781 -101.388019 20.0104849 -98.875 18.80859375 C-98.15135254 18.45563232 -97.42770508 18.1026709 -96.68212891 17.73901367 C-90.29823362 14.67196528 -83.79390548 12.06709485 -77.125 9.68359375 C-76.04089844 9.2865625 -74.95679688 8.88953125 -73.83984375 8.48046875 C-66.35474174 5.76486343 -58.81860108 3.22034384 -51.25317383 0.73852539 C-47.48715718 -0.5020103 -43.8069319 -1.84238959 -40.125 -3.31640625 C-25.80052487 -7.97025957 -13.02135139 -8.06653569 0 0 Z M29.875 76.68359375 C28.76165678 78.51178458 28.76165678 78.51178458 28.875 80.68359375 C30.43753132 83.14939541 30.43753132 83.14939541 32.6875 85.43359375 C33.41582031 86.2328125 34.14414062 87.03203125 34.89453125 87.85546875 C36.67072847 89.90968712 36.67072847 89.90968712 38.875 89.68359375 C40.00847795 91.95054965 41.13678325 94.21905949 42.25 96.49609375 C42.78625 97.54796875 43.3225 98.59984375 43.875 99.68359375 C44.555625 101.47796875 44.555625 101.47796875 45.25 103.30859375 C47.91037101 107.87047789 52.33119299 108.39123723 57.14257812 109.76904297 C63.35053935 111.29017214 69.59492544 112.19635687 75.9375 112.93359375 C76.63665527 113.01664764 77.33581055 113.09970154 78.05615234 113.18527222 C107.61189187 116.61051561 147.95123906 120.13628521 172.875 100.68359375 C176.787644 97.12664466 179.41543382 94.37591954 180.31640625 89.09765625 C180.59279403 83.75770437 180.59279403 83.75770437 178.80078125 78.84375 C164.91535354 65.65784006 139.16911681 63.62438415 120.93359375 63.4453125 C120.10045654 63.43560928 119.26731934 63.42590607 118.40893555 63.41590881 C115.71007403 63.39101947 113.01146489 63.37837414 110.3125 63.37109375 C109.3864798 63.36847534 108.46045959 63.36585693 107.50637817 63.36315918 C66.33502819 62.34619108 66.33502819 62.34619108 29.875 76.68359375 Z " fill="#515252" transform="translate(378.125,40.31640625)"/>
<path d="M0 0 C5.71436817 5.55563572 6.1436946 12.29541245 6.5 19.875 C6.37043806 31.62980183 1.65772596 42.36975457 -3 53 C-3.83660156 52.81824219 -4.67320312 52.63648438 -5.53515625 52.44921875 C-8.67679482 51.77079182 -11.81966172 51.09855556 -14.96386719 50.43212891 C-16.93739088 50.01328755 -18.9101161 49.59068941 -20.8828125 49.16796875 C-28.25196557 47.63209804 -35.48256028 46.45323441 -43 46 C-43 44.68 -43 43.36 -43 42 C-42.4016333 41.73896484 -41.8032666 41.47792969 -41.18676758 41.20898438 C-30.50238623 36.52193415 -20.07416939 31.90666187 -10.36328125 25.3984375 C-8 24 -8 24 -5 24 C-5 23.01 -5 22.02 -5 21 C-5.95777344 21.4846875 -6.91554688 21.969375 -7.90234375 22.46875 C-36.51441438 36.89830111 -36.51441438 36.89830111 -50 41 C-51.54271125 41.53868442 -53.08444818 42.0801707 -54.625 42.625 C-58.53337652 43.92779217 -62.44507231 44.79135665 -66.49609375 45.52734375 C-68.08124102 45.82656812 -69.65947242 46.16805536 -71.22265625 46.56640625 C-81.35658926 49.05208793 -95.03492049 50.40125047 -104.4296875 45.1328125 C-106.58534941 43.57773301 -107.91519717 42.4588864 -109 40 C-109.57477658 36.22289678 -109.24710653 34.44574906 -107.38671875 31.08984375 C-104.76934889 27.70139929 -101.98678254 25.61718412 -98.375 23.4375 C-97.75471924 23.05255371 -97.13443848 22.66760742 -96.49536133 22.27099609 C-89.42587709 17.9403548 -82.40802188 14.3312126 -74.4765625 11.87890625 C-70.33981052 10.41081604 -66.44139217 8.43102758 -62.50390625 6.5 C-58.92441152 4.96764105 -55.37691782 3.8692859 -51.64282227 2.79003906 C-46.37794684 1.2161696 -41.22963711 -0.71020865 -36.06054688 -2.5703125 C-35.21943359 -2.869375 -34.37832031 -3.1684375 -33.51171875 -3.4765625 C-32.76365967 -3.74549316 -32.01560059 -4.01442383 -31.24487305 -4.29150391 C-20.20383052 -7.77612657 -9.85693404 -5.96000663 0 0 Z " fill="#F7F7F6" transform="translate(375,46)"/>
<path d="M0 0 C1.2684375 0.86625 1.2684375 0.86625 2.5625 1.75 C4.86997987 5.36170762 4.83936228 8.85518448 4 13 C-1.10100044 20.17328187 -9.47079057 22.58439369 -17.76489258 24.12402344 C-35.36473552 26.83380624 -53.47108866 25.30479772 -70.98828125 22.796875 C-78.68003303 21.71580281 -86.41139578 21.1851247 -94.15698242 20.64697266 C-95.1544751 20.57526855 -96.15196777 20.50356445 -97.1796875 20.4296875 C-98.06382324 20.37022949 -98.94795898 20.31077148 -99.85888672 20.24951172 C-102 20 -102 20 -104 19 C-105.61067903 16.03635059 -106.93290957 13.2012713 -108 10 C-108.99 9.67 -109.98 9.34 -111 9 C-112.1875 6.9375 -112.1875 6.9375 -113 5 C-112.34 5 -111.68 5 -111 5 C-110.835 4.401875 -110.67 3.80375 -110.5 3.1875 C-108.1909237 -0.17990293 -104.79349381 -0.96100031 -101 -2 C-97.44826135 -2.5511564 -93.89845366 -2.78274202 -90.3125 -3 C-88.17424906 -3.1504096 -86.03623443 -3.30420705 -83.8984375 -3.4609375 C-82.77663086 -3.54311523 -81.65482422 -3.62529297 -80.49902344 -3.70996094 C-75.6945231 -4.10821285 -70.91196409 -4.66068176 -66.12255859 -5.20825195 C-14.76700482 -11.01611801 -14.76700482 -11.01611801 0 0 Z " fill="#F4B5B0" transform="translate(525,120)"/>
<path d="M0 0 C0.33 0 0.66 0 1 0 C1.65245114 27.31930022 0.54887265 62.26593242 -19.484375 83.51171875 C-20.23460937 84.24841797 -20.23460937 84.24841797 -21 85 C-21.52078125 85.54269531 -22.0415625 86.08539063 -22.578125 86.64453125 C-27.14315408 91.02823908 -31.89660027 92.60002501 -38 94 C-37.67386719 94.56847656 -37.34773438 95.13695312 -37.01171875 95.72265625 C-35.64698454 98.13408927 -34.32348433 100.56573419 -33 103 C-32.401875 104.051875 -31.80375 105.10375 -31.1875 106.1875 C-28.6984023 114.17881366 -28.92772326 123.34409784 -32.01953125 131.16796875 C-34.51551931 135.83178707 -38.40703883 138.61166019 -43 141 C-50.11982902 142.4239658 -56.73618335 142.98606514 -63 139 C-63.33 138.01 -63.66 137.02 -64 136 C-66.00992204 135.30400689 -66.00992204 135.30400689 -68.375 135 C-71.92426966 134.44506533 -73.77330433 133.89537305 -76 131 C-76.80859375 129.02734375 -76.80859375 129.02734375 -77.4375 126.9375 C-78.43974732 123.77062118 -78.43974732 123.77062118 -81 121.8125 C-81.66 121.544375 -82.32 121.27625 -83 121 C-86.35941496 117.16066862 -86.49818431 113.39391909 -86.3671875 108.49609375 C-85.80058376 104.64439385 -84.10623514 102.25509068 -82 99 C-81.22057495 96.14210815 -81 93.96545831 -81 91 C-79.98276855 91.00636475 -78.96553711 91.01272949 -77.91748047 91.01928711 C-74.073806 91.033927 -70.2315874 91.00196613 -66.38818359 90.95727539 C-64.73784393 90.94428943 -63.08735838 90.94325784 -61.43701172 90.95532227 C-46.46704904 91.05087522 -35.001203 87.93866959 -23.890625 77.13671875 C-17.14012571 69.50753877 -14.23752005 60.68257891 -11.57470703 51.03515625 C-11.0473742 49.16776182 -10.46196829 47.31702193 -9.87109375 45.46875 C-5.81940773 31.71394876 -5.68422622 17.24080597 -5 3 C-4.01 4.98 -4.01 4.98 -3 7 C-0.64046906 4.64046906 -0.50858587 3.22104383 0 0 Z " fill="#535454" transform="translate(434,175)"/>
<path d="M0 0 C5.96670423 4.513606 9.22401843 10.59030055 10.390625 17.92578125 C11.08604415 32.37153358 5.96751749 46.76730025 -0.125 59.68359375 C0.45991211 59.67312012 1.04482422 59.66264648 1.64746094 59.65185547 C4.30659663 59.61019111 6.96566353 59.58423474 9.625 59.55859375 C10.54539062 59.54183594 11.46578125 59.52507812 12.4140625 59.5078125 C13.30351562 59.50136719 14.19296875 59.49492188 15.109375 59.48828125 C15.92631836 59.47780762 16.74326172 59.46733398 17.58496094 59.45654297 C20.09387518 59.70529459 21.70895625 60.42659246 23.875 61.68359375 C22.34791037 65.11954541 20.27572955 67.80271829 17.875 70.68359375 C20.515 71.01359375 23.155 71.34359375 25.875 71.68359375 C25.215 73.33359375 24.555 74.98359375 23.875 76.68359375 C22.885 76.68359375 21.895 76.68359375 20.875 76.68359375 C20.215 77.34359375 19.555 78.00359375 18.875 78.68359375 C15.66296065 76.18534092 12.70006863 73.61329455 9.875 70.68359375 C10.875 68.68359375 11.875 66.68359375 12.875 64.68359375 C11.905625 64.82539062 10.93625 64.9671875 9.9375 65.11328125 C-1.14785887 66.43064344 -9.05433281 64.30378016 -19.125 59.68359375 C-18.63 58.19859375 -18.63 58.19859375 -18.125 56.68359375 C-14.165 57.01359375 -10.205 57.34359375 -6.125 57.68359375 C-5.71507812 56.45382813 -5.30515625 55.2240625 -4.8828125 53.95703125 C-3.79947917 50.70703125 -2.71614583 47.45703125 -1.6328125 44.20703125 C-1.375 43.42521484 -1.1171875 42.64339844 -0.8515625 41.83789062 C-0.25286215 40.0627119 0.39449081 38.30401881 1.0546875 36.55078125 C3.58501362 27.70668899 2.18963351 17.46680127 -0.125 8.68359375 C-1.115 8.35359375 -2.105 8.02359375 -3.125 7.68359375 C-3.125 7.02359375 -3.125 6.36359375 -3.125 5.68359375 C-3.929375 5.41546875 -4.73375 5.14734375 -5.5625 4.87109375 C-7.45612374 4.23988584 -9.34747931 3.59818503 -11.2109375 2.8828125 C-21.84900633 -1.0551393 -29.59197571 1.06944206 -40.125 4.68359375 C-42.12474315 5.35103049 -44.12473592 6.01771984 -46.125 6.68359375 C-47.10210937 7.01488281 -48.07921875 7.34617187 -49.0859375 7.6875 C-52.2887898 8.73727807 -55.51436988 9.67768403 -58.75 10.62109375 C-63.71533357 12.13022374 -68.14761829 14.03809809 -72.7265625 16.4609375 C-75.17215739 17.70763327 -77.63276231 18.7438505 -80.1875 19.74609375 C-81.01507813 20.0709375 -81.84265625 20.39578125 -82.6953125 20.73046875 C-83.49710937 21.045 -84.29890625 21.35953125 -85.125 21.68359375 C-94.20995102 25.29225025 -106.51972934 30.47305243 -111.125 39.68359375 C-111.62595023 42.55665603 -111.62595023 42.55665603 -111.125 45.68359375 C-108.66356432 48.61070645 -106.30375822 50.56442161 -103.125 52.68359375 C-104.775 52.68359375 -106.425 52.68359375 -108.125 52.68359375 C-108.125 54.33359375 -108.125 55.98359375 -108.125 57.68359375 C-109.775 57.02359375 -111.425 56.36359375 -113.125 55.68359375 C-113.125 55.02359375 -113.125 54.36359375 -113.125 53.68359375 C-113.74375 53.45671875 -114.3625 53.22984375 -115 52.99609375 C-117.88558871 51.21381837 -118.27172476 49.95448217 -119.125 46.68359375 C-119.6859122 39.61610002 -118.27262412 35.83344246 -114.25 29.93359375 C-111.95542351 27.50404217 -110.19607277 26.84562128 -107.125 25.68359375 C-106.795 24.69359375 -106.465 23.70359375 -106.125 22.68359375 C-103.7223588 21.25515781 -101.388019 20.0104849 -98.875 18.80859375 C-98.15135254 18.45563232 -97.42770508 18.1026709 -96.68212891 17.73901367 C-90.29823362 14.67196528 -83.79390548 12.06709485 -77.125 9.68359375 C-76.04089844 9.2865625 -74.95679688 8.88953125 -73.83984375 8.48046875 C-66.35474174 5.76486343 -58.81860108 3.22034384 -51.25317383 0.73852539 C-47.48715718 -0.5020103 -43.8069319 -1.84238959 -40.125 -3.31640625 C-25.80052487 -7.97025957 -13.02135139 -8.06653569 0 0 Z " fill="#525352" transform="translate(378.125,40.31640625)"/>
<path d="M0 0 C6.40930787 3.1813981 12.77325528 9.54651056 16 16 C16.14977039 18.24655587 16.22150174 20.49863768 16.25 22.75 C16.27578125 23.96171875 16.3015625 25.1734375 16.328125 26.421875 C15.84277951 31.71445197 13.83348258 35.75661814 9.9375 39.375 C6.0976988 42.53912803 2.77141052 42.51326266 -2.05859375 42.2109375 C-2.69925781 42.14132812 -3.33992188 42.07171875 -4 42 C-4 40.68 -4 39.36 -4 38 C-3.01 38 -2.02 38 -1 38 C-1 35.69 -1 33.38 -1 31 C-5.34184202 31.18464366 -5.34184202 31.18464366 -9 33 C-10.51928038 33.07179964 -12.04167482 33.08392007 -13.5625 33.0625 C-14.38878906 33.05347656 -15.21507812 33.04445313 -16.06640625 33.03515625 C-16.70449219 33.02355469 -17.34257812 33.01195312 -18 33 C-18.1953125 26.9453125 -18.1953125 26.9453125 -18 25 C-17.34 24.34 -16.68 23.68 -16 23 C-15.35232207 20.42938689 -15.35232207 20.42938689 -15 18 C-16.98 18 -18.96 18 -21 18 C-21 18.66 -21 19.32 -21 20 C-22.65 20 -24.3 20 -26 20 C-26.61891117 12.10888252 -26.61891117 12.10888252 -24.5 8.3125 C-23.675 7.549375 -22.85 6.78625 -22 6 C-21.48695313 5.46117187 -20.97390625 4.92234375 -20.4453125 4.3671875 C-14.47404932 -1.14277638 -7.78562199 -1.48042755 0 0 Z " fill="#F2F2F2" transform="translate(382,269)"/>
<path d="M0 0 C5.57041731 3.49501252 11.16391492 7.4425533 13 14 C13.71835722 20.34901013 13.30813427 25.48644289 10 31 C6.96071175 33.57678787 5.11173408 34.90332747 1.125 35.25 C0.42375 35.1675 -0.2775 35.085 -1 35 C-1.14285714 26.42857143 -1.14285714 26.42857143 0 23 C-1.94170385 23.19641613 -1.94170385 23.19641613 -4 24 C-5.30764044 25.80723973 -5.30764044 25.80723973 -6.1875 28 C-7.96440129 31.96440129 -7.96440129 31.96440129 -9 33 C-11.9375 33.1875 -11.9375 33.1875 -15 33 C-17 31 -17 31 -17.1953125 27.7421875 C-17.17210937 26.46601563 -17.14890625 25.18984375 -17.125 23.875 C-17.10695312 22.59367187 -17.08890625 21.31234375 -17.0703125 19.9921875 C-17.04710937 19.00476563 -17.02390625 18.01734375 -17 17 C-18.65 17 -20.3 17 -22 17 C-22 19.64 -22 22.28 -22 25 C-28.49107017 24.51010791 -28.49107017 24.51010791 -30.6875 22.30859375 C-33.25761486 17.78794529 -32.98795996 12.99607599 -32 8 C-24.55203358 -4.50322866 -12.57568083 -5.24276999 0 0 Z " fill="#F1F2F2" transform="translate(240,189)"/>
<path d="M0 0 C5.74779318 -0.68973518 9.80260777 0.81162432 15 3 C15 3.66 15 4.32 15 5 C15.66 5 16.32 5 17 5 C17 5.66 17 6.32 17 7 C17.61875 7.268125 18.2375 7.53625 18.875 7.8125 C21 9 21 9 23 12 C22.9375 14.5 22.9375 14.5 22 17 C17.76786669 20.82257202 12.43756166 20.69380721 7 21 C7.26393501 24.43230448 7.26393501 24.43230448 8 28 C11.40431947 30.26954631 13.16524202 30.36549949 17.1875 30.625 C18.81751953 30.73714844 18.81751953 30.73714844 20.48046875 30.8515625 C21.72763672 30.92503906 21.72763672 30.92503906 23 31 C23 31.99 23 32.98 23 34 C19.89563829 36.58696809 17.07075492 37.19353974 13.1875 37.75 C8.97178102 38.46093486 6.95790011 39.61668149 3.9375 42.625 C1.09099591 45.37949587 -0.62305165 46.53383587 -4.625 46.6875 C-8.94301754 46.32207192 -11.7170928 44.88255267 -15 42 C-16.74477236 39.15303224 -17.23841407 37.09599933 -17.16015625 33.77734375 C-17.14919922 32.99166016 -17.13824219 32.20597656 -17.12695312 31.39648438 C-17.09504883 30.17928711 -17.09504883 30.17928711 -17.0625 28.9375 C-17.02801268 27.32170509 -16.99788497 25.70580974 -16.97265625 24.08984375 C-16.95468994 23.37691162 -16.93672363 22.66397949 -16.91821289 21.92944336 C-16.92053899 19.77877233 -16.92053899 19.77877233 -18 17 C-18.06740865 15.43881572 -18.08514456 13.8749748 -18.0625 12.3125 C-18.05347656 11.50425781 -18.04445313 10.69601563 -18.03515625 9.86328125 C-18.02355469 9.24839844 -18.01195312 8.63351563 -18 8 C-16.02 8 -14.04 8 -12 8 C-11.34 11.63 -10.68 15.26 -10 19 C-6.7 19 -3.4 19 0 19 C-0.33 17.659375 -0.66 16.31875 -1 14.9375 C-1.89512141 10.87748504 -2.33391872 7.17398399 -2 3 C-1.34 2.01 -0.68 1.02 0 0 Z " fill="#4A4B4C" transform="translate(331,175)"/>
<path d="M0 0 C0 0.99 0 1.98 0 3 C-0.6290625 3.30292969 -1.258125 3.60585937 -1.90625 3.91796875 C-2.7621875 4.33691406 -3.618125 4.75585938 -4.5 5.1875 C-5.3353125 5.59355469 -6.170625 5.99960938 -7.03125 6.41796875 C-9.37196404 7.66532294 -11.53643189 8.96991228 -13.7578125 10.40625 C-18.11332037 13.16319381 -22.65361657 15.26293734 -27.375 17.3125 C-28.18066406 17.67150391 -28.98632812 18.03050781 -29.81640625 18.40039062 C-35.72866071 21 -35.72866071 21 -38 21 C-38 22.32 -38 23.64 -38 25 C-37.41476562 24.95359375 -36.82953125 24.9071875 -36.2265625 24.859375 C-26.79934386 24.46303548 -18.08319694 26.76167644 -9 29 C-9.66 30.32 -10.32 31.64 -11 33 C-10.34 33.33 -9.68 33.66 -9 34 C-15.67825223 33.06504469 -15.67825223 33.06504469 -18.53125 32.48828125 C-39.91766009 29.47780686 -58.3465971 33.28721032 -76.70703125 44.6796875 C-79 46 -79 46 -81 46 C-81.33 45.34 -81.66 44.68 -82 44 C-82.99 44.495 -82.99 44.495 -84 45 C-83.67 43.35 -83.34 41.7 -83 40 C-82.34 40 -81.68 40 -81 40 C-80.67 39.01 -80.34 38.02 -80 37 C-78.04402816 35.60287726 -76.04563599 34.26220093 -74 33 C-75.29035156 33.01160156 -76.58070313 33.02320313 -77.91015625 33.03515625 C-79.62760271 33.0445412 -81.34505075 33.05364064 -83.0625 33.0625 C-83.91005859 33.07087891 -84.75761719 33.07925781 -85.63085938 33.08789062 C-90.5361722 33.10683006 -95.16444755 32.83326345 -100 32 C-101.125 28.25 -101.125 28.25 -100 26 C-99.30664551 26.01571045 -98.61329102 26.0314209 -97.89892578 26.04760742 C-77.52884226 26.44665766 -58.21816527 25.81233735 -39.453125 17.0859375 C-36.65446213 15.84703897 -33.81065512 14.80443378 -30.9375 13.75 C-22.09083716 10.39472858 -13.24695635 6.28671704 -5.21875 1.2578125 C-3 0 -3 0 0 0 Z " fill="#494949" transform="translate(370,67)"/>
<path d="M0 0 C0.33 0 0.66 0 1 0 C1.65245114 27.31930022 0.54887265 62.26593242 -19.484375 83.51171875 C-20.23460937 84.24841797 -20.23460937 84.24841797 -21 85 C-21.52078125 85.54269531 -22.0415625 86.08539063 -22.578125 86.64453125 C-27.14315408 91.02823908 -31.89660027 92.60002501 -38 94 C-38 94.66 -38 95.32 -38 96 C-38.99 95.67 -39.98 95.34 -41 95 C-41 93.68 -41 92.36 -41 91 C-40.01 91 -39.02 91 -38 91 C-38 90.34 -38 89.68 -38 89 C-39.98 89.495 -39.98 89.495 -42 90 C-40.6507413 87.3014826 -39.23998637 87.08431497 -36.5 85.875 C-25.66015986 80.56347833 -18.81089186 72.64365329 -14.6640625 61.3671875 C-13.52745737 57.95184014 -12.53228059 54.50446364 -11.57470703 51.03515625 C-11.0473742 49.16776182 -10.46196829 47.31702193 -9.87109375 45.46875 C-5.81940773 31.71394876 -5.68422622 17.24080597 -5 3 C-4.34 4.32 -3.68 5.64 -3 7 C-0.64046906 4.64046906 -0.50858587 3.22104383 0 0 Z " fill="#545454" transform="translate(434,175)"/>
<path d="M0 0 C2 1.375 2 1.375 4 3 C4 3.66 4 4.32 4 5 C6.33214148 6.20628008 8.49642139 7.1654738 11 8 C12.34042915 9.32619955 13.67268071 10.66067963 15 12 C26.21713824 20.23367948 38.41048016 26.28631619 50.98046875 32.109375 C54.16213451 33.58976929 57.27327983 35.17012186 60.375 36.8125 C66.55574844 39.93972706 73.16814629 41.79383627 80.0625 42.4375 C83 43 83 43 84.5 44.75 C85.10341212 47.46535456 84.73888303 49.34002109 84 52 C83.67 51.34 83.34 50.68 83 50 C80.87501826 49.43550555 78.72232952 48.97400681 76.5625 48.5625 C64.2730024 46.03776938 54.04019189 41.87115468 43 36 C42.22398437 35.58733887 41.44796875 35.17467773 40.6484375 34.74951172 C38.25906493 33.46969917 35.87794859 32.17590392 33.5 30.875 C32.77103516 30.47982178 32.04207031 30.08464355 31.29101562 29.67749023 C26.18723774 26.84367943 21.60813221 23.5735792 17 20 C15.98035156 19.24976563 14.96070313 18.49953125 13.91015625 17.7265625 C7.64859841 13.10554999 1.70824851 8.29022021 -4 3 C-2.68 2.67 -1.36 2.34 0 2 C0 1.34 0 0.68 0 0 Z " fill="#575757" transform="translate(269,222)"/>
<path d="M0 0 C1 2 1 2 0.375 4.4375 C-1.27706844 7.51635481 -2.91798591 8.45899296 -6 10 C-5.40842943 13.2184256 -4.42539009 15.00980951 -2.25 17.4375 C-1.71246094 18.04335937 -1.17492187 18.64921875 -0.62109375 19.2734375 C0.76601908 20.75079622 2.22085148 22.16406769 3.6875 23.5625 C6.96529301 27.01747101 8.56622775 30.69868326 10.0625 35.1875 C13.01409329 39.47207091 17.08109617 39.94792676 22 41 C22 42.32 22 43.64 22 45 C19.03 45.495 19.03 45.495 16 46 C16.474375 47.19625 16.94875 48.3925 17.4375 49.625 C19.47706746 55.1472251 20.09908667 60.24901967 20.3125 66.125 C20.36857422 67.64480469 20.36857422 67.64480469 20.42578125 69.1953125 C19.89754242 72.67490405 18.66704587 73.80113378 16 76 C15.89453857 75.34515625 15.78907715 74.6903125 15.68041992 74.015625 C15.19125425 71.00896809 14.68947422 68.0045439 14.1875 65 C14.02185547 63.97003906 13.85621094 62.94007813 13.68554688 61.87890625 C10.20111525 41.23529246 -0.99501297 25.10468781 -16 11 C-15.67 10.01 -15.34 9.02 -15 8 C-14.34 8.33 -13.68 8.66 -13 9 C-12.690625 8.38125 -12.38125 7.7625 -12.0625 7.125 C-9.3675539 1.73510781 -6.27261584 -0.53765279 0 0 Z " fill="#494A49" transform="translate(414,108)"/>
<path d="M0 0 C-0.04125 0.78375 -0.0825 1.5675 -0.125 2.375 C-0.28728734 5.16116119 -0.28728734 5.16116119 2 7 C-0.97757304 9.01706561 -3.84649556 10.35267021 -7.25 11.4375 C-18.16481071 14.94969157 -29.41111709 20.14630327 -37 29 C-38.44430855 31.88861709 -38.37688506 33.79647701 -38 37 C-35.53856432 39.9271127 -33.17875822 41.88082786 -30 44 C-31.65 44 -33.3 44 -35 44 C-35 45.65 -35 47.3 -35 49 C-36.65 48.34 -38.3 47.68 -40 47 C-40 46.34 -40 45.68 -40 45 C-40.61875 44.773125 -41.2375 44.54625 -41.875 44.3125 C-44.76058871 42.53022462 -45.14672476 41.27088842 -46 38 C-46.5609122 30.93250627 -45.14762412 27.14984871 -41.125 21.25 C-38.83042351 18.82044842 -37.07107277 18.16202753 -34 17 C-33.67 16.01 -33.34 15.02 -33 14 C-30.59751652 12.57165783 -28.26266981 11.32722472 -25.75 10.125 C-25.03505371 9.77493896 -24.32010742 9.42487793 -23.58349609 9.06420898 C-17.98651085 6.36754747 -12.31177346 4.04587242 -6.4765625 1.91015625 C-1.27896996 0 -1.27896996 0 0 0 Z " fill="#565656" transform="translate(305,49)"/>
<path d="M0 0 C-0.14295891 1.39613065 -0.28951558 2.79189308 -0.4375 4.1875 C-0.51871094 4.96480469 -0.59992188 5.74210937 -0.68359375 6.54296875 C-1 9 -1 9 -1.53125 11.375 C-2.10014439 14.56080861 -2.09516867 17.57830184 -2.0625 20.8125 C-2.05347656 21.97394531 -2.04445313 23.13539062 -2.03515625 24.33203125 C-2.02355469 25.21246094 -2.01195312 26.09289062 -2 27 C-1.34 27.33 -0.68 27.66 0 28 C-5.73353405 27.37664862 -11.20719279 26.33638064 -16.8125 25 C-23.52964111 23.44509339 -30.09277268 22.30428314 -37 22 C-37 20.68 -37 19.36 -37 18 C-36.10244995 17.60844727 -36.10244995 17.60844727 -35.18676758 17.20898438 C-24.48019318 12.51219845 -14.03034687 7.86564858 -4.265625 1.3984375 C-2 0 -2 0 0 0 Z " fill="#EFB3B0" transform="translate(369,70)"/>
<path d="M0 0 C1.98 0 3.96 0 6 0 C6.18175781 0.78246094 6.36351562 1.56492188 6.55078125 2.37109375 C6.80214844 3.38300781 7.05351562 4.39492187 7.3125 5.4375 C7.55613281 6.44683594 7.79976563 7.45617187 8.05078125 8.49609375 C8.36402344 9.32238281 8.67726563 10.14867187 9 11 C9.99 11.33 10.98 11.66 12 12 C13 15 13 15 12.0625 17.1875 C11.711875 17.785625 11.36125 18.38375 11 19 C9.68 19 8.36 19 7 19 C6.63579614 24.89668414 6.63579614 24.89668414 8 30.5625 C10.6133895 32.4408737 12.89531518 32.55545571 16.06640625 32.38671875 C19.08000679 31.78399864 20.26174011 30.47367753 22 28 C23.25436187 25.36777038 23.25436187 25.36777038 24 23 C29.66666667 23 35.33333333 23 41 23 C41 23.99 41 24.98 41 26 C37.89563829 28.58696809 35.07075492 29.19353974 31.1875 29.75 C26.97178102 30.46093486 24.95790011 31.61668149 21.9375 34.625 C19.09099591 37.37949587 17.37694835 38.53383587 13.375 38.6875 C9.05698246 38.32207192 6.2829072 36.88255267 3 34 C1.25522764 31.15303224 0.76158593 29.09599933 0.83984375 25.77734375 C0.85080078 24.99166016 0.86175781 24.20597656 0.87304688 23.39648438 C0.90495117 22.17928711 0.90495117 22.17928711 0.9375 20.9375 C0.97198732 19.32170509 1.00211503 17.70580974 1.02734375 16.08984375 C1.04531006 15.37691162 1.06327637 14.66397949 1.08178711 13.92944336 C1.07946101 11.77877233 1.07946101 11.77877233 0 9 C-0.06740865 7.43881572 -0.08514456 5.8749748 -0.0625 4.3125 C-0.05347656 3.50425781 -0.04445313 2.69601563 -0.03515625 1.86328125 C-0.02355469 1.24839844 -0.01195312 0.63351563 0 0 Z " fill="#484949" transform="translate(313,183)"/>
<path d="M0 0 C0 0.66 0 1.32 0 2 C-0.99 2 -1.98 2 -3 2 C-2.65213292 3.97536745 -2.65213292 3.97536745 -2 6 C-1.34 6.33 -0.68 6.66 0 7 C0.72693904 8.97888961 1.39816251 10.97954558 2 13 C0.68 13.99 -0.64 14.98 -2 16 C-2.92232422 15.16855469 -2.92232422 15.16855469 -3.86328125 14.3203125 C-5.07564453 13.23363281 -5.07564453 13.23363281 -6.3125 12.125 C-7.11300781 11.40570313 -7.91351563 10.68640625 -8.73828125 9.9453125 C-13.90476477 5.50160129 -17.66273868 5.34495066 -24.33203125 5.4140625 C-30.27410686 6.36327586 -34.08263247 9.56463346 -38 14 C-39.68480926 16.7472049 -40.30582664 19.05826636 -40.625 22.25 C-40.74875 23.4875 -40.8725 24.725 -41 26 C-42.65 26.66 -44.3 27.32 -46 28 C-48.08092974 23.83814053 -47.47455109 18.53257132 -47 14 C-44.9375 11.125 -44.9375 11.125 -43 9 C-43.13617572 5.75706416 -43.13617572 5.75706416 -44 3 C-40.23388813 1.81668993 -36.47666702 1.79618716 -32.56640625 1.71875 C-31.85145493 1.70034058 -31.1365036 1.68193115 -30.39988708 1.66296387 C-28.12083893 1.60440839 -25.84171735 1.55152134 -23.5625 1.5 C-20.56365427 1.43205368 -17.56502879 1.35835894 -14.56640625 1.28125 C-13.88292618 1.26767456 -13.19944611 1.25409912 -12.49525452 1.2401123 C-8.26980166 1.13099966 -4.16555571 0 0 0 Z " fill="#444545" transform="translate(396,264)"/>
<path d="M0 0 C0.52213861 2.05834806 1.02094884 4.10474419 1.4375 6.1875 C1.623125 6.785625 1.80875 7.38375 2 8 C2.66 8.33 3.32 8.66 4 9 C4.33 7.68 4.66 6.36 5 5 C3.9953676 15.3333618 -1.63599646 24.76885219 -9 32 C-9.52078125 32.54269531 -10.0415625 33.08539063 -10.578125 33.64453125 C-15.14315408 38.02823908 -19.89660027 39.60002501 -26 41 C-26 41.66 -26 42.32 -26 43 C-26.99 42.67 -27.98 42.34 -29 42 C-29 40.68 -29 39.36 -29 38 C-28.01 38 -27.02 38 -26 38 C-26 37.34 -26 36.68 -26 36 C-27.98 36.495 -27.98 36.495 -30 37 C-28.6507413 34.3014826 -27.23998637 34.08431497 -24.5 32.875 C-13.82153669 27.64255298 -6.95028789 19.7755251 -2.74609375 8.6953125 C-1.77209176 5.81063762 -0.85359187 2.92229689 0 0 Z " fill="#505050" transform="translate(422,228)"/>
<path d="M0 0 C4.36027611 0.28130814 7.00368954 1.24521423 10.875 3.25 C11.53371094 3.56710938 12.19242187 3.88421875 12.87109375 4.2109375 C14.9749844 5.40469437 16.37679776 6.34157572 17.875 8.25 C18.46084343 11.66044567 18.2938158 14.82634699 17.875 18.25 C16.29370971 18.47331199 14.70978911 18.67804644 13.125 18.875 C11.80242187 19.04902344 11.80242187 19.04902344 10.453125 19.2265625 C7.64640122 19.25207817 6.24115134 18.69843844 3.875 17.25 C3.875 16.59 3.875 15.93 3.875 15.25 C3.111875 15.146875 2.34875 15.04375 1.5625 14.9375 C-1.42047825 14.17441254 -2.2922938 13.6670473 -4.125 11.25 C-4.453125 8.8046875 -4.453125 8.8046875 -4.375 6.125 C-4.35953125 5.23554688 -4.3440625 4.34609375 -4.328125 3.4296875 C-4.00649567 -0.02164261 -3.56420463 0.28513637 0 0 Z " fill="#F5B7B4" transform="translate(382.125,208.75)"/>
<path d="M0 0 C6.91845637 0.10041301 11.68163087 3.74413087 16.4375 8.5 C16.70741906 11.18839385 16.52487357 13.79141936 16.4375 16.5 C12.99139094 18.22305453 9.21287825 17.879435 5.4375 17.5 C1.875 16 1.875 16 -0.5625 14.5 C-0.5625 13.84 -0.5625 13.18 -0.5625 12.5 C-1.18125 12.231875 -1.8 11.96375 -2.4375 11.6875 C-4.5625 10.5 -4.5625 10.5 -6.5625 7.5 C-6.8125 4.9375 -6.8125 4.9375 -6.5625 2.5 C-4.14447227 0.08197227 -3.33706063 0.12533561 0 0 Z " fill="#F3BAB6" transform="translate(282.5625,150.5)"/>
<path d="M0 0 C3.5 1.8125 3.5 1.8125 6 4 C6.54011719 4.41765625 7.08023437 4.8353125 7.63671875 5.265625 C9.62614275 7.79658275 9.36351451 9.76282768 9.3125 12.9375 C9.30863281 13.97777344 9.30476563 15.01804688 9.30078125 16.08984375 C9.00916371 18.91133812 8.4531841 20.5973251 7 23 C5.02 23 3.04 23 1 23 C1 18.38 1 13.76 1 9 C-2.09173752 7.45413124 -4.59429552 7.70640479 -8 8 C-8.680625 8.680625 -9.36125 9.36125 -10.0625 10.0625 C-10.701875 10.701875 -11.34125 11.34125 -12 12 C-15.25 11.75 -15.25 11.75 -18 11 C-17.49697411 6.59852343 -15.97554199 4.24604581 -13 1 C-9.05598031 -0.97200985 -4.29855722 -0.44928423 0 0 Z " fill="#4B4B4B" transform="translate(387,182)"/>
<path d="M0 0 C4.40215848 1.92320213 7.32842124 3.99263186 10 8 C10.52502314 14.19527301 9.43845081 18.31028145 7 24 C5.68 23.67 4.36 23.34 3 23 C2.67 18.38 2.34 13.76 2 9 C-1.63 8.34 -5.26 7.68 -9 7 C-9.66 8.32 -10.32 9.64 -11 11 C-11.33 11.66 -11.66 12.32 -12 13 C-13.32 13 -14.64 13 -16 13 C-16.72094862 5.91067194 -16.72094862 5.91067194 -13.625 2 C-9.40075777 -0.92907362 -4.92539363 -0.96234614 0 0 Z " fill="#515151" transform="translate(316,140)"/>
<path d="M0 0 C4.53287251 4.24042912 5.21409273 7.24145491 5.4375 13.375 C5.5325057 20.29647067 4.09109364 26.55788119 2.1875 33.1875 C1.92702881 34.09612793 1.66655762 35.00475586 1.39819336 35.94091797 C0.08635273 40.24692273 -1.1303355 43.47060799 -4 47 C-4 44.03 -4 41.06 -4 38 C-4.66 37.67 -5.32 37.34 -6 37 C-5.7834375 36.42636719 -5.566875 35.85273437 -5.34375 35.26171875 C-2.27982893 25.91392253 -2.72829818 16.71082436 -3 7 C-2.01 7 -1.02 7 0 7 C0.93423645 3.98968256 1.04449911 3.13349732 0 0 Z " fill="#535353" transform="translate(383,48)"/>
<path d="M0 0 C7.26 0 14.52 0 22 0 C22 0.66 22 1.32 22 2 C23.32 2.33 24.64 2.66 26 3 C23.19722475 5.80277525 20.78718999 6.12141852 16.98754883 6.20532227 C16.18694534 6.22526749 15.38634186 6.24521271 14.56147766 6.26576233 C13.70201035 6.28247482 12.84254303 6.29918732 11.95703125 6.31640625 C11.0734343 6.33718735 10.18983734 6.35796844 9.27946472 6.37937927 C6.45722215 6.44475754 3.63488665 6.50370528 0.8125 6.5625 C-1.10092106 6.60569637 -3.01433273 6.64931102 -4.92773438 6.69335938 C-9.61839437 6.80042695 -14.30914783 6.90172752 -19 7 C-19.5625 5.0625 -19.5625 5.0625 -20 3 C-19 2 -19 2 -17.14233398 1.88647461 C-15.95619507 1.89432983 -15.95619507 1.89432983 -14.74609375 1.90234375 C-13.46508789 1.90717773 -13.46508789 1.90717773 -12.15820312 1.91210938 C-11.26037109 1.92048828 -10.36253906 1.92886719 -9.4375 1.9375 C-8.53580078 1.94201172 -7.63410156 1.94652344 -6.70507812 1.95117188 C-4.46998686 1.96299775 -2.23502563 1.9794778 0 2 C0 1.34 0 0.68 0 0 Z " fill="#484848" transform="translate(485,97)"/>
<path d="M0 0 C0.33 0 0.66 0 1 0 C1 4.66666667 1 9.33333333 1 14 C2.32 14.33 3.64 14.66 5 15 C4.53105638 19.22049262 2.10488325 21.40245061 -1 24 C-11.60714286 32.29714286 -11.60714286 32.29714286 -16 33 C-16 32.34 -16 31.68 -16 31 C-16.66 31 -17.32 31 -18 31 C-17.49396008 28.83125748 -17.00016187 27.00032373 -16 25 C-17.32 24.67 -18.64 24.34 -20 24 C-19.40832031 23.75765625 -18.81664062 23.5153125 -18.20703125 23.265625 C-13.56564904 21.29701264 -9.87409746 19.287113 -6 16 C-5.34 16 -4.68 16 -4 16 C-2.06757715 12.65479742 -1.4536147 9.55232518 -0.875 5.75 C-0.70742188 4.67234375 -0.53984375 3.5946875 -0.3671875 2.484375 C-0.24601563 1.66453125 -0.12484375 0.8446875 0 0 Z M-2 15 C-1.67 15.99 -1.34 16.98 -1 18 C-0.67 17.01 -0.34 16.02 0 15 C-0.66 15 -1.32 15 -2 15 Z " fill="#575757" transform="translate(558,123)"/>
<path d="M0 0 C2.71763127 3.00369772 3.85973354 5.1233346 4.5 9.125 C4 12 4 12 2.5 14.375 C-0.53506741 16.34779382 -2.52154044 16.6452496 -6.09375 16.4453125 C-8 16 -8 16 -10.5 13.9375 C-12.32747775 10.3586894 -12.37453632 7.97008503 -12 4 C-11 2 -11 2 -8.8125 0.875 C-5.53966373 -0.14321573 -3.39819908 -0.57841686 0 0 Z " fill="#E1D5D9" transform="translate(331,200)"/>
<path d="M0 0 C0.99 0.33 1.98 0.66 3 1 C2.030625 1.721875 1.06125 2.44375 0.0625 3.1875 C-2.91626952 5.65244914 -3.42366993 7.15779952 -4 11 C-4.680625 11.680625 -5.36125 12.36125 -6.0625 13.0625 C-9.10481162 17.67503697 -8.48493887 22.61797351 -8 28 C-7.67 28.66 -7.34 29.32 -7 30 C-7.99 30.33 -8.98 30.66 -10 31 C-10 32.65 -10 34.3 -10 36 C-14.06730413 32.45750931 -14.76087878 30.17433419 -15.15625 24.92578125 C-15.47991406 16.98252568 -12.9158065 11.42105666 -7.6171875 5.58203125 C-5.21622613 3.23326469 -2.97310335 1.58565512 0 0 Z " fill="#5A5A5B" transform="translate(217,181)"/>
<path d="M0 0 C2.58361518 -0.05407567 5.16609255 -0.093707 7.75 -0.125 C8.84441406 -0.15013672 8.84441406 -0.15013672 9.9609375 -0.17578125 C13.8044624 -0.21072239 16.74606772 -0.17499684 20 2 C18.47291037 5.43595166 16.40072955 8.11912454 14 11 C16.64 11.33 19.28 11.66 22 12 C21.34 13.65 20.68 15.3 20 17 C19.01 17 18.02 17 17 17 C16.34 17.66 15.68 18.32 15 19 C11.78796065 16.50174717 8.82506863 13.9297008 6 11 C6.33 10.4225 6.66 9.845 7 9.25 C8.27075898 6.80116138 8.27075898 6.80116138 8 3 C8.66 2.67 9.32 2.34 10 2 C6.7 1.67 3.4 1.34 0 1 C0 0.67 0 0.34 0 0 Z " fill="#595A59" transform="translate(382,100)"/>
<path d="M0 0 C0.99 0 1.98 0 3 0 C3 5.28 3 10.56 3 16 C-2.11378841 17.02275768 -3.13714078 16.91406822 -7.34765625 14.2421875 C-9.77526851 12.41717403 -11.4382465 10.6029225 -13 8 C-12.75 5.6875 -12.75 5.6875 -12 4 C-8.30099992 4.88776002 -4.65449539 5.94581864 -1 7 C-1.020625 6.030625 -1.04125 5.06125 -1.0625 4.0625 C-1 1 -1 1 0 0 Z " fill="#4F5150" transform="translate(219,207)"/>
<path d="M0 0 C8.25 0.99 16.5 1.98 25 3 C23.02 3.99 23.02 3.99 21 5 C19.29078411 6.5412312 19.29078411 6.5412312 18 8 C18.99 8.66 19.98 9.32 21 10 C1.3133515 8.65667575 1.3133515 8.65667575 -6 5 C-6.33 5.66 -6.66 6.32 -7 7 C-7 6.01 -7 5.02 -7 4 C-6.030625 3.71125 -5.06125 3.4225 -4.0625 3.125 C-0.89335797 2.35785318 -0.89335797 2.35785318 0 0 Z " fill="#595959" transform="translate(437,150)"/>
<path d="M0 0 C0 0.99 0 1.98 0 3 C-0.6290625 3.30292969 -1.258125 3.60585937 -1.90625 3.91796875 C-2.7621875 4.33691406 -3.618125 4.75585938 -4.5 5.1875 C-5.3353125 5.59355469 -6.170625 5.99960938 -7.03125 6.41796875 C-9.37440966 7.6666262 -11.55590275 8.97159996 -13.78515625 10.40234375 C-18.02276421 13.07922779 -22.38444992 15.28802254 -26.9375 17.375 C-27.68451172 17.74238281 -28.43152344 18.10976562 -29.20117188 18.48828125 C-34.81067449 21.05345501 -38.97827657 21.26332354 -45 20 C-41.74187804 17.82791869 -38.46908469 16.6652514 -34.8125 15.375 C-24.84883049 11.75371913 -15.33100884 7.18416665 -6.22265625 1.7578125 C-3 0 -3 0 0 0 Z " fill="#525253" transform="translate(370,67)"/>
<path d="M0 0 C2 0.0625 2 0.0625 4 1 C7.13799223 6.02078757 6.58824898 12.43309537 5.3125 18 C4 20 4 20 1.5 20.9375 C0.675 20.958125 -0.15 20.97875 -1 21 C-1.66 20.34 -2.32 19.68 -3 19 C-2.67 18.34 -2.34 17.68 -2 17 C-1.97429177 13.7974885 -2.02824645 10.61064552 -2.12695312 7.41015625 C-2.1568379 5.60652196 -2.08472195 3.80189121 -2 2 C-1.34 1.34 -0.68 0.68 0 0 Z M-4 21 C-3.34 21 -2.68 21 -2 21 C-2.33 21.99 -2.66 22.98 -3 24 C-3.33 23.01 -3.66 22.02 -4 21 Z " fill="#4A4A4A" transform="translate(560,117)"/>
<path d="M0 0 C0 0.66 0 1.32 0 2 C-0.99 2 -1.98 2 -3 2 C-2.65213292 3.97536745 -2.65213292 3.97536745 -2 6 C-1.34 6.33 -0.68 6.66 0 7 C0.72693904 8.97888961 1.39816251 10.97954558 2 13 C0.68 13.99 -0.64 14.98 -2 16 C-2.92232422 15.16855469 -2.92232422 15.16855469 -3.86328125 14.3203125 C-5.07564453 13.23363281 -5.07564453 13.23363281 -6.3125 12.125 C-7.11300781 11.40570313 -7.91351563 10.68640625 -8.73828125 9.9453125 C-12.68425735 6.55136414 -15.05418557 5.70618158 -20.1875 5.375 C-21.27417969 5.30023438 -22.36085938 5.22546875 -23.48046875 5.1484375 C-24.31191406 5.09945313 -25.14335937 5.05046875 -26 5 C-26 4.67 -26 4.34 -26 4 C-21.71 4 -17.42 4 -13 4 C-13 3.34 -13 2.68 -13 2 C-11.20873548 1.66451233 -9.41697413 1.33167645 -7.625 1 C-6.62726563 0.814375 -5.62953125 0.62875 -4.6015625 0.4375 C-2 0 -2 0 0 0 Z " fill="#494B4C" transform="translate(396,264)"/>
<path d="M0 0 C2.97 0.495 2.97 0.495 6 1 C3.31597197 4.21299706 -0.17239762 5.73722257 -3.875 7.5 C-7.26317937 9.13345911 -10.60423932 10.75881621 -13.8203125 12.71875 C-16 14 -16 14 -18 14 C-18.33 13.34 -18.66 12.68 -19 12 C-19.99 12.495 -19.99 12.495 -21 13 C-20.67 11.35 -20.34 9.7 -20 8 C-19.34 8 -18.68 8 -18 8 C-18 7.34 -18 6.68 -18 6 C-16.783125 5.9175 -15.56625 5.835 -14.3125 5.75 C-10.14827376 5.26527525 -8.21522082 3.67935068 -5 1 C-2.6875 1.25 -2.6875 1.25 -1 2 C-0.67 1.34 -0.34 0.68 0 0 Z " fill="#444546" transform="translate(307,99)"/>
</svg>
