<?xml version="1.0" encoding="UTF-8"?>
<svg version="1.1" xmlns="http://www.w3.org/2000/svg" width="260" height="271">

<path d="M0 0 C10.85517935 9.4035209 19.22677841 21.34203819 21.31640625 35.83984375 C22.71824903 55.63223843 21.20110945 79.19786015 7.95703125 95.1953125 C5.02378081 98.13554687 1.81847275 100.61383387 -1.68359375 102.83984375 C-2.27785156 103.22269531 -2.87210937 103.60554688 -3.484375 104 C-6.62286286 105.19853444 -9.40253828 104.99023953 -12.74609375 104.90234375 C-17.80732888 104.74000065 -17.80732888 104.74000065 -22.68359375 105.83984375 C-46.82655246 108.60129328 -73.70455721 90.48265061 -91.80859375 76.15234375 C-98.52341896 70.41570249 -103.49313608 65.1227525 -106.78125 56.8671875 C-107.67977145 54.6130573 -107.67977145 54.6130573 -109.80859375 52.21484375 C-113.72551964 47.25340429 -114.33206259 41.08488166 -114.171875 34.921875 C-112.19365821 22.43537063 -103.37168572 13.30039706 -94.68359375 4.83984375 C-93.77222656 3.93105469 -92.86085938 3.02226563 -91.921875 2.0859375 C-64.36604915 -24.26306386 -28.94979641 -23.30311123 0 0 Z " fill="#FBFCFB" transform="translate(162.68359375,122.16015625)"/>
<path d="M0 0 C4.64854531 2.33926796 7.2271859 5.45661533 9.12890625 10.3515625 C9.71781957 13.72199765 9.74672926 16.99862672 9.69140625 20.4140625 C9.68189941 21.3721582 9.67239258 22.33025391 9.66259766 23.31738281 C9.09598502 43.38136561 2.21503221 63.51519532 -5.79296875 81.7734375 C-6.97135525 84.59131825 -7.93617614 87.44481866 -8.87109375 90.3515625 C-7.73671875 90.87105469 -6.60234375 91.39054687 -5.43359375 91.92578125 C-3.91263169 92.62993035 -2.39180561 93.33437323 -0.87109375 94.0390625 C-0.12730469 94.37873047 0.61648437 94.71839844 1.3828125 95.06835938 C6.55435551 97.47425112 11.36297519 100.21945624 16.12890625 103.3515625 C16.6707959 102.59818604 16.6707959 102.59818604 17.22363281 101.82958984 C53.54651099 51.49842542 53.54651099 51.49842542 76.12890625 44.3515625 C81.32155262 43.62277003 84.74687648 44.75989603 89.33203125 46.98828125 C92.6352613 49.49442753 93.95255767 52.2435056 94.59765625 56.296875 C94.67873773 64.54691513 93.14332173 70.19098934 89.12890625 77.3515625 C88.63261719 78.30675781 88.13632813 79.26195313 87.625 80.24609375 C83.11740551 88.5335506 77.36917575 95.35448471 71.12890625 102.3515625 C70.36320313 103.228125 69.5975 104.1046875 68.80859375 105.0078125 C46.55883899 130.20825159 46.55883899 130.20825159 37.12890625 133.3515625 C37.61230469 134.57488281 38.09570312 135.79820312 38.59375 137.05859375 C40.56949645 143.03245838 40.70482467 148.78742031 40.69140625 155.0390625 C40.68778076 156.80842163 40.68778076 156.80842163 40.68408203 158.61352539 C40.33159185 175.73464153 35.79044612 195.91628931 23.77734375 208.8828125 C20.62648919 211.69020898 16.50433756 215.3515625 12.12890625 215.3515625 C12.53882813 215.88265625 12.94875 216.41375 13.37109375 216.9609375 C13.90992188 217.66734375 14.44875 218.37375 15.00390625 219.1015625 C15.53757813 219.79765625 16.07125 220.49375 16.62109375 221.2109375 C20.3806085 226.54827969 20.91376919 230.89824497 20.12890625 237.3515625 C18.43613087 242.71354288 15.87316907 246.23033696 11.12890625 249.3515625 C7.94614549 250.94294288 4.59356745 250.74869758 1.12890625 250.3515625 C-1.37109375 248.9765625 -1.37109375 248.9765625 -2.87109375 247.3515625 C-2.87109375 246.6915625 -2.87109375 246.0315625 -2.87109375 245.3515625 C-3.77859375 245.4340625 -4.68609375 245.5165625 -5.62109375 245.6015625 C-8.87109375 245.3515625 -8.87109375 245.3515625 -11.18359375 243.6015625 C-12.87109375 241.3515625 -12.87109375 241.3515625 -13.37109375 239.2265625 C-13.53609375 238.6078125 -13.70109375 237.9890625 -13.87109375 237.3515625 C-15.80439978 236.25989975 -15.80439978 236.25989975 -17.87109375 235.3515625 C-20.33438221 231.6566298 -20.56575902 228.64071668 -19.87109375 224.3515625 C-18.75452112 222.04559729 -17.48707042 220.37153333 -15.87109375 218.3515625 C-16.47695312 218.24199219 -17.0828125 218.13242188 -17.70703125 218.01953125 C-18.54492188 217.86097656 -19.3828125 217.70242187 -20.24609375 217.5390625 C-21.46425781 217.31283203 -21.46425781 217.31283203 -22.70703125 217.08203125 C-30.51494371 215.27946381 -37.77747987 212.76021232 -44.99609375 209.2890625 C-46.21607056 208.70523804 -46.21607056 208.70523804 -47.46069336 208.10961914 C-59.53841932 202.2018441 -70.63731038 195.08439098 -80.87109375 186.3515625 C-82.01660055 185.41366354 -83.16238774 184.47610683 -84.30859375 183.5390625 C-86.26099147 181.87238152 -88.10779447 180.21282285 -89.87109375 178.3515625 C-89.95359375 179.0940625 -90.03609375 179.8365625 -90.12109375 180.6015625 C-91.02019778 183.89827727 -92.29479309 185.16561042 -94.87109375 187.3515625 C-98.10057343 188.96630234 -101.53556342 188.33976731 -105.05859375 188.1640625 C-105.80173828 188.14537109 -106.54488281 188.12667969 -107.31054688 188.10742188 C-112.89259124 187.82856427 -116.20069159 186.41307767 -120.87109375 183.3515625 C-122.47984375 182.4234375 -122.47984375 182.4234375 -124.12109375 181.4765625 C-128.11569992 178.38982137 -129.51455008 175.4016886 -130.37109375 170.4765625 C-129.4448682 164.68765279 -126.13411323 160.20969935 -121.74609375 156.4140625 C-117.99182252 153.72078097 -115.439163 153.21301192 -110.93359375 153.2265625 C-109.65162109 153.22269531 -109.65162109 153.22269531 -108.34375 153.21875 C-106.04428523 153.34225996 -104.07469027 153.70735563 -101.87109375 154.3515625 C-102.20109375 153.3615625 -102.53109375 152.3715625 -102.87109375 151.3515625 C-104.26488365 139.74328373 -100.02839866 130.70378857 -93.12109375 121.6640625 C-81.47429136 107.0156623 -66.86547388 94.34968921 -48.87109375 88.3515625 C-48.72599365 87.56322021 -48.58089355 86.77487793 -48.43139648 85.96264648 C-35.83966578 18.35383295 -35.83966578 18.35383295 -15.49609375 2.6015625 C-10.72187871 -0.65983543 -5.66032695 -1.96161644 0 0 Z M-87.87109375 121.3515625 C-94.62662542 129.68013313 -99.65076571 137.73615256 -99.19140625 148.71484375 C-98.41691334 155.09024268 -95.89592912 159.61692455 -92.04296875 164.6484375 C-90.87109375 166.3515625 -90.87109375 166.3515625 -89.62109375 169.6640625 C-81.67055113 189.06511488 -53.3821157 201.47986652 -35.35668945 209.14575195 C-25.60964528 213.1655945 -15.39874089 216.86077821 -4.87109375 213.3515625 C-2.68267057 213.43409081 -0.49514882 213.54165382 1.69140625 213.6640625 C10.19141128 213.70787696 14.87689852 211.10333402 21.12109375 205.59375 C26.24565597 200.3372248 28.67348809 194.17418196 31.12890625 187.3515625 C31.42667969 186.57683594 31.72445312 185.80210937 32.03125 185.00390625 C38.10990741 168.34052201 39.0961559 146.84723145 32.12890625 130.3515625 C22.92524383 110.88120066 4.80069599 99.50885951 -14.80859375 92.4765625 C-18.77742321 91.26962369 -22.73354872 90.60869807 -26.87109375 90.3515625 C-27.60714844 90.29871094 -28.34320313 90.24585937 -29.1015625 90.19140625 C-53.46045558 89.27745104 -72.37976133 104.20206693 -87.87109375 121.3515625 Z " fill="#424445" transform="translate(147.87109375,13.6484375)"/>
<path d="M0 0 C3.1875 1.8125 3.1875 1.8125 5 5 C7.37764441 14.25001386 2.70283324 22.24485122 -1.80273438 30.00976562 C-8.79265569 41.629227 -17.5606134 51.32333324 -27 61 C-27.99618961 62.0363662 -28.99228909 63.07281904 -29.98828125 64.109375 C-41.91232798 76.32013856 -41.91232798 76.32013856 -48 80 C-51 79 -51 79 -52.39453125 76.7421875 C-52.86246094 75.79601562 -53.33039063 74.84984375 -53.8125 73.875 C-56.97989904 67.81597049 -60.26633237 62.82244509 -66 59 C-64.56574779 54.85576597 -62.53644234 51.78535768 -59.875 48.3125 C-59.47539062 47.78994629 -59.07578125 47.26739258 -58.6640625 46.72900391 C-57.44975534 45.14723433 -56.22495629 43.57353709 -55 42 C-53.98292969 40.68708984 -53.98292969 40.68708984 -52.9453125 39.34765625 C-48.83571126 34.12400648 -44.50751277 29.15102932 -40.0234375 24.24609375 C-38.42588072 22.47274404 -36.91616508 20.68316018 -35.4375 18.8125 C-27.28991974 9.41144586 -13.33775857 -3.52790542 0 0 Z " fill="#FAB4B1" transform="translate(233,63)"/>
<path d="M0 0 C3.51546132 2.18739815 5.57975528 4.1288905 7 8 C7.22333516 10.95846579 7.32440542 13.79269482 7.3125 16.75 C7.32861328 17.50410156 7.34472656 18.25820313 7.36132812 19.03515625 C7.37216493 32.27773373 3.74410985 44.90754639 -0.65136719 57.2746582 C-1.37954158 59.32528968 -2.08940358 61.38159806 -2.796875 63.43945312 C-5.47391083 71.14794701 -8.44718159 78.64556908 -12 86 C-13.26714844 85.67257813 -14.53429687 85.34515625 -15.83984375 85.0078125 C-21.1234003 83.83368882 -26.17182655 83.77216984 -31.5625 83.875 C-32.47580078 83.88402344 -33.38910156 83.89304687 -34.33007812 83.90234375 C-36.55367319 83.92562747 -38.77668677 83.9583229 -41 84 C-41.67984855 59.01556562 -31.97764934 26.02328902 -15.71484375 6.7734375 C-10.94810474 1.84382586 -7.20775897 -1.20129316 0 0 Z " fill="#F9B4B0" transform="translate(146,17)"/>
<path d="M0 0 C4.64854531 2.33926796 7.2271859 5.45661533 9.12890625 10.3515625 C9.71781957 13.72199765 9.74672926 16.99862672 9.69140625 20.4140625 C9.677146 21.85120605 9.677146 21.85120605 9.66259766 23.31738281 C9.09598502 43.38136561 2.21503221 63.51519532 -5.79296875 81.7734375 C-6.97135525 84.59131825 -7.93617614 87.44481866 -8.87109375 90.3515625 C-7.73671875 90.87105469 -6.60234375 91.39054687 -5.43359375 91.92578125 C-3.91263169 92.62993035 -2.39180561 93.33437323 -0.87109375 94.0390625 C-0.12730469 94.37873047 0.61648437 94.71839844 1.3828125 95.06835938 C6.55435551 97.47425112 11.36297519 100.21945624 16.12890625 103.3515625 C16.49016602 102.84931152 16.85142578 102.34706055 17.22363281 101.82958984 C53.54651099 51.49842542 53.54651099 51.49842542 76.12890625 44.3515625 C81.32155262 43.62277003 84.74687648 44.75989603 89.33203125 46.98828125 C92.6352613 49.49442753 93.95255767 52.2435056 94.59765625 56.296875 C94.67873773 64.54691513 93.14332173 70.19098934 89.12890625 77.3515625 C88.63261719 78.30675781 88.13632813 79.26195313 87.625 80.24609375 C83.11740551 88.5335506 77.36917575 95.35448471 71.12890625 102.3515625 C70.36320313 103.228125 69.5975 104.1046875 68.80859375 105.0078125 C46.55883899 130.20825159 46.55883899 130.20825159 37.12890625 133.3515625 C37.61746094 134.55683594 38.10601562 135.76210937 38.609375 137.00390625 C40.69023397 143.26362975 40.53094605 149.37765705 40.44140625 155.9140625 C40.44462891 157.09419922 40.44785156 158.27433594 40.45117188 159.49023438 C40.41241917 165.78578711 39.99683674 171.3310216 38.12890625 177.3515625 C36.80890625 176.6915625 35.48890625 176.0315625 34.12890625 175.3515625 C34.28746094 174.08699219 34.44601563 172.82242188 34.609375 171.51953125 C36.79092072 151.69187683 35.6787682 134.12617982 23.19921875 117.83203125 C11.81339131 104.25662161 -6.89287074 93.13368722 -24.796875 91.48046875 C-25.48136719 91.43792969 -26.16585937 91.39539063 -26.87109375 91.3515625 C-27.60714844 91.29871094 -28.34320313 91.24585937 -29.1015625 91.19140625 C-48.94310092 90.44694396 -64.81069758 100.11748191 -78.890625 113.08984375 C-87.71061487 121.62025803 -97.21436973 132.02171662 -98.43359375 144.7890625 C-98.57796875 145.9646875 -98.72234375 147.1403125 -98.87109375 148.3515625 C-100.35609375 149.3415625 -100.35609375 149.3415625 -101.87109375 150.3515625 C-102.98596146 137.5512295 -99.38604551 129.52895414 -91.49609375 119.6015625 C-89.97414723 117.8343854 -88.43348813 116.08308204 -86.87109375 114.3515625 C-86.24460937 113.65417969 -85.618125 112.95679687 -84.97265625 112.23828125 C-74.96761108 101.70554382 -62.72819628 92.97059668 -48.87109375 88.3515625 C-48.72599365 87.56322021 -48.58089355 86.77487793 -48.43139648 85.96264648 C-35.83966578 18.35383295 -35.83966578 18.35383295 -15.49609375 2.6015625 C-10.72187871 -0.65983543 -5.66032695 -1.96161644 0 0 Z M-20.234375 13.40625 C-31.75836477 29.98115948 -37.23760709 50.53963602 -41.24609375 70.1015625 C-41.41383301 70.91069092 -41.58157227 71.71981934 -41.75439453 72.5534668 C-42.72302532 77.57164304 -43.0227561 82.24170794 -42.87109375 87.3515625 C-42.31236572 87.34108887 -41.7536377 87.33061523 -41.17797852 87.31982422 C-38.59656445 87.27772871 -36.01522299 87.25206907 -33.43359375 87.2265625 C-32.55509766 87.20980469 -31.67660156 87.19304687 -30.77148438 87.17578125 C-24.82349637 87.13188466 -19.63291815 87.86274928 -13.87109375 89.3515625 C-9.68101608 80.00035573 -6.05000063 70.58007378 -2.82861328 60.85546875 C-2.11807877 58.71749051 -1.39156648 56.58538011 -0.6640625 54.453125 C3.11650806 43.22103739 5.48421659 32.36911413 5.50390625 20.4765625 C5.54064453 19.27386719 5.54064453 19.27386719 5.578125 18.046875 C5.60466821 12.66745115 4.72554606 9.59741527 1.12890625 5.3515625 C-7.76270277 -0.57617685 -14.78065314 6.35697646 -20.234375 13.40625 Z M41.12890625 77.8203125 C39.42517165 79.97660161 37.66710176 82.0104155 35.81640625 84.0390625 C32.25764073 88.06896483 29.00457411 92.32265631 25.75390625 96.6015625 C25.21725342 97.29983154 24.68060059 97.99810059 24.12768555 98.7175293 C23.625354 99.3856665 23.12302246 100.05380371 22.60546875 100.7421875 C22.15252441 101.34063477 21.69958008 101.93908203 21.23291016 102.55566406 C20.05054351 104.47903625 19.55796787 106.14617365 19.12890625 108.3515625 C19.80953125 108.8053125 20.49015625 109.2590625 21.19140625 109.7265625 C27.21061387 115.10542889 31.29920423 122.30491078 35.12890625 129.3515625 C40.51611705 127.84355948 43.84174555 124.19797087 47.75390625 120.4140625 C48.46248779 119.73674072 49.17106934 119.05941895 49.90112305 118.36157227 C51.32645604 116.99505587 52.74831127 115.62490191 54.16650391 114.25097656 C55.84606779 112.62532254 57.53729088 111.01353832 59.234375 109.40625 C72.01191018 97.05278886 89.83324761 78.03903134 90.75390625 59.4765625 C90.54311755 55.88287229 90.13915414 54.36958464 88.31640625 51.1640625 C71.01967111 41.32866409 50.62374611 65.74830182 41.12890625 77.8203125 Z " fill="#424345" transform="translate(147.87109375,13.6484375)"/>
<path d="M0 0 C16.68957333 3.05975511 30.92805366 11.22183996 43 23 C40.95128138 25.14269654 38.84781422 26.90406584 36.4375 28.625 C23.689306 38.10442631 8.81626722 51.52710285 2.93359375 66.76171875 C2 69 2 69 -1 71 C-3.32387947 71.39387788 -5.65793749 71.73486085 -8 72 C-8.25030977 74.41619823 -8.25030977 74.41619823 -8 77 C-4.75073878 79.16617415 -4.4014758 79.21335669 -0.8125 78.625 C1.0746875 78.315625 1.0746875 78.315625 3 78 C3.495 78.99 3.495 78.99 4 80 C1.59330476 83.30920595 -1.18271531 83.51434916 -5.01953125 84.33203125 C-7.32599311 84.94670974 -7.32599311 84.94670974 -9.5625 87.5625 C-12 90 -12 90 -15.4375 91.125 C-19.21974582 90.99228962 -21.0867787 90.29575719 -23.83984375 87.66015625 C-25.93034588 84.66869698 -26.11626952 81.57528775 -26 78 C-25.814375 77.0925 -25.62875 76.185 -25.4375 75.25 C-24.88382177 72.40251195 -25.69815839 71.52710431 -27 69 C-27.125 65.75 -27.125 65.75 -27 63 C-25.68 63 -24.36 63 -23 63 C-22.690625 64.134375 -22.38125 65.26875 -22.0625 66.4375 C-21.37075469 69.78775099 -21.37075469 69.78775099 -20 71 C-17.66702567 71.04092937 -15.33294775 71.04241723 -13 71 C-13.33 70.154375 -13.66 69.30875 -14 68.4375 C-16.07507174 61.30444089 -14.85533331 57.3437509 -11.5 51.04296875 C-3.5775978 34.97122053 -0.81537906 17.74152379 0 0 Z " fill="#C7C9CA" transform="translate(126,105)"/>
<path d="M0 0 C3.51546132 2.18739815 5.57975528 4.1288905 7 8 C7.22333516 10.95846579 7.32440542 13.79269482 7.3125 16.75 C7.32861328 17.50410156 7.34472656 18.25820313 7.36132812 19.03515625 C7.37216493 32.27773373 3.74410985 44.90754639 -0.65136719 57.2746582 C-1.37954158 59.32528968 -2.08940358 61.38159806 -2.796875 63.43945312 C-5.47391083 71.14794701 -8.44718159 78.64556908 -12 86 C-13.98 85.67 -15.96 85.34 -18 85 C-17.4237322 80.8304199 -16.46142611 77.25361098 -14.85546875 73.3671875 C-14.42556641 72.31273438 -13.99566406 71.25828125 -13.55273438 70.171875 C-13.10220703 69.08390625 -12.65167969 67.9959375 -12.1875 66.875 C-3.06633921 45.69669017 -3.06633921 45.69669017 -2 23 C-3.68563109 20.5741858 -3.68563109 20.5741858 -6 19 C-10.26772685 18.92240497 -12.28813391 19.3733807 -15.51171875 22.2109375 C-28.62944328 36.91432104 -31.82219662 61.04513218 -34.4921875 79.87890625 C-35 83 -35 83 -36 84 C-37.66617115 84.04063832 -39.33388095 84.042721 -41 84 C-41.67984855 59.01556562 -31.97764934 26.02328902 -15.71484375 6.7734375 C-10.94810474 1.84382586 -7.20775897 -1.20129316 0 0 Z " fill="#F5F7F7" transform="translate(146,17)"/>
<path d="M0 0 C3.1875 1.8125 3.1875 1.8125 5 5 C7.37764441 14.25001386 2.70283324 22.24485122 -1.80273438 30.00976562 C-8.79265569 41.629227 -17.5606134 51.32333324 -27 61 C-27.99618961 62.0363662 -28.99228909 63.07281904 -29.98828125 64.109375 C-41.91232798 76.32013856 -41.91232798 76.32013856 -48 80 C-49.485 79.505 -49.485 79.505 -51 79 C-51.375 76.8671875 -51.375 76.8671875 -51 74 C-49.04813693 71.81605565 -47.20701315 70.01142117 -45 68.125 C-44.40131104 67.59253662 -43.80262207 67.06007324 -43.18579102 66.51147461 C-40.74416401 64.34762762 -38.26883023 62.22725368 -35.77734375 60.12109375 C-25.4033737 51.33295352 -10.4713553 38.00885572 -8.734375 23.83203125 C-8.59580809 19.44712717 -8.59580809 19.44712717 -11 16 C-15.32191908 15.25662992 -18.99864316 15.50997431 -22.9375 17.4375 C-23.948125 18.283125 -24.95875 19.12875 -26 20 C-26.71542969 20.58652344 -27.43085938 21.17304687 -28.16796875 21.77734375 C-40.45929669 32.270894 -49.83612034 45.13906607 -58.86181641 58.43457031 C-60 60 -60 60 -62 62 C-63.32 61.01 -64.64 60.02 -66 59 C-64.56574779 54.85576597 -62.53644234 51.78535768 -59.875 48.3125 C-59.47539062 47.78994629 -59.07578125 47.26739258 -58.6640625 46.72900391 C-57.44975534 45.14723433 -56.22495629 43.57353709 -55 42 C-53.98292969 40.68708984 -53.98292969 40.68708984 -52.9453125 39.34765625 C-48.83571126 34.12400648 -44.50751277 29.15102932 -40.0234375 24.24609375 C-38.42588072 22.47274404 -36.91616508 20.68316018 -35.4375 18.8125 C-27.28991974 9.41144586 -13.33775857 -3.52790542 0 0 Z " fill="#F7F8F8" transform="translate(233,63)"/>
<path d="M0 0 C5.24831454 2.69357942 9.4804133 6.64587826 12 12 C12.82964418 16.71860129 12.48822378 20.67421661 10.25 24.9375 C7.14157973 29.16840537 7.14157973 29.16840537 4 30 C0.75 30.125 0.75 30.125 -2 30 C-2 28.68 -2 27.36 -2 26 C-1.34 26 -0.68 26 0 26 C0 24.68 0 23.36 0 22 C-3.24983135 23.08784968 -3.24983135 23.08784968 -6 25 C-8.9375 25.1875 -8.9375 25.1875 -12 25 C-12.66 24.34 -13.32 23.68 -14 23 C-13.67800066 19.02867481 -12.16420003 16.29334787 -10 13 C-12.9719385 14.12451727 -15.33440687 15.22293791 -18 17 C-20 15 -20 15 -20.4375 12.25 C-19.87222936 8.0508467 -18.06594915 5.74962106 -15 3 C-10.27558442 -0.22119244 -5.57838183 -1.16098302 0 0 Z " fill="#F7F7F7" transform="translate(152,230)"/>
<path d="M0 0 C4.05523038 2.85709413 7.51585617 6.46921234 9.75 10.9375 C10.32221531 15.62778939 10.13044806 19.1180734 8.125 23.4375 C5.32411193 26.38580323 3.74721657 26.75580834 -0.25 26.9375 C0.08 23.9675 0.41 20.9975 0.75 17.9375 C-0.24 18.2675 -1.23 18.5975 -2.25 18.9375 C-3.96567661 22.44044871 -3.96567661 22.44044871 -5.25 25.9375 C-11.125 25.0625 -11.125 25.0625 -12.25 23.9375 C-12.32205511 22.25141034 -12.33386068 20.56249341 -12.3125 18.875 C-12.30347656 17.95589844 -12.29445313 17.03679687 -12.28515625 16.08984375 C-12.27355469 15.37957031 -12.26195312 14.66929687 -12.25 13.9375 C-13.24 13.9375 -14.23 13.9375 -15.25 13.9375 C-15.58 15.9175 -15.91 17.8975 -16.25 19.9375 C-18.79843589 19.5859916 -20.09721664 19.06920979 -22.0625 17.375 C-23.80941782 13.78922132 -23.33641374 10.64756597 -22.25 6.9375 C-16.98069343 -1.53102842 -9.13912612 -2.98779123 0 0 Z " fill="#F7F7F7" transform="translate(45.25,172.0625)"/>
<path d="M0 0 C5.22874797 0.64212694 9.50204389 3.10349084 13.5625 6.4375 C14.44921875 8.50390625 14.44921875 8.50390625 14.5625 10.4375 C12.26348139 13.79023547 10.8337975 14.3832405 6.8125 15.1875 C5.74 15.27 4.6675 15.3525 3.5625 15.4375 C3.31219023 17.85369823 3.31219023 17.85369823 3.5625 20.4375 C6.81176122 22.60367415 7.1610242 22.65085669 10.75 22.0625 C12.008125 21.85625 13.26625 21.65 14.5625 21.4375 C14.8925 22.0975 15.2225 22.7575 15.5625 23.4375 C13.15580476 26.74670595 10.37978469 26.95184916 6.54296875 27.76953125 C4.23650689 28.38420974 4.23650689 28.38420974 2 31 C-0.4375 33.4375 -0.4375 33.4375 -3.875 34.5625 C-7.65724582 34.42978962 -9.5242787 33.73325719 -12.27734375 31.09765625 C-14.36784588 28.10619698 -14.55376952 25.01278775 -14.4375 21.4375 C-14.1590625 20.07625 -14.1590625 20.07625 -13.875 18.6875 C-13.32132177 15.84001195 -14.13565839 14.96460431 -15.4375 12.4375 C-15.5625 9.1875 -15.5625 9.1875 -15.4375 6.4375 C-14.1175 6.4375 -12.7975 6.4375 -11.4375 6.4375 C-11.128125 7.571875 -10.81875 8.70625 -10.5 9.875 C-9.80825469 13.22525099 -9.80825469 13.22525099 -8.4375 14.4375 C-6.10452567 14.47842937 -3.77044775 14.47991723 -1.4375 14.4375 C-1.7675 13.591875 -2.0975 12.74625 -2.4375 11.875 C-3.50411611 8.20850711 -3.66094058 5.23598978 -3.4375 1.4375 C-2.4375 0.4375 -2.4375 0.4375 0 0 Z " fill="#414141" transform="translate(114.4375,161.5625)"/>
<path d="M0 0 C1.32 0 2.64 0 4 0 C4.309375 1.134375 4.61875 2.26875 4.9375 3.4375 C5.62924531 6.78775099 5.62924531 6.78775099 7 8 C9.33297433 8.04092937 11.66705225 8.04241723 14 8 C14.33 7.01 14.66 6.02 15 5 C15.33 5.99 15.66 6.98 16 8 C15.67 8.66 15.34 9.32 15 10 C15.35044071 11.63538997 15.7537217 13.25971507 16.1875 14.875 C17.20111329 19.63967201 17.20111329 19.63967201 15.5 22.6875 C12.2291905 24.40467499 10.49315573 24.00913388 7 23 C6.67 22.67 6.34 22.34 6 22 C5.34 22.99 4.68 23.98 4 25 C1.96626548 22.55951858 0.96910368 20.79686759 1.09375 17.58203125 C1.31879764 15.85069882 1.57676263 14.1232527 1.87109375 12.40234375 C2.02106952 9.6073408 1.32778017 8.41188533 0 6 C-0.125 2.75 -0.125 2.75 0 0 Z " fill="#494948" transform="translate(99,168)"/>
<path d="M0 0 C1.32 0 2.64 0 4 0 C3.67 3.3 3.34 6.6 3 10 C3.99 10 4.98 10 6 10 C6.66 9.34 7.32 8.68 8 8 C9.32 8 10.64 8 12 8 C11.42655063 10.86724686 11.1385485 11.8614515 9 14 C9.32041397 16.60280568 9.32041397 16.60280568 10 19 C12.91652174 19.16681109 12.91652174 19.16681109 16 19 C16.66 18.34 17.32 17.68 18 17 C19.32 17 20.64 17 22 17 C22 21 22 21 20.6875 22.484375 C19.125 23.65625 17.5625 24.828125 16 26 C15.67 25.34 15.34 24.68 15 24 C14.0925 24.0825 13.185 24.165 12.25 24.25 C9 24 9 24 6.6875 22.25 C5 20 5 20 4.5 17.875 C4.335 17.25625 4.17 16.6375 4 16 C2.06669397 14.90833725 2.06669397 14.90833725 0 14 C-1.99825961 11.00261059 -2.27550398 10.36652492 -2.25 7 C-2.25515625 6.319375 -2.2603125 5.63875 -2.265625 4.9375 C-2 3 -2 3 0 0 Z " fill="#474748" transform="translate(130,235)"/>
<path d="M0 0 C6.13062246 -0.50045898 9.06840864 0.61557456 14 4 C16.1519437 7.22791555 16.20086443 8.28400809 16 12 C12.44946796 12.96160243 10.25662991 13.5437124 6.82421875 12.05859375 C3.37997725 9.94923196 1.27272034 8.40908051 -1 5 C-0.625 2.3125 -0.625 2.3125 0 0 Z " fill="#FBBBB7" transform="translate(148,186)"/>
<path d="M0 0 C6.41195352 -0.66791182 9.89062492 1.19912341 15 5 C16 6 16 6 16.125 8.5 C16 11 16 11 15 12 C8.90913193 12.51617526 5.86756232 12.05630193 1 8 C-1 5 -1 5 -0.625 2.3125 C-0.41875 1.549375 -0.2125 0.78625 0 0 Z " fill="#FDBDBA" transform="translate(72,145)"/>
<path d="M0 0 C3 2 3 2 3.6875 4.921875 C4.69166052 17.22284134 2.18811812 28.14577367 -1 40 C-1.99 40 -2.98 40 -4 40 C-4.99 40.495 -4.99 40.495 -6 41 C-5.731875 39.845 -5.46375 38.69 -5.1875 37.5 C-2.43664582 24.94431557 -0.49565941 12.85296119 0 0 Z " fill="#484A4B" transform="translate(153,28)"/>
<path d="M0 0 C3.22477077 0.58632196 4.9783575 2.04707321 7.19140625 4.3984375 C8.70359295 7.42281089 8.36403994 10.06085284 8.19140625 13.3984375 C7.19140625 15.8359375 7.19140625 15.8359375 6.19140625 17.3984375 C4.87140625 17.0684375 3.55140625 16.7384375 2.19140625 16.3984375 C2.33449219 15.45871094 2.33449219 15.45871094 2.48046875 14.5 C2.64675781 13.27410156 2.64675781 13.27410156 2.81640625 12.0234375 C2.93242187 11.21132812 3.0484375 10.39921875 3.16796875 9.5625 C3.17570313 8.84835938 3.1834375 8.13421875 3.19140625 7.3984375 C1.31001866 5.10913514 1.31001866 5.10913514 -1.74609375 5.0234375 C-4.91041473 5.07882181 -4.91041473 5.07882181 -6.68359375 7.3984375 C-7.05484375 8.0584375 -7.42609375 8.7184375 -7.80859375 9.3984375 C-9.12859375 9.0684375 -10.44859375 8.7384375 -11.80859375 8.3984375 C-11.44374949 5.84452766 -10.74914408 4.309263 -9.30859375 2.1484375 C-6.08566145 -0.10761511 -3.86578904 -0.16558569 0 0 Z " fill="#494A4C" transform="translate(151.80859375,165.6015625)"/>
<path d="M0 0 C-1.47257926 3.1857284 -3.2944232 5.86645591 -5.375 8.6875 C-9.51933256 14.56727182 -12.86921923 20.17767307 -13.5625 27.4375 C-13.7790625 29.2009375 -13.7790625 29.2009375 -14 31 C-14.99 31.66 -15.98 32.32 -17 33 C-17.99272999 21.60198897 -15.44348343 13.3539517 -8.3125 4.375 C-4.05263158 0 -4.05263158 0 0 0 Z " fill="#383A3B" transform="translate(63,131)"/>
<path d="M0 0 C2.85746217 1.26998319 4.48137263 2.2838003 6.3125 4.8125 C7.49165774 8.56436554 7.5310148 11.73883985 6 15.375 C5.67 15.91125 5.34 16.4475 5 17 C4.01 17 3.02 17 2 17 C2.02320312 16.30132812 2.04640625 15.60265625 2.0703125 14.8828125 C2.08835937 13.97273437 2.10640625 13.06265625 2.125 12.125 C2.15980469 10.76761719 2.15980469 10.76761719 2.1953125 9.3828125 C2.24324836 6.81193006 2.24324836 6.81193006 0 5 C-2.95769177 4.49989476 -2.95769177 4.49989476 -6 5 C-7.70532323 6.94009522 -7.70532323 6.94009522 -9 9 C-9.99 9 -10.98 9 -12 9 C-11.52 3.6 -11.52 3.6 -9.375 1.125 C-6.04574611 -0.452015 -3.64527529 -0.38371319 0 0 Z " fill="#414141" transform="translate(100,137)"/>
<path d="M0 0 C0.33 0 0.66 0 1 0 C1.33 2.97 1.66 5.94 2 9 C2.66 8.67 3.32 8.34 4 8 C4.17015625 8.66386719 4.3403125 9.32773438 4.515625 10.01171875 C5.93131569 15.16995346 7.1901501 19.05877597 11 23 C10.34 23.66 9.68 24.32 9 25 C6.5355763 23.90470058 4.89285647 22.89610324 2.9375 21 C-1.36701124 18.06926894 -5.90715927 17.67785621 -11 17 C-11 16.67 -11 16.34 -11 16 C-9.7625 15.855625 -8.525 15.71125 -7.25 15.5625 C-4.43495501 15.21311498 -1.7298503 14.79620634 1 14 C0.67 13.01 0.34 12.02 0 11 C-0.0685495 9.10529184 -0.08480372 7.2083166 -0.0625 5.3125 C-0.05347656 4.31863281 -0.04445313 3.32476562 -0.03515625 2.30078125 C-0.02355469 1.54152344 -0.01195312 0.78226563 0 0 Z " fill="#494C4E" transform="translate(45,154)"/>
<path d="M0 0 C3.89830508 4.74576271 3.89830508 4.74576271 4 8 C2.4375 10.3125 2.4375 10.3125 0 12 C-3.125 11.9375 -3.125 11.9375 -6 11 C-8 8 -8 8 -7.625 4.8125 C-7.41875 3.884375 -7.2125 2.95625 -7 2 C-4.69 1.34 -2.38 0.68 0 0 Z " fill="#EEDCDF" transform="translate(112,180)"/>
<path d="M0 0 C1.32 0.33 2.64 0.66 4 1 C3.28621973 9.13709505 1.67226118 17.01731928 0 25 C-0.99 25 -1.98 25 -3 25 C-3.46112386 16.39235455 -1.72848437 8.38520694 0 0 Z " fill="#3D3E40" transform="translate(104,76)"/>
<path d="M0 0 C0.99 0 1.98 0 3 0 C2.67 2.97 2.34 5.94 2 9 C4.97 8.34 7.94 7.68 11 7 C10.01 8.65 9.02 10.3 8 12 C2.39 11.67 -3.22 11.34 -9 11 C-9.33 10.34 -9.66 9.68 -10 9 C-8.906875 8.814375 -7.81375 8.62875 -6.6875 8.4375 C-3.0509502 7.42483472 -3.0509502 7.42483472 -1.8671875 5.30859375 C-0.94073788 3.16349857 -0.94073788 3.16349857 0 0 Z " fill="#3D3F3F" transform="translate(43,190)"/>
<path d="M0 0 C6.09086767 0.43506198 12.03215721 1.74039384 18 3 C18.33 4.32 18.66 5.64 19 7 C17.35 7.99 15.7 8.98 14 10 C13.01 9.34 12.02 8.68 11 8 C11.33 7.34 11.66 6.68 12 6 C11.32453125 5.87882813 10.6490625 5.75765625 9.953125 5.6328125 C8.61507812 5.38144531 8.61507812 5.38144531 7.25 5.125 C6.36828125 4.96257812 5.4865625 4.80015625 4.578125 4.6328125 C2.13052256 4.03203736 0.19400143 3.22002883 -2 2 C-1.34 1.34 -0.68 0.68 0 0 Z " fill="#373839" transform="translate(120,226)"/>
</svg>