<?xml version="1.0" encoding="UTF-8"?>
<svg version="1.1" xmlns="http://www.w3.org/2000/svg" width="243" height="231">

<path d="M0 0 C5.75091577 3.18289678 10.3496164 7.73376888 12.75 13.9375 C12.98046875 17.14453125 12.98046875 17.14453125 12.9375 20.75 C12.92783203 22.52310547 12.92783203 22.52310547 12.91796875 24.33203125 C12.75 27.9375 12.75 27.9375 11.9375 31.61328125 C11.36503039 35.01922728 11.36503039 35.01922728 13.70703125 37.2734375 C14.64933594 37.94632813 15.59164062 38.61921875 16.5625 39.3125 C17.57699219 40.07691406 18.59148437 40.84132812 19.63671875 41.62890625 C20.66410156 42.39074219 21.69148437 43.15257812 22.75 43.9375 C32.86949575 52.17360363 44.29008371 63.53681317 46.75 76.9375 C46.81831987 79.3532906 46.83487642 81.77084713 46.8125 84.1875 C46.80347656 85.45078125 46.79445312 86.7140625 46.78515625 88.015625 C46.76775391 89.46195313 46.76775391 89.46195313 46.75 90.9375 C47.58402344 90.86789063 48.41804687 90.79828125 49.27734375 90.7265625 C56.40282785 90.3837557 61.22920354 90.68737575 66.9375 95.16796875 C70.7799702 98.9193459 72.91947888 102.57837565 73.1875 108.0625 C72.59882894 113.2764437 71.24658044 115.59845435 67.375 119.0625 C64.89576923 120.83337912 62.38546924 122.41170202 59.75 123.9375 C58.76 124.5975 57.77 125.2575 56.75 125.9375 C54.55859375 126.31640625 54.55859375 126.31640625 52.1875 126.5 C48.84342768 126.75210438 48.84342768 126.75210438 45.75 127.9375 C42.05756845 128.34777017 40.23042871 128.22138969 37 126.3125 C34.45516655 123.62628692 33.63959814 121.49589258 32.75 117.9375 C32.32332031 118.31519531 31.89664063 118.69289063 31.45703125 119.08203125 C30.08498023 120.29000194 28.70803871 121.49242529 27.328125 122.69140625 C25.51552701 124.27056359 23.71441127 125.86295015 21.921875 127.46484375 C6.74683265 140.85358354 -10.76571391 151.08895758 -29.375 158.9375 C-30.08591797 159.24075195 -30.79683594 159.54400391 -31.52929688 159.85644531 C-35.22404853 161.36086333 -38.24698679 162.31132225 -42.25 161.9375 C-41.8890625 162.43378906 -41.528125 162.93007812 -41.15625 163.44140625 C-37.99974534 168.06217834 -36.37880501 171.16583318 -37.25 176.9375 C-38.3125 179.3125 -38.3125 179.3125 -40.25 181.9375 C-40.74886719 182.68773437 -41.24773437 183.43796875 -41.76171875 184.2109375 C-46.34814072 190.74530048 -46.34814072 190.74530048 -51.0625 191.75 C-52.114375 191.811875 -53.16625 191.87375 -54.25 191.9375 C-55.6262794 193.85514174 -55.6262794 193.85514174 -56.25 195.9375 C-60.04775841 197.83637921 -64.13434222 197.68143814 -68.25 196.9375 C-72.6924263 194.26911192 -76.38067319 190.84109643 -78.25 185.9375 C-79.38781825 177.66136936 -78.05126746 171.72786398 -73.25 164.9375 C-74.12011719 164.57398438 -74.12011719 164.57398438 -75.0078125 164.203125 C-87.54645529 158.82350928 -94.93088343 151.52607587 -100.25 138.9375 C-104.01383992 129.32444939 -106.39364583 119.21374999 -107.25 108.9375 C-108.1575 109.06125 -109.065 109.185 -110 109.3125 C-116.04289351 109.27557804 -121.36842703 106.27076243 -126.25 102.9375 C-132.05086063 96.40332302 -133.67538882 90.94747426 -133.58984375 82.3359375 C-132.91085479 75.54604793 -129.68004577 70.97607552 -124.6875 66.5 C-119.72434591 62.47675038 -116.28310147 61.67945826 -109.8125 61.75 C-108.51441406 61.75644531 -107.21632813 61.76289062 -105.87890625 61.76953125 C-102.86277159 61.90913705 -100.17528065 62.23295264 -97.25 62.9375 C-96.58355469 62.10347656 -95.91710937 61.26945312 -95.23046875 60.41015625 C-80.29299872 42.03147889 -59.23372579 27.21057317 -35.25 23.9375 C-34.940625 22.019375 -34.940625 22.019375 -34.625 20.0625 C-32.83575894 12.22685812 -29.26517573 5.93805937 -22.5625 1.375 C-15.2481434 -3.0843573 -7.83249094 -3.61408432 0 0 Z " fill="#F5AC55" transform="translate(154.25,25.0625)"/>
<path d="M0 0 C5.75091577 3.18289678 10.3496164 7.73376888 12.75 13.9375 C12.98046875 17.14453125 12.98046875 17.14453125 12.9375 20.75 C12.92783203 22.52310547 12.92783203 22.52310547 12.91796875 24.33203125 C12.75 27.9375 12.75 27.9375 11.9375 31.61328125 C11.36503039 35.01922728 11.36503039 35.01922728 13.70703125 37.2734375 C14.64933594 37.94632813 15.59164062 38.61921875 16.5625 39.3125 C17.57699219 40.07691406 18.59148437 40.84132812 19.63671875 41.62890625 C20.66410156 42.39074219 21.69148437 43.15257812 22.75 43.9375 C32.86949575 52.17360363 44.29008371 63.53681317 46.75 76.9375 C46.81831987 79.3532906 46.83487642 81.77084713 46.8125 84.1875 C46.80347656 85.45078125 46.79445312 86.7140625 46.78515625 88.015625 C46.76775391 89.46195313 46.76775391 89.46195313 46.75 90.9375 C47.58402344 90.86789063 48.41804687 90.79828125 49.27734375 90.7265625 C56.40282785 90.3837557 61.22920354 90.68737575 66.9375 95.16796875 C70.7799702 98.9193459 72.91947888 102.57837565 73.1875 108.0625 C72.59882894 113.2764437 71.24658044 115.59845435 67.375 119.0625 C64.89576923 120.83337912 62.38546924 122.41170202 59.75 123.9375 C58.76 124.5975 57.77 125.2575 56.75 125.9375 C54.55859375 126.31640625 54.55859375 126.31640625 52.1875 126.5 C48.84342768 126.75210438 48.84342768 126.75210438 45.75 127.9375 C42.05756845 128.34777017 40.23042871 128.22138969 37 126.3125 C34.45516655 123.62628692 33.63959814 121.49589258 32.75 117.9375 C32.32332031 118.31519531 31.89664063 118.69289063 31.45703125 119.08203125 C30.08498023 120.29000194 28.70803871 121.49242529 27.328125 122.69140625 C25.51552701 124.27056359 23.71441127 125.86295015 21.921875 127.46484375 C6.74683265 140.85358354 -10.76571391 151.08895758 -29.375 158.9375 C-30.08591797 159.24075195 -30.79683594 159.54400391 -31.52929688 159.85644531 C-35.22404853 161.36086333 -38.24698679 162.31132225 -42.25 161.9375 C-41.8890625 162.43378906 -41.528125 162.93007812 -41.15625 163.44140625 C-37.99974534 168.06217834 -36.37880501 171.16583318 -37.25 176.9375 C-38.3125 179.3125 -38.3125 179.3125 -40.25 181.9375 C-40.74886719 182.68773437 -41.24773437 183.43796875 -41.76171875 184.2109375 C-46.34814072 190.74530048 -46.34814072 190.74530048 -51.0625 191.75 C-52.114375 191.811875 -53.16625 191.87375 -54.25 191.9375 C-55.6262794 193.85514174 -55.6262794 193.85514174 -56.25 195.9375 C-60.04775841 197.83637921 -64.13434222 197.68143814 -68.25 196.9375 C-72.6924263 194.26911192 -76.38067319 190.84109643 -78.25 185.9375 C-79.38781825 177.66136936 -78.05126746 171.72786398 -73.25 164.9375 C-74.12011719 164.57398438 -74.12011719 164.57398438 -75.0078125 164.203125 C-87.54645529 158.82350928 -94.93088343 151.52607587 -100.25 138.9375 C-104.01383992 129.32444939 -106.39364583 119.21374999 -107.25 108.9375 C-108.1575 109.06125 -109.065 109.185 -110 109.3125 C-116.04289351 109.27557804 -121.36842703 106.27076243 -126.25 102.9375 C-132.05086063 96.40332302 -133.67538882 90.94747426 -133.58984375 82.3359375 C-132.91085479 75.54604793 -129.68004577 70.97607552 -124.6875 66.5 C-119.72434591 62.47675038 -116.28310147 61.67945826 -109.8125 61.75 C-108.51441406 61.75644531 -107.21632813 61.76289062 -105.87890625 61.76953125 C-102.86277159 61.90913705 -100.17528065 62.23295264 -97.25 62.9375 C-96.58355469 62.10347656 -95.91710937 61.26945312 -95.23046875 60.41015625 C-80.29299872 42.03147889 -59.23372579 27.21057317 -35.25 23.9375 C-34.940625 22.019375 -34.940625 22.019375 -34.625 20.0625 C-32.83575894 12.22685812 -29.26517573 5.93805937 -22.5625 1.375 C-15.2481434 -3.0843573 -7.83249094 -3.61408432 0 0 Z M-24.96875 8.92578125 C-28.61337777 13.90276116 -30.02657873 17.793415 -30.25 23.9375 C-29.63125 24.246875 -29.0125 24.55625 -28.375 24.875 C-27 25.5625 -25.625 26.25 -24.25 26.9375 C-25.0028125 26.95167969 -25.755625 26.96585938 -26.53125 26.98046875 C-39.24887575 27.55152719 -51.51280037 30.92849468 -62.25 37.9375 C-61.59 39.9175 -60.93 41.8975 -60.25 43.9375 C-56.32105148 43.9375 -54.4893772 43.38437501 -50.9375 41.9375 C-46.4027954 40.21115133 -43.06226295 39.50974329 -38.25 39.9375 C-39.38725722 44.26665914 -41.23469195 45.95457209 -45.046875 48.22070312 C-45.65015625 48.56037109 -46.2534375 48.90003906 -46.875 49.25 C-47.48601562 49.60900391 -48.09703125 49.96800781 -48.7265625 50.33789062 C-50.22703582 51.21707421 -51.73757515 52.07903914 -53.25 52.9375 C-52.755 55.4125 -52.755 55.4125 -52.25 57.9375 C-51.66992188 57.7209375 -51.08984375 57.504375 -50.4921875 57.28125 C-45.92446113 55.65314951 -42.1719536 54.55888818 -37.25 54.9375 C-36.755 56.9175 -36.755 56.9175 -36.25 58.9375 C-36.78109375 59.25203125 -37.3121875 59.5665625 -37.859375 59.890625 C-42.43060792 62.66005808 -46.17686012 65.37075539 -49.5625 69.5625 C-51.25 70.9375 -51.25 70.9375 -54.625 71.875 C-58.30082031 72.69969003 -58.30082031 72.69969003 -60.875 75.0625 C-63.61325456 77.22427991 -64.85317957 77.32570805 -68.25 76.9375 C-68.13759583 72.3289291 -66.86543768 70.20840202 -63.6875 67.0625 C-62.55330262 66.00817568 -61.41107206 64.96215367 -60.25 63.9375 C-61.24 62.6175 -62.23 61.2975 -63.25 59.9375 C-66.82190523 61.01989553 -69.05922242 62.56602365 -71.75 65.0625 C-74.88771658 67.89125105 -74.88771658 67.89125105 -78.1875 68.3125 C-79.2084375 68.126875 -79.2084375 68.126875 -80.25 67.9375 C-80.05310797 60.0618187 -73.59455068 55.06826865 -68.25 49.9375 C-69.24 48.2875 -70.23 46.6375 -71.25 44.9375 C-75.4950338 45.43275394 -78.01783995 48.06709128 -81 50.875 C-81.79398193 51.6187085 -81.79398193 51.6187085 -82.60400391 52.37744141 C-93.36803663 62.64432039 -102.5103719 75.4631438 -103.42089844 90.81982422 C-103.48223045 94.06991809 -103.47374303 97.31207281 -103.4375 100.5625 C-103.43685547 101.66851562 -103.43621094 102.77453125 -103.43554688 103.9140625 C-103.40774011 109.05522389 -103.1898694 113.87017419 -102.25 118.9375 C-99.16882573 119.77895956 -96.08474379 120.60923062 -93 121.4375 C-91.69095703 121.79521484 -91.69095703 121.79521484 -90.35546875 122.16015625 C-89.08896484 122.49853516 -89.08896484 122.49853516 -87.796875 122.84375 C-87.02182617 123.05322266 -86.24677734 123.26269531 -85.44824219 123.47851562 C-82.97168143 124.07375892 -82.97168143 124.07375892 -79.25 123.9375 C-79.625 125.875 -79.625 125.875 -80.25 127.9375 C-83.421738 129.523369 -86.88513822 129.31616445 -90.375 129.5 C-91.12910156 129.54318359 -91.88320312 129.58636719 -92.66015625 129.63085938 C-94.52321888 129.7369832 -96.38658524 129.83775001 -98.25 129.9375 C-97.59 132.9075 -96.93 135.8775 -96.25 138.9375 C-87.1780648 139.03221858 -78.26814321 139.08266104 -69.25 137.9375 C-70.25 140.9375 -70.25 140.9375 -72.21875 142.21875 C-77.79020536 144.90130258 -83.31940822 147.17551259 -89.25 148.9375 C-87.82231271 152.42740227 -86.1953649 154.00268177 -83.0625 156.0625 C-82.32644531 156.56007812 -81.59039062 157.05765625 -80.83203125 157.5703125 C-74.55808926 160.89236953 -68.49952615 161.29610633 -61.5625 161.25 C-60.22977051 161.24154053 -60.22977051 161.24154053 -58.87011719 161.23291016 C-51.94584739 161.10543089 -45.81492837 160.22095335 -39.25 157.9375 C-38.03441406 157.5353125 -36.81882812 157.133125 -35.56640625 156.71875 C-15.2399457 149.72140426 3.71388646 138.21496328 19.75 123.9375 C20.27287598 123.47585449 20.79575195 123.01420898 21.33447266 122.53857422 C27.35123904 117.15421671 32.41346011 112.60440836 34.04296875 104.390625 C35.19513805 100.39304313 37.71089954 97.42274828 40.2265625 94.1640625 C43.69839955 89.08983913 43.26418834 82.87637529 42.75 76.9375 C41.43796267 73.3811007 41.43796267 73.3811007 39.75 70.9375 C38.780625 71.80375 37.81125 72.67 36.8125 73.5625 C31.99925078 77.68954261 26.81116229 81.91711257 20.75 83.9375 C22.9955087 77.35457548 26.01736578 71.98813263 29.87304688 66.23046875 C32.23120123 62.75266356 32.23120123 62.75266356 32.32421875 58.734375 C30.34521533 56.47546291 28.16393515 54.71618906 25.75 52.9375 C25.34007812 53.76894531 24.93015625 54.60039063 24.5078125 55.45703125 C23.96898437 56.54371094 23.43015625 57.63039062 22.875 58.75 C22.34132813 59.82894531 21.80765625 60.90789062 21.2578125 62.01953125 C19.75 64.9375 19.75 64.9375 17.75 67.9375 C15.125 68.625 15.125 68.625 12.75 68.9375 C13.22831397 66.68731858 13.70768264 64.43736133 14.1875 62.1875 C14.45433594 60.93453125 14.72117187 59.6815625 14.99609375 58.390625 C15.54179421 55.89114726 16.12071589 53.41599621 16.75 50.9375 C17.66788912 47.56716865 17.66788912 47.56716865 16.75 43.9375 C9.6552684 36.88873859 -2.15494028 30.39636635 -12.25 29.9375 C-12.25 29.2775 -12.25 28.6175 -12.25 27.9375 C-11.53972656 27.94910156 -10.82945312 27.96070312 -10.09765625 27.97265625 C-9.17855469 27.98167969 -8.25945312 27.99070312 -7.3125 28 C-6.39597656 28.01160156 -5.47945313 28.02320312 -4.53515625 28.03515625 C-2.28406673 28.19699049 -2.28406673 28.19699049 -1.25 26.9375 C-1.17851801 25.58506083 -1.16600546 24.22915633 -1.1875 22.875 C-1.208125 21.575625 -1.22875 20.27625 -1.25 18.9375 C-0.59 18.6075 0.07 18.2775 0.75 17.9375 C2.01237731 20.46225462 1.84856404 22.24950466 1.8125 25.0625 C1.80347656 25.97257812 1.79445313 26.88265625 1.78515625 27.8203125 C1.77355469 28.51898438 1.76195312 29.21765625 1.75 29.9375 C3.4 30.5975 5.05 31.2575 6.75 31.9375 C9.91927454 26.73988976 9.33575995 20.80974349 8.75 14.9375 C6.4644807 10.01484305 3.03305294 7.12700751 -1.25 3.9375 C-9.94007002 1.04080999 -18.8839248 1.88674482 -24.96875 8.92578125 Z " fill="#444545" transform="translate(154.25,25.0625)"/>
<path d="M0 0 C2.84612102 2.59863224 3.87804578 4.52716824 4.203125 8.453125 C4.35545302 17.54202998 1.86212021 23.16516076 -3.5 30.3984375 C-4.88475758 32.80012643 -5.54090858 34.72130904 -6.296875 37.359375 C-7.89457007 42.37023389 -10.46320511 45.31767622 -14.25 48.875 C-14.86915283 49.47159424 -15.48830566 50.06818848 -16.1262207 50.68286133 C-37.78609357 71.09988758 -69.46921372 90.06871076 -99.8125 90.25 C-100.66392578 90.270625 -101.51535156 90.29125 -102.39257812 90.3125 C-110.60029507 90.36250894 -117.59834908 88.71598656 -124.0625 83.4375 C-125.19365234 82.53837891 -125.19365234 82.53837891 -126.34765625 81.62109375 C-127.16556641 80.81865234 -127.16556641 80.81865234 -128 80 C-128 79.34 -128 78.68 -128 78 C-126.87980469 77.59007812 -125.75960937 77.18015625 -124.60546875 76.7578125 C-123.132737 76.21374599 -121.66008489 75.66946389 -120.1875 75.125 C-119.44951172 74.85558594 -118.71152344 74.58617187 -117.95117188 74.30859375 C-117.23896484 74.04433594 -116.52675781 73.78007812 -115.79296875 73.5078125 C-115.1383667 73.26691895 -114.48376465 73.02602539 -113.80932617 72.77783203 C-111.72104063 71.94473832 -111.72104063 71.94473832 -109 70 C-108.505 68.515 -108.505 68.515 -108 67 C-110.31 67 -112.62 67 -115 67 C-114.27941406 66.28714844 -113.55882813 65.57429688 -112.81640625 64.83984375 C-110.12921687 62.13029219 -107.5176346 59.37392951 -104.9375 56.5625 C-103.68259766 55.20318359 -103.68259766 55.20318359 -102.40234375 53.81640625 C-100.00241719 51.00283381 -98.02936652 48.08709694 -96 45 C-91.8556361 39.81535043 -87.77902591 35.3229399 -82 32 C-81.071875 32.9590625 -81.071875 32.9590625 -80.125 33.9375 C-77.19201036 36.78422524 -75.3443876 37.16556124 -71.375 37.5625 C-70.55773437 37.64628906 -69.74046875 37.73007813 -68.8984375 37.81640625 C-67.95871094 37.90728516 -67.95871094 37.90728516 -67 38 C-66.64084507 44.34507042 -66.64084507 44.34507042 -68.0625 46.9375 C-71.09413555 48.60000982 -73.61030622 48.29734156 -77 48 C-79.4375 47 -79.4375 47 -81 46 C-81 47.32 -81 48.64 -81 50 C-76.93927701 51.35357433 -73.24133038 51.66968374 -69 51 C-65.3983609 48.29877067 -63.88952754 46.33644676 -63 42 C-62.24074219 41.93941406 -61.48148437 41.87882812 -60.69921875 41.81640625 C-59.70535156 41.73261719 -58.71148437 41.64882812 -57.6875 41.5625 C-56.70136719 41.48128906 -55.71523437 41.40007812 -54.69921875 41.31640625 C-51.90624401 41.08187441 -51.90624401 41.08187441 -49 40 C-48.34 36.04 -47.68 32.08 -47 28 C-48.32 28 -49.64 28 -51 28 C-50.9175 29.258125 -50.835 30.51625 -50.75 31.8125 C-50.7706637 35.69727609 -50.7706637 35.69727609 -52.5625 38.0625 C-55.96015441 39.36929016 -58.49547526 38.74134177 -62 38 C-62.96631842 35.39094027 -63.12728443 34.31396825 -62.0625 31.6875 C-60.34437555 27.34165579 -60.53549649 23.39351053 -62 19 C-53.92055415 15.51698801 -46.06241407 13.17619449 -37.4765625 11.38867188 C-32.53066311 10.35792269 -27.73902107 9.13070961 -22.9453125 7.515625 C-21 7 -21 7 -17 7 C-17.33 8.98 -17.66 10.96 -18 13 C-10.75758636 9.91526826 -5.6549405 5.42318064 0 0 Z " fill="#FCFCFB" transform="translate(193,96)"/>
<path d="M0 0 C5.75091577 3.18289678 10.3496164 7.73376888 12.75 13.9375 C12.98046875 17.14453125 12.98046875 17.14453125 12.9375 20.75 C12.93105469 21.93207031 12.92460937 23.11414063 12.91796875 24.33203125 C12.75 27.9375 12.75 27.9375 11.9375 31.61328125 C11.36503039 35.01922728 11.36503039 35.01922728 13.70703125 37.2734375 C15.12048828 38.28277344 15.12048828 38.28277344 16.5625 39.3125 C17.57699219 40.07691406 18.59148437 40.84132812 19.63671875 41.62890625 C20.66410156 42.39074219 21.69148438 43.15257812 22.75 43.9375 C30.33118245 50.10770906 36.27281315 56.83884897 41.75 64.9375 C42.22824219 65.62585938 42.70648438 66.31421875 43.19921875 67.0234375 C46.74499658 72.92062589 46.11665812 79.2561743 45.75 85.9375 C43.22524538 83.41274538 42.70692129 81.20252003 41.625 77.8125 C41.27179688 76.71679688 40.91859375 75.62109375 40.5546875 74.4921875 C40.15636719 73.22761719 40.15636719 73.22761719 39.75 71.9375 C38.780625 72.80375 37.81125 73.67 36.8125 74.5625 C25.85267857 83.9375 25.85267857 83.9375 20.75 83.9375 C21.22985567 77.21952056 24.84580428 72.52031794 28.41992188 67.0390625 C28.87302734 66.31203125 29.32613281 65.585 29.79296875 64.8359375 C30.21602295 64.18286621 30.63907715 63.52979492 31.07495117 62.85693359 C31.99146888 60.89913125 31.99146888 60.89913125 30.97387695 58.80322266 C29.73524935 56.91501357 28.41781055 55.45369141 26.75 53.9375 C26.35167969 54.68515625 25.95335937 55.4328125 25.54296875 56.203125 C25.01316406 57.18796875 24.48335938 58.1728125 23.9375 59.1875 C23.41542969 60.16203125 22.89335937 61.1365625 22.35546875 62.140625 C20.94756023 64.59333182 19.62570199 66.8223467 17.75 68.9375 C15.0625 69.1875 15.0625 69.1875 12.75 68.9375 C12.3826698 63.42754693 13.42476308 59.03546808 15.09375 53.78125 C15.9107172 50.24105882 16.25069862 47.55730474 15.75 43.9375 C13.64825973 41.91241895 12.09437664 40.72584619 9.625 39.3125 C8.69276611 38.74511108 8.69276611 38.74511108 7.74169922 38.16625977 C1.41295113 34.46005718 -5.24611627 32.05569584 -12.25 29.9375 C-12.25 29.2775 -12.25 28.6175 -12.25 27.9375 C-5.625 26.9375 -5.625 26.9375 -2.25 26.9375 C-2.311875 25.65875 -2.37375 24.38 -2.4375 23.0625 C-2.54296875 20.8828125 -2.54296875 20.8828125 -2.25 18.9375 C-1.26 18.2775 -0.27 17.6175 0.75 16.9375 C2.95914 20.25121 2.97481553 21.2821021 2.875 25.125 C2.85695313 26.02605469 2.83890625 26.92710938 2.8203125 27.85546875 C2.79710937 28.54253906 2.77390625 29.22960937 2.75 29.9375 C4.73 30.4325 4.73 30.4325 6.75 30.9375 C8.83582943 24.68001171 8.8846802 17.33293597 6.0625 11.375 C2.11541346 7.21455743 -1.03407138 4.22430065 -6.921875 3.69921875 C-13.65597125 3.53684841 -17.95218135 3.61275008 -23.25 7.9375 C-27.29152317 12.82190768 -29.04051584 17.7801261 -30.25 23.9375 C-28.27 23.9375 -26.29 23.9375 -24.25 23.9375 C-24.25 24.5975 -24.25 25.2575 -24.25 25.9375 C-23.59 26.5975 -22.93 27.2575 -22.25 27.9375 C-23.59578125 27.95876953 -23.59578125 27.95876953 -24.96875 27.98046875 C-37.95019833 28.47666047 -49.84349279 31.52133969 -61.25 37.9375 C-60.59 39.9175 -59.93 41.8975 -59.25 43.9375 C-58.610625 43.669375 -57.97125 43.40125 -57.3125 43.125 C-55.7965625 42.5371875 -55.7965625 42.5371875 -54.25 41.9375 C-53.56035156 41.66164062 -52.87070313 41.38578125 -52.16015625 41.1015625 C-47.00324154 39.17984044 -43.6243464 38.67967425 -38.25 39.9375 C-38.25 42.125 -38.25 42.125 -39.25 44.9375 C-42.60023492 47.62238453 -46.42325517 49.52412758 -50.25 51.4375 C-50.91 51.9325 -51.57 52.4275 -52.25 52.9375 C-52.66780879 55.56444422 -52.66780879 55.56444422 -52.25 57.9375 C-51.66992188 57.64875 -51.08984375 57.36 -50.4921875 57.0625 C-42.3471251 53.19157925 -42.3471251 53.19157925 -37.25 53.9375 C-36.59 54.5975 -35.93 55.2575 -35.25 55.9375 C-35.3828125 57.90234375 -35.3828125 57.90234375 -36.25 59.9375 C-37.9921875 61.31640625 -37.9921875 61.31640625 -40.125 62.5 C-43.81130816 64.5743985 -46.27248085 66.78542386 -49 70 C-51.87835142 72.47858039 -54.61727675 72.91778821 -58.25 73.9375 C-59.11625 74.63875 -59.9825 75.34 -60.875 76.0625 C-63.61325456 78.22427991 -64.85317957 78.32570805 -68.25 77.9375 C-68.96484375 75.6953125 -68.96484375 75.6953125 -69.25 72.9375 C-67.81640625 70.8046875 -67.81640625 70.8046875 -65.8125 68.8125 C-62.72715615 65.96174437 -62.72715615 65.96174437 -62.25 61.9375 C-67.54190249 61.9375 -69.0921251 64.03911921 -72.93359375 67.40625 C-75.62362921 69.18448592 -77.09000029 69.24959874 -80.25 68.9375 C-81 66.8125 -81 66.8125 -81.25 63.9375 C-78.47462212 58.38674424 -73.99267781 54.82833762 -69.25 50.9375 C-69.91 48.9575 -70.57 46.9775 -71.25 44.9375 C-72.57 44.9375 -73.89 44.9375 -75.25 44.9375 C-75.25 42.9375 -75.25 42.9375 -73.15234375 40.5625 C-63.04337796 31.41953228 -48.6586829 25.54789807 -35.25 23.9375 C-35.04375 22.65875 -34.8375 21.38 -34.625 20.0625 C-32.83575894 12.22685812 -29.26517573 5.93805937 -22.5625 1.375 C-15.2481434 -3.0843573 -7.83249094 -3.61408432 0 0 Z " fill="#3F3F3E" transform="translate(154.25,25.0625)"/>
<path d="M0 0 C0.66 0.33 1.32 0.66 2 1 C0.625 2.5 0.625 2.5 -1 4 C-1.66 4 -2.32 4 -3 4 C-2.505 5.485 -2.505 5.485 -2 7 C-2.845625 7.73863281 -3.69125 8.47726563 -4.5625 9.23828125 C-12.77408878 16.53531781 -20.25175503 23.89536045 -25 34 C-25.99 34 -26.98 34 -28 34 C-28.268125 34.53625 -28.53625 35.0725 -28.8125 35.625 C-29.65050772 37.30101545 -30.55337388 38.94534704 -31.5 40.5625 C-33.54234185 45.24286674 -34.2396806 49.97294703 -35 55 C-36.258125 55.04125 -37.51625 55.0825 -38.8125 55.125 C-39.52019531 55.14820313 -40.22789063 55.17140625 -40.95703125 55.1953125 C-43 55 -43 55 -46 53 C-42.57611908 56.82669043 -39.99275057 58.72278474 -35 60 C-35 61.98 -35 63.96 -35 66 C-42.72006084 65.80342438 -48.16016961 63.94235013 -53.609375 58.34765625 C-58.06416658 52.42878991 -57.48835009 46.11905903 -57 39 C-59.68092691 41.68092691 -59.38670257 43.39167363 -59.625 47.125 C-59.69976562 48.22070312 -59.77453125 49.31640625 -59.8515625 50.4453125 C-59.92503906 51.70988281 -59.92503906 51.70988281 -60 53 C-60.33 53 -60.66 53 -61 53 C-61.59580227 44.43368736 -61.5405795 37.87031859 -56 31 C-51.746187 26.5942651 -47.7697008 23.18258363 -41.50390625 22.76953125 C-39.55291016 22.79080078 -39.55291016 22.79080078 -37.5625 22.8125 C-36.26441406 22.81894531 -34.96632813 22.82539062 -33.62890625 22.83203125 C-30.61277159 22.97163705 -27.92528065 23.29545264 -25 24 C-24.33355469 23.16597656 -23.66710938 22.33195312 -22.98046875 21.47265625 C-16.13675154 13.06204845 -9.08512695 6.0567513 0 0 Z " fill="#444543" transform="translate(82,64)"/>
<path d="M0 0 C0.66 0 1.32 0 2 0 C1.52229477 1.93786085 1.04278429 3.87527674 0.5625 5.8125 C0.29566406 6.89144531 0.02882812 7.97039062 -0.24609375 9.08203125 C-0.76077412 11.0740843 -1.34937175 13.04811524 -2 15 C-2.08397157 17.35680213 -2.10728187 19.71594081 -2.09765625 22.07421875 C-2.09553383 23.09996758 -2.09553383 23.09996758 -2.09336853 24.1464386 C-2.08777876 26.32683722 -2.07522822 28.50713251 -2.0625 30.6875 C-2.05748367 32.16731622 -2.052921 33.64713406 -2.04882812 35.12695312 C-2.03781271 38.75133557 -2.02055512 42.3756577 -2 46 C-1.36078613 46.12552246 -0.72157227 46.25104492 -0.06298828 46.38037109 C5.01933306 47.38621757 10.07978765 48.44420562 15.125 49.625 C16.24132812 49.88539063 17.35765625 50.14578125 18.5078125 50.4140625 C19.33023438 50.60742188 20.15265625 50.80078125 21 51 C20.625 53.4375 20.625 53.4375 20 56 C16.81175432 57.59412284 13.37103338 57.10174735 9.875 57.0625 C8.74384766 57.05573242 8.74384766 57.05573242 7.58984375 57.04882812 C5.72652873 57.03703499 3.86325445 57.01909942 2 57 C2.66 59.97 3.32 62.94 4 66 C12.91 65.67 21.82 65.34 31 65 C30 69 30 69 28.03125 70.4140625 C22.3739785 73.12047325 17.18060642 74.9034408 11 76 C11.7425 76.7425 12.485 77.485 13.25 78.25 C15.5 80.5 17.75 82.75 20 85 C18.02 85.99 18.02 85.99 16 87 C1.36596585 75.44877 -3.74608198 59.77154536 -6.47265625 41.90234375 C-6.69352117 39.93944563 -6.85672134 37.97008162 -7 36 C-7.9075 36.12375 -8.815 36.2475 -9.75 36.375 C-16.58013563 36.33326801 -23.15429132 32.58172828 -28.10546875 28.08984375 C-32.50001196 22.50532922 -32.64685053 16.96813176 -32.6015625 10.0390625 C-32 7 -32 7 -29.9609375 5.0859375 C-29.31382813 4.72757812 -28.66671875 4.36921875 -28 4 C-28.05800781 4.9178125 -28.11601562 5.835625 -28.17578125 6.78125 C-28.6179507 16.15037844 -28.6179507 16.15037844 -24.75390625 24.3828125 C-19.88875847 28.86871714 -13.57701097 31.48076229 -7 32 C-7.33 30.02 -7.66 28.04 -8 26 C-9.093125 25.731875 -10.18625 25.46375 -11.3125 25.1875 C-16.13357731 23.63494968 -16.13357731 23.63494968 -18 21 C-18 20.34 -18 19.68 -18 19 C-14.37 19.66 -10.74 20.32 -7 21 C-6.9175 19.329375 -6.835 17.65875 -6.75 15.9375 C-6.27088366 10.54223338 -5.04775527 7.43309858 -2 3 C-1.34 2.01 -0.68 1.02 0 0 Z " fill="#3E3F3F" transform="translate(54,98)"/>
<path d="M0 0 C2.1484375 0.15234375 2.1484375 0.15234375 4.9609375 2.65234375 C7.84765497 6.42311844 7.54566212 9.54453814 7.1484375 14.15234375 C5.1684375 15.14234375 5.1684375 15.14234375 3.1484375 16.15234375 C2.7153125 15.51296875 2.2821875 14.87359375 1.8359375 14.21484375 C0.23604573 11.88488372 0.23604573 11.88488372 -2.8515625 11.15234375 C-2.8515625 12.47234375 -2.8515625 13.79234375 -2.8515625 15.15234375 C-1.5315625 15.81234375 -0.2115625 16.47234375 1.1484375 17.15234375 C1.3984375 19.46484375 1.3984375 19.46484375 1.1484375 22.15234375 C-0.5390625 24.02734375 -0.5390625 24.02734375 -2.8515625 25.15234375 C-6.83170934 24.94823366 -9.56467292 23.31229976 -12.8515625 21.15234375 C-12.3565625 21.91546875 -11.8615625 22.67859375 -11.3515625 23.46484375 C-9.8515625 26.15234375 -9.8515625 26.15234375 -9.8515625 29.15234375 C-12.75452055 30.60382278 -14.62418029 30.524734 -17.8515625 30.15234375 C-21.58364884 27.56859167 -24.16667398 25.37222363 -25.8515625 21.15234375 C-26.77387557 15.52091301 -26.4348289 10.19284867 -23.9140625 5.02734375 C-22.17304524 2.6681392 -20.85474501 1.40745667 -17.97949219 0.67626953 C-11.97805023 -0.17029876 -6.0239944 0.32182984 0 0 Z " fill="#F0AB58" transform="translate(105.8515625,188.84765625)"/>
<path d="M0 0 C3.5625 1.6875 3.5625 1.6875 6 4 C6.78375 4.7425 7.5675 5.485 8.375 6.25 C10.70326438 10.19013972 10.50558942 12.44969524 10 17 C8.5 19.5 8.5 19.5 7 21 C5.68 20.67 4.36 20.34 3 20 C3 18.68 3 17.36 3 16 C1.68 16 0.36 16 -1 16 C-0.90460938 16.62648437 -0.80921875 17.25296875 -0.7109375 17.8984375 C-0.60007813 18.71570313 -0.48921875 19.53296875 -0.375 20.375 C-0.20097656 21.59316406 -0.20097656 21.59316406 -0.0234375 22.8359375 C-0.01570313 23.55007812 -0.00796875 24.26421875 0 25 C-2 27 -2 27 -5.625 27.125 C-6.73875 27.08375 -7.8525 27.0425 -9 27 C-9.33 24.69 -9.66 22.38 -10 20 C-11.32 20 -12.64 20 -14 20 C-13.67 22.64 -13.34 25.28 -13 28 C-14.65 28.33 -16.3 28.66 -18 29 C-21.16698665 26.14971202 -22.7680521 24.40318895 -23.47265625 20.140625 C-23.64935364 13.96389882 -23.36004163 9.70425545 -19 5 C-18.195625 4.05125 -17.39125 3.1025 -16.5625 2.125 C-11.89245581 -1.56564874 -5.57882057 -0.767532 0 0 Z " fill="#F4AE5A" transform="translate(213,120)"/>
<path d="M0 0 C2.125 0.8125 2.125 0.8125 3.125 1.8125 C3.39096016 6.42247613 2.99024514 9.61569843 1.125 13.8125 C1.125 14.8025 1.125 15.7925 1.125 16.8125 C6.40699593 18.01238045 6.40699593 18.01238045 11.125 15.8125 C11.70248803 13.84888136 11.70248803 13.84888136 11.8125 11.6875 C11.915625 10.40875 12.01875 9.13 12.125 7.8125 C13.445 7.8125 14.765 7.8125 16.125 7.8125 C16.58272706 12.48131599 16.74994858 15.7565524 14.3125 19.875 C9.66188468 22.70184461 5.43336275 22.23084733 0.125 21.8125 C0.0321875 23.17375 0.0321875 23.17375 -0.0625 24.5625 C-0.875 27.8125 -0.875 27.8125 -2.875 30.1875 C-6.87162547 32.35233879 -10.40684509 32.53209049 -14.875 31.8125 C-15.865 31.1525 -16.855 30.4925 -17.875 29.8125 C-17.875 28.4925 -17.875 27.1725 -17.875 25.8125 C-17.359375 25.9775 -16.84375 26.1425 -16.3125 26.3125 C-13.09817332 26.97184906 -10.14653915 26.99425217 -6.875 26.8125 C-4.11276722 24.05026722 -4.29643709 21.60543383 -3.875 17.8125 C-4.76251953 17.86470703 -4.76251953 17.86470703 -5.66796875 17.91796875 C-9.49385731 18.04903508 -12.33119389 18.02336359 -15.9375 16.625 C-17.875 14.8125 -17.875 14.8125 -18.21875 12.390625 C-17.875 9.8125 -17.875 9.8125 -16.37109375 8.15234375 C-15.69175781 7.68957031 -15.01242188 7.22679688 -14.3125 6.75 C-13.58289063 6.25242187 -12.85328125 5.75484375 -12.1015625 5.2421875 C-11.36679688 4.77039063 -10.63203125 4.29859375 -9.875 3.8125 C-9.24335937 3.38195312 -8.61171875 2.95140625 -7.9609375 2.5078125 C-5.14478665 0.70894962 -3.37651387 -0.22020743 0 0 Z " fill="#3D3D3D" transform="translate(129.875,116.1875)"/>
<path d="M0 0 C-1.875 4.875 -1.875 4.875 -3 6 C-4.74812173 6.13198906 -6.49881855 6.23055969 -8.25 6.3125 C-13.00980116 6.70760671 -15.71786792 7.29436701 -19 11 C-21.52481154 14.48664451 -21.43474022 17.79751118 -21 22 C-17.70810561 28.01622078 -14.426105 30.00076733 -8 32 C-8 33.98 -8 35.96 -8 38 C-14.78596047 37.82720934 -19.8147143 36.52021644 -25 32 C-28.81424552 27.91727603 -30.33158585 24.07486889 -30.625 18.5 C-30.23542121 11.08775101 -26.90632521 6.43010971 -21.5625 1.5 C-15.55816262 -2.74444539 -6.75717756 -2.25239252 0 0 Z " fill="#EEAA58" transform="translate(55,92)"/>
<path d="M0 0 C3.95478251 2.91900614 7.41112181 6.50974362 9.625 10.9375 C9.7479938 13.05985807 9.80055682 15.18661463 9.8125 17.3125 C9.82667969 18.45460938 9.84085938 19.59671875 9.85546875 20.7734375 C9.63670034 23.77686816 9.19580637 25.41675934 7.625 27.9375 C5.15 26.9475 5.15 26.9475 2.625 25.9375 C2.67140625 25.28523438 2.7178125 24.63296875 2.765625 23.9609375 C3.00894092 18.06921639 2.7507931 14.52171456 -1.375 9.9375 C-5.61312077 7.34309483 -9.54427933 7.52343823 -14.375 7.9375 C-17.4225453 8.71559667 -18.80114292 9.13410009 -20.625 11.6875 C-21.53329245 14.41237736 -21.98741231 17.09519026 -22.375 19.9375 C-24.685 19.9375 -26.995 19.9375 -29.375 19.9375 C-29.09571948 12.25728581 -26.45096081 6.81590149 -20.84375 1.48046875 C-14.83951837 -2.68423113 -6.68646272 -2.10499752 0 0 Z " fill="#F1AA59" transform="translate(153.375,29.0625)"/>
<path d="M0 0 C5.03054575 2.78858599 9.72289572 6.45026571 11.40234375 12.15234375 C11.51707031 12.74144531 11.63179688 13.33054687 11.75 13.9375 C8.92512445 13.85441543 7.23883268 13.44680735 5.2578125 11.3828125 C4.27160404 10.15132939 3.30926354 8.90024783 2.375 7.62890625 C-0.37584817 4.76564361 -3.24041002 4.05578983 -7.1171875 3.6015625 C-13.76424749 3.51523705 -18.02282921 3.67042181 -23.25 7.9375 C-27.29152317 12.82190768 -29.04051584 17.7801261 -30.25 23.9375 C-28.27 23.9375 -26.29 23.9375 -24.25 23.9375 C-24.25 24.5975 -24.25 25.2575 -24.25 25.9375 C-23.59 26.5975 -22.93 27.2575 -22.25 27.9375 C-23.59578125 27.95876953 -23.59578125 27.95876953 -24.96875 27.98046875 C-38.38815273 28.49340047 -50.13859646 32.09807329 -62.25 37.9375 C-62.91 36.6175 -63.57 35.2975 -64.25 33.9375 C-61.70976352 32.80917643 -59.16791162 31.68476572 -56.625 30.5625 C-55.91214844 30.24539062 -55.19929688 29.92828125 -54.46484375 29.6015625 C-48.10595879 26.80131958 -42.19784046 24.77124085 -35.25 23.9375 C-35.04375 22.65875 -34.8375 21.38 -34.625 20.0625 C-32.83575894 12.22685812 -29.26517573 5.93805937 -22.5625 1.375 C-15.2481434 -3.0843573 -7.83249094 -3.61408432 0 0 Z " fill="#474848" transform="translate(154.25,25.0625)"/>
<path d="M0 0 C0.33 0 0.66 0 1 0 C1 4.62 1 9.24 1 14 C2.959375 13.87625 4.91875 13.7525 6.9375 13.625 C13.86902869 13.63255068 18.04177363 15.15931779 23 20 C25.86590088 23.3409551 27.2224336 26.7244105 27.4375 31.125 C26.84882894 36.3389437 25.49658044 38.66095435 21.625 42.125 C18.53143496 44.33468931 15.40040245 46.29979878 12 48 C9.6505947 47.39239518 7.31470912 46.72870472 5 46 C5 45.67 5 45.34 5 45 C7.31 44.34 9.62 43.68 12 43 C12 40.03 12 37.06 12 34 C13.32 34 14.64 34 16 34 C16.33 35.32 16.66 36.64 17 38 C18.97536745 37.65213292 18.97536745 37.65213292 21 37 C22.61622481 33.76755038 22.58454308 30.49426864 22 27 C19.92013025 23.18967862 17.03857456 20.57568287 13 19 C7.84844012 18.29965722 2.39175107 17.76812821 -2.3359375 20.203125 C-6.1603964 23.39824257 -8.61035561 26.57391229 -9.4140625 31.578125 C-9.48367187 32.45984375 -9.55328125 33.3415625 -9.625 34.25 C-9.73714844 35.58804688 -9.73714844 35.58804688 -9.8515625 36.953125 C-9.90054688 37.62859375 -9.94953125 38.3040625 -10 39 C-10.33 39 -10.66 39 -11 39 C-11 36.69 -11 34.38 -11 32 C-12.485 32.495 -12.485 32.495 -14 33 C-13.1172864 27.70371838 -11.81013103 24.50293342 -8.5 20.25 C-4.4363759 14.82620234 -3.56006246 9.65217044 -3 3 C-2.34 4.32 -1.68 5.64 -1 7 C-0.67 4.69 -0.34 2.38 0 0 Z " fill="#434442" transform="translate(200,102)"/>
<path d="M0 0 C3.5625 1.8125 3.5625 1.8125 6 4 C6 7 6 7 5 10 C4.96079185 11.99961564 4.95556653 14.00049364 5 16 C-3.72875722 18.40507325 -11.66653515 18.72480626 -20 15 C-19.34 14.34 -18.68 13.68 -18 13 C-17.731875 11.906875 -17.46375 10.81375 -17.1875 9.6875 C-15.85051404 5.53580675 -14.28663411 3.79363899 -11 1 C-7.53002704 -0.73498648 -3.79374461 -0.4702464 0 0 Z " fill="#464541" transform="translate(148,36)"/>
<path d="M0 0 C2.5625 1.5625 2.5625 1.5625 4 4 C4.61089984 8.81083621 4.73857492 10.8428993 2.125 14.9375 C-1.07158658 18.04006933 -3.47158275 18.47161173 -7.95703125 18.40625 C-10 18 -10 18 -13 15.4375 C-15.31814592 11.45318669 -15.74130123 9.53017418 -15 5 C-10.76286697 -1.49693731 -7.17724161 -1.60627432 0 0 Z " fill="#3D3D3F" transform="translate(148,88)"/>
<path d="M0 0 C3.0216321 0.73251687 4.80104733 2.27158096 6.93359375 4.46875 C8.48383839 7.56923928 8.2235139 10.04769218 7.93359375 13.46875 C6.1379697 16.22204021 4.88104453 17.99502461 1.93359375 19.46875 C-1.97734616 19.8377066 -4.40187214 19.80101705 -7.94140625 18.03125 C-10.53434322 14.90447306 -11.10164788 12.73932007 -11.3203125 8.73046875 C-11.04280145 6.25848568 -10.55041057 4.93490532 -9.12890625 2.90625 C-5.72524666 0.19721481 -4.2145452 -0.31868017 0 0 Z " fill="#3E3E3F" transform="translate(90.06640625,119.53125)"/>
<path d="M0 0 C0.33 0 0.66 0 1 0 C1 1.65 1 3.3 1 5 C3.31 5 5.62 5 8 5 C8 6.32 8 7.64 8 9 C4.21517165 12.58024303 1.17428417 14.13664875 -4.01171875 14.09765625 C-5.14770508 14.09282227 -5.14770508 14.09282227 -6.30664062 14.08789062 C-7.09232422 14.07951172 -7.87800781 14.07113281 -8.6875 14.0625 C-9.48478516 14.05798828 -10.28207031 14.05347656 -11.10351562 14.04882812 C-13.06904257 14.0370585 -15.03453085 14.01912348 -17 14 C-17.66 11.03 -18.32 8.06 -19 5 C-17.86820313 4.93941406 -16.73640625 4.87882813 -15.5703125 4.81640625 C-14.08852855 4.73200083 -12.6067584 4.64735283 -11.125 4.5625 C-10.37863281 4.52318359 -9.63226563 4.48386719 -8.86328125 4.44335938 C-4.80013136 4.28426376 -4.80013136 4.28426376 -1 3 C-0.67 2.01 -0.34 1.02 0 0 Z " fill="#ECA556" transform="translate(75,150)"/>
<path d="M0 0 C0.66 0 1.32 0 2 0 C2.14695313 0.88751953 2.14695313 0.88751953 2.296875 1.79296875 C3.23886401 6.77089345 4.11247438 10.45549134 8 14 C9.32 14 10.64 14 12 14 C12 11.36 12 8.72 12 6 C13.32 6 14.64 6 16 6 C16.185625 7.11375 16.37125 8.2275 16.5625 9.375 C17.036875 10.57125 17.51125 11.7675 18 13 C21.51400668 14.54086322 21.51400668 14.54086322 25 15 C24.67 15.66 24.34 16.32 24 17 C22.00390625 17.37890625 22.00390625 17.37890625 19.5625 17.5625 C16.15371795 17.8061175 16.15371795 17.8061175 13 19 C9.30756845 19.41027017 7.48042871 19.28388969 4.25 17.375 C1.70516655 14.68878692 0.88959814 12.55839258 0 9 C-1.98 10.32 -3.96 11.64 -6 13 C-5.42685824 8.2715805 -3.42313355 3.42313355 0 0 Z " fill="#353839" transform="translate(187,134)"/>
<path d="M0 0 C-0.165 1.093125 -0.33 2.18625 -0.5 3.3125 C-1.06718184 6.87525873 -1.06718184 6.87525873 -1 10 C-3.24623699 10.69969682 -5.49716414 11.38435043 -7.75 12.0625 C-9.00296875 12.44535156 -10.2559375 12.82820313 -11.546875 13.22265625 C-14.6738008 13.92656828 -16.09466046 14.16653785 -19 13 C-18.01 13 -17.02 13 -16 13 C-16.33 12.154375 -16.66 11.30875 -17 10.4375 C-17 7 -17 7 -15.35546875 5.078125 C-9.73122689 0.17338075 -7.54418797 -1.25736466 0 0 Z " fill="#F6BAB4" transform="translate(170,95)"/>
<path d="M0 0 C0.77734375 1.671875 0.77734375 1.671875 1 4 C-0.87109375 6.578125 -0.87109375 6.578125 -3.4375 9.25 C-4.28183594 10.14203125 -5.12617187 11.0340625 -5.99609375 11.953125 C-6.65738281 12.62859375 -7.31867188 13.3040625 -8 14 C-12.455 13.01 -12.455 13.01 -17 12 C-17.05674705 9.16264752 -17.04311767 7.57953237 -16 5 C-11.08519746 0.05362485 -6.72079614 -2.00193928 0 0 Z " fill="#F5B7B1" transform="translate(93,143)"/>
<path d="M0 0 C2.75329021 1.79562405 4.52627461 3.05254922 6 6 C6.039992 7.99960012 6.04346799 10.00047242 6 12 C2.67424363 13.12865035 0.87796829 12.8691177 -2.375 11.625 C-5.91146429 10.34485838 -9.25309231 9.48037278 -13 9 C-10.64205563 1.92616688 -7.72336467 -1.08398101 0 0 Z " fill="#EEB2BA" transform="translate(147,40)"/>
<path d="M0 0 C-0.31146472 1.89600369 -0.62421717 3.79179587 -0.9375 5.6875 C-1.11152344 6.74324219 -1.28554688 7.79898438 -1.46484375 8.88671875 C-1.93167121 11.60249604 -2.44422616 14.30124235 -3 17 C-6.73574522 16.7452901 -8.57829882 16.36763692 -11.4375 13.875 C-13.51584245 10.05084989 -13.20334424 8.13649584 -12 4 C-8.82369593 -0.95503435 -5.39263415 -0.35950894 0 0 Z " fill="#F2B1BC" transform="translate(50,102)"/>
<path d="M0 0 C0.33 0 0.66 0 1 0 C1 4.62 1 9.24 1 14 C1.99 14 2.98 14 4 14 C4 14.66 4 15.32 4 16 C5.98 16.33 7.96 16.66 10 17 C10 17.33 10 17.66 10 18 C9.35933594 18.00257812 8.71867187 18.00515625 8.05859375 18.0078125 C2.11733535 18.27344253 -1.26256451 19.2527346 -5.625 23.33203125 C-8.48653923 26.80327345 -9.27363317 29.79935345 -9.625 34.25 C-9.73714844 35.58804688 -9.73714844 35.58804688 -9.8515625 36.953125 C-9.90054688 37.62859375 -9.94953125 38.3040625 -10 39 C-10.33 39 -10.66 39 -11 39 C-11 36.69 -11 34.38 -11 32 C-12.485 32.495 -12.485 32.495 -14 33 C-13.1172864 27.70371838 -11.81013103 24.50293342 -8.5 20.25 C-4.4363759 14.82620234 -3.56006246 9.65217044 -3 3 C-2.34 4.32 -1.68 5.64 -1 7 C-0.67 4.69 -0.34 2.38 0 0 Z " fill="#59524B" transform="translate(200,102)"/>
<path d="M0 0 C0.66 0 1.32 0 2 0 C1.54166667 1.83333333 1.08333333 3.66666667 0.625 5.5 C0.21507812 7.14935547 0.21507812 7.14935547 -0.203125 8.83203125 C-0.65920227 10.64516197 -1.12299001 12.45648216 -1.609375 14.26171875 C-2.76396868 18.57395121 -3.31880873 22.67729717 -3.55859375 27.1171875 C-4 29 -4 29 -7 31 C-7.33 29.35 -7.66 27.7 -8 26 C-9.093125 25.731875 -10.18625 25.46375 -11.3125 25.1875 C-16.13357731 23.63494968 -16.13357731 23.63494968 -18 21 C-18 20.34 -18 19.68 -18 19 C-14.37 19.66 -10.74 20.32 -7 21 C-6.9175 19.329375 -6.835 17.65875 -6.75 15.9375 C-6.27088366 10.54223338 -5.04775527 7.43309858 -2 3 C-1.34 2.01 -0.68 1.02 0 0 Z " fill="#3F4040" transform="translate(54,98)"/>
<path d="M0 0 C0.79921875 0.01804687 1.5984375 0.03609375 2.421875 0.0546875 C3.02515625 0.07789062 3.6284375 0.10109375 4.25 0.125 C3.92 0.785 3.59 1.445 3.25 2.125 C4.57 2.785 5.89 3.445 7.25 4.125 C6.198125 4.12886719 6.198125 4.12886719 5.125 4.1328125 C-2.20492199 4.43158649 -6.51041243 5.95990894 -11.75 11.125 C-13.12368345 12.75856951 -14.46937515 14.4175002 -15.75 16.125 C-16.74 16.785 -17.73 17.445 -18.75 18.125 C-19.33481121 21.01095946 -19.33481121 21.01095946 -19.4375 24.25 C-19.50324219 25.34570312 -19.56898437 26.44140625 -19.63671875 27.5703125 C-19.67410156 28.41335937 -19.71148438 29.25640625 -19.75 30.125 C-20.08 30.125 -20.41 30.125 -20.75 30.125 C-21.34580227 21.55868736 -21.2905795 14.99531859 -15.75 8.125 C-11.16489334 3.37613953 -6.82758442 -0.20081131 0 0 Z " fill="#464641" transform="translate(41.75,86.875)"/>
<path d="M0 0 C7.21356918 1.57001212 14.52198125 1.77833162 21.875 2.125 C21.875 2.455 21.875 2.785 21.875 3.125 C18.575 3.455 15.275 3.785 11.875 4.125 C11.875 4.785 11.875 5.445 11.875 6.125 C11.00875 6.4034375 11.00875 6.4034375 10.125 6.6875 C6.77072157 8.83051122 5.69592004 11.61322563 3.875 15.125 C2.555 15.125 1.235 15.125 -0.125 15.125 C0.93375074 11.72187262 1.88402154 9.11146769 3.875 6.125 C2.91787109 5.72667969 2.91787109 5.72667969 1.94140625 5.3203125 C1.11511719 4.96710938 0.28882812 4.61390625 -0.5625 4.25 C-1.38621094 3.90195313 -2.20992188 3.55390625 -3.05859375 3.1953125 C-5.125 2.125 -5.125 2.125 -6.125 0.125 C-3.56546307 -1.15476847 -2.74597811 -0.67951323 0 0 Z " fill="#474949" transform="translate(77.125,183.875)"/>
<path d="M0 0 C0.33 1.32 0.66 2.64 1 4 C-2.41153553 5.51186959 -5.8299987 7.00739131 -9.25 8.5 C-10.21808594 8.92925781 -11.18617187 9.35851562 -12.18359375 9.80078125 C-13.11816406 10.20683594 -14.05273438 10.61289063 -15.015625 11.03125 C-15.87446289 11.40830078 -16.73330078 11.78535156 -17.61816406 12.17382812 C-20 13 -20 13 -24 13 C-24.33 11.68 -24.66 10.36 -25 9 C-24.44538086 8.79842285 -23.89076172 8.5968457 -23.31933594 8.38916016 C-20.79532071 7.47023282 -18.27265497 6.54765465 -15.75 5.625 C-14.87730469 5.30789062 -14.00460938 4.99078125 -13.10546875 4.6640625 C-12.26113281 4.3546875 -11.41679688 4.0453125 -10.546875 3.7265625 C-9.77182617 3.44377441 -8.99677734 3.16098633 -8.19824219 2.86962891 C-5.97443605 2.03108111 -5.97443605 2.03108111 -3.84082031 0.89208984 C-2 0 -2 0 0 0 Z " fill="#4B4A4B" transform="translate(137,174)"/>
<path d="M0 0 C7.37909091 1.60633272 11.87295731 4.60062726 16 11 C16.6875 13.25390625 16.6875 13.25390625 17 15 C14.17512445 14.91691543 12.48883268 14.50930735 10.5078125 12.4453125 C10.01023438 11.82398438 9.51265625 11.20265625 9 10.5625 C5.07399424 5.71447774 1.77328445 5.02551986 -4.3125 4.375 C-5.87440317 4.24275126 -7.43675768 4.11534604 -9 4 C-9 3.67 -9 3.34 -9 3 C-5.92382812 2.70703125 -5.92382812 2.70703125 -2.84765625 2.4140625 C-2.23792969 2.27742188 -1.62820312 2.14078125 -1 2 C-0.67 1.34 -0.34 0.68 0 0 Z " fill="#484643" transform="translate(149,24)"/>
<path d="M0 0 C2.0625 1.6875 2.0625 1.6875 4 4 C4.08617439 7.44697566 3.24909322 8.71198597 1 11.3125 C-2.99152335 13.55773188 -6.50178424 13.72443175 -11 13 C-11.99 12.34 -12.98 11.68 -14 11 C-14 9.68 -14 8.36 -14 7 C-13.484375 7.165 -12.96875 7.33 -12.4375 7.5 C-9.22317332 8.15934906 -6.27153915 8.18175217 -3 8 C-0.4345406 5.4345406 -0.45953913 3.52313332 0 0 Z " fill="#4E4F4F" transform="translate(126,135)"/>
<path d="M0 0 C1.17175781 0.12761719 2.34351563 0.25523438 3.55078125 0.38671875 C4.73027344 0.50660156 5.90976562 0.62648438 7.125 0.75 C8.48044922 0.91048828 8.48044922 0.91048828 9.86328125 1.07421875 C10.453125 2.90234375 10.453125 2.90234375 10.86328125 5.07421875 C9.42578125 7.82421875 9.42578125 7.82421875 7.86328125 10.07421875 C6.87328125 9.74421875 5.88328125 9.41421875 4.86328125 9.07421875 C5.19328125 7.75421875 5.52328125 6.43421875 5.86328125 5.07421875 C-0.07671875 4.08421875 -0.07671875 4.08421875 -6.13671875 3.07421875 C-3.13671875 0.07421875 -3.13671875 0.07421875 0 0 Z " fill="#393B3D" transform="translate(49.13671875,86.92578125)"/>
<path d="M0 0 C0.54527344 0.38671875 1.09054688 0.7734375 1.65234375 1.171875 C6.32720455 4.40032587 10.87814426 7.01978288 16.15234375 9.140625 C18 10 18 10 20 12 C13.43585958 12.60529983 9.06158752 12.11258422 3.49609375 8.484375 C1.68433032 6.68680293 1.42853557 5.4845433 1 3 C0.67 2.01 0.34 1.02 0 0 Z " fill="#363B3B" transform="translate(27,121)"/>
<path d="M0 0 C1.32 0 2.64 0 4 0 C4.78774617 8.03501094 4.78774617 8.03501094 1.5 12.0625 C0.675 12.701875 -0.15 13.34125 -1 14 C-1.99 13.67 -2.98 13.34 -4 13 C-4 12.01 -4 11.02 -4 10 C-3.01 9.34 -2.02 8.68 -1 8 C-0.42251197 6.03638136 -0.42251197 6.03638136 -0.3125 3.875 C-0.209375 2.59625 -0.10625 1.3175 0 0 Z " fill="#484949" transform="translate(142,124)"/>
<path d="M0 0 C1.32 0.66 2.64 1.32 4 2 C4 5 4 5 2.6875 6.38671875 C1.125 7.59114583 -0.4375 8.79557292 -2 10 C-2 9.01 -2 8.02 -2 7 C-4.31 7.33 -6.62 7.66 -9 8 C-6.14723863 5.06799526 -3.34920216 2.35684596 0 0 Z " fill="#EAA757" transform="translate(89,85)"/>
<path d="M0 0 C0.42410156 0.42152344 0.84820312 0.84304687 1.28515625 1.27734375 C5.51945795 5.23246072 8.19011172 6.7628617 14 7 C13.67 7.99 13.34 8.98 13 10 C6.13107822 10.7230444 6.13107822 10.7230444 2.91015625 8.6640625 C1.19502121 7.16989578 -0.43160073 5.64681923 -2 4 C-1.34 2.68 -0.68 1.36 0 0 Z " fill="#3E3F3D" transform="translate(81,212)"/>
<path d="M0 0 C2.65391468 2.47698704 4.81169744 4.53411752 6 8 C6.0777346 10.33203812 6.08967728 12.66839059 6 15 C4.68 15 3.36 15 2 15 C1.87625 13.906875 1.7525 12.81375 1.625 11.6875 C1.24535199 7.92618198 1.24535199 7.92618198 -1 5 C-0.625 2.3125 -0.625 2.3125 0 0 Z " fill="#484644" transform="translate(111,187)"/>
<path d="M0 0 C0.99 0.66 1.98 1.32 3 2 C3.40843923 4.71203652 3.13336867 7.2437142 3 10 C0.69 10 -1.62 10 -4 10 C-3.51171875 3.9453125 -3.51171875 3.9453125 -3 2 C-2.01 1.34 -1.02 0.68 0 0 Z " fill="#E6A761" transform="translate(128,39)"/>
<path d="M0 0 C0.33 0 0.66 0 1 0 C1 5.61 1 11.22 1 17 C0.34 17 -0.32 17 -1 17 C-1.66 17.99 -2.32 18.98 -3 20 C-3 18.68 -3 17.36 -3 16 C-5.31 16 -7.62 16 -10 16 C-10 15.67 -10 15.34 -10 15 C-8.35 14.67 -6.7 14.34 -5 14 C-5.33 13.34 -5.66 12.68 -6 12 C-5.195625 11.690625 -4.39125 11.38125 -3.5625 11.0625 C-0.83888394 9.29423085 -0.83888394 9.29423085 -0.4453125 6.796875 C-0.20962327 4.52568784 -0.05263436 2.28241731 0 0 Z " fill="#555550" transform="translate(50,118)"/>
<path d="M0 0 C1.27310312 0.93441535 2.543388 1.87267111 3.8125 2.8125 C4.52019531 3.33457031 5.22789062 3.85664062 5.95703125 4.39453125 C7.78531393 5.83128877 9.39896688 7.31815763 11 9 C4.84136061 9 2.07793911 7.57763892 -3 4 C-2.34 3.67 -1.68 3.34 -1 3 C-0.67 2.01 -0.34 1.02 0 0 Z " fill="#484846" transform="translate(164,59)"/>
<path d="M0 0 C0 3.51384107 -0.61462887 5.76746737 -2 9 C-4.625 11.375 -4.625 11.375 -7 13 C-7.99 12.01 -8.98 11.02 -10 10 C-6.7 6.7 -3.4 3.4 0 0 Z " fill="#4F5150" transform="translate(182,140)"/>
<path d="M0 0 C1.32 0.33 2.64 0.66 4 1 C3.2884375 2.175625 3.2884375 2.175625 2.5625 3.375 C0.60263251 7.92189258 0.28089128 12.09893144 0 17 C-0.33 17 -0.66 17 -1 17 C-1 14.69 -1 12.38 -1 10 C-1.99 10.33 -2.98 10.66 -4 11 C-2.25 3.375 -2.25 3.375 0 0 Z " fill="#99816A" transform="translate(190,124)"/>
<path d="M0 0 C2.475 0.99 2.475 0.99 5 2 C5 5.63 5 9.26 5 13 C4.01 13.33 3.02 13.66 2 14 C1.34 9.38 0.68 4.76 0 0 Z " fill="#353639" transform="translate(162,37)"/>
<path d="M0 0 C-0.1875 2.375 -0.1875 2.375 -1 5 C-4.27728249 6.86007925 -6.1659754 7 -10 7 C-10.33 5.68 -10.66 4.36 -11 3 C-9.54293274 2.49632243 -8.08429904 1.99717444 -6.625 1.5 C-5.81289062 1.2215625 -5.00078125 0.943125 -4.1640625 0.65625 C-2 0 -2 0 0 0 Z " fill="#525152" transform="translate(123,180)"/>
<path d="M0 0 C0.99 0 1.98 0 3 0 C4.49140021 3.62197194 5.7874262 7.27566618 7 11 C6.01 11 5.02 11 4 11 C2.578125 9.35546875 2.578125 9.35546875 1.25 7.1875 C0.80140625 6.47980469 0.3528125 5.77210937 -0.109375 5.04296875 C-1 3 -1 3 0 0 Z " fill="#424545" transform="translate(23,116)"/>
<path d="M0 0 C0.33 0 0.66 0 1 0 C1.09688221 5.44693314 1.12862175 10.63904667 0 16 C-1.32 15.67 -2.64 15.34 -4 15 C-3.67 11.04 -3.34 7.08 -3 3 C-2.34 4.32 -1.68 5.64 -1 7 C-0.67 4.69 -0.34 2.38 0 0 Z " fill="#4B4D4F" transform="translate(200,102)"/>
<path d="M0 0 C0.33 0.66 0.66 1.32 1 2 C1.66 2 2.32 2 3 2 C2.75 4.375 2.75 4.375 2 7 C1.34 7.2578125 0.68 7.515625 0 7.78125 C-0.66 8.1834375 -1.32 8.585625 -2 9 C-2.70535611 11.8786935 -2.70535611 11.8786935 -2.75 15.125 C-2.80671875 16.22070312 -2.8634375 17.31640625 -2.921875 18.4453125 C-2.94765625 19.28835937 -2.9734375 20.13140625 -3 21 C-3.33 21 -3.66 21 -4 21 C-4.4485551 12.82632933 -4.40744316 7.02436254 0 0 Z " fill="#4C4E4C" transform="translate(25,96)"/>
<path d="M0 0 C4.29 0 8.58 0 13 0 C13 0.99 13 1.98 13 3 C9.04 3 5.08 3 1 3 C0.67 2.01 0.34 1.02 0 0 Z " fill="#303232" transform="translate(88,187)"/>
<path d="M0 0 C3.3 0 6.6 0 10 0 C10 1.32 10 2.64 10 4 C6.37 3.67 2.74 3.34 -1 3 C-0.67 2.01 -0.34 1.02 0 0 Z " fill="#383B3D" transform="translate(204,116)"/>
<path d="M0 0 C0.33 0.99 0.66 1.98 1 3 C-1.97 3.66 -4.94 4.32 -8 5 C-8 3.68 -8 2.36 -8 1 C-5.29120665 -0.35439668 -2.99066732 -0.06501451 0 0 Z " fill="#3B3F3D" transform="translate(145,36)"/>
<path d="M0 0 C2.31 0.66 4.62 1.32 7 2 C6.01 2.495 6.01 2.495 5 3 C4.67 3.99 4.34 4.98 4 6 C-0.29 5.34 -4.58 4.68 -9 4 C-9 3.67 -9 3.34 -9 3 C-5.92382812 2.70703125 -5.92382812 2.70703125 -2.84765625 2.4140625 C-2.23792969 2.27742188 -1.62820312 2.14078125 -1 2 C-0.67 1.34 -0.34 0.68 0 0 Z " fill="#585042" transform="translate(149,24)"/>
<path d="M0 0 C2 2 2 2 2 4.875 C0.68289795 8.99094392 -1.30313608 9.95492634 -5 12 C-4.42365861 7.24518354 -2.44931479 4.02951788 0 0 Z " fill="#414343" transform="translate(186,135)"/>
<path d="M0 0 C1.20076172 0.06960937 1.20076172 0.06960937 2.42578125 0.140625 C3.23402344 0.17671875 4.04226562 0.2128125 4.875 0.25 C5.79732422 0.31960937 5.79732422 0.31960937 6.73828125 0.390625 C6.73828125 1.380625 6.73828125 2.370625 6.73828125 3.390625 C0.79828125 3.885625 0.79828125 3.885625 -5.26171875 4.390625 C-2.26171875 0.390625 -2.26171875 0.390625 0 0 Z " fill="#363A3A" transform="translate(142.26171875,23.609375)"/>
<path d="M0 0 C2.3125 0.1875 2.3125 0.1875 4 1 C3 4 3 4 0.625 5.25 C-2 6 -2 6 -5 5 C-2.75 2.4375 -2.75 2.4375 0 0 Z " fill="#444445" transform="translate(126,178)"/>
<path d="M0 0 C1.32 0.66 2.64 1.32 4 2 C4 2.66 4 3.32 4 4 C5.65 3.67 7.3 3.34 9 3 C8.67 3.99 8.34 4.98 8 6 C2.46153846 6.36923077 2.46153846 6.36923077 0.125 4.5 C-0.24625 4.005 -0.6175 3.51 -1 3 C-0.67 2.01 -0.34 1.02 0 0 Z " fill="#494B4B" transform="translate(192,147)"/>
<path d="M0 0 C0.8971875 0.5259375 0.8971875 0.5259375 1.8125 1.0625 C-2.9375 3.9375 -2.9375 3.9375 -5.1875 5.0625 C-7.5369053 4.45489518 -9.87279088 3.79120472 -12.1875 3.0625 C-12.1875 2.7325 -12.1875 2.4025 -12.1875 2.0625 C-11.094375 1.753125 -10.00125 1.44375 -8.875 1.125 C-1.99831081 -0.85641892 -1.99831081 -0.85641892 0 0 Z " fill="#575651" transform="translate(217.1875,144.9375)"/>
<path d="M0 0 C1.5 1.3125 1.5 1.3125 3 3 C3 3.99 3 4.98 3 6 C0.36 6 -2.28 6 -5 6 C-3.35 4.02 -1.7 2.04 0 0 Z " fill="#F1E2D1" transform="translate(193,96)"/>
<path d="M0 0 C1.32 0.99 2.64 1.98 4 3 C3.01 3 2.02 3 1 3 C0.566875 3.928125 0.566875 3.928125 0.125 4.875 C-1 7 -1 7 -3 9 C-3 8.34 -3 7.68 -3 7 C-4.98 7 -6.96 7 -9 7 C-9 6.67 -9 6.34 -9 6 C-7.88625 5.9071875 -7.88625 5.9071875 -6.75 5.8125 C-3.1814261 4.75814862 -2.07754772 3.00090227 0 0 Z " fill="#4F4845" transform="translate(53,95)"/>
<path d="M0 0 C2.0625 1.6875 2.0625 1.6875 4 4 C3.75 6.75 3.75 6.75 3 9 C2.34 9 1.68 9 1 9 C-0.61949011 6.42786866 -1.04408751 5.32330841 -0.625 2.25 C-0.41875 1.5075 -0.2125 0.765 0 0 Z " fill="#3B3C3C" transform="translate(222,123)"/>
<path d="M0 0 C2.64 0 5.28 0 8 0 C7.67 0.99 7.34 1.98 7 3 C4.93359375 3.73046875 4.93359375 3.73046875 2.4375 4.1875 C1.61121094 4.34605469 0.78492188 4.50460938 -0.06640625 4.66796875 C-1.02353516 4.83232422 -1.02353516 4.83232422 -2 5 C-2 4.01 -2 3.02 -2 2 C-1.34 2 -0.68 2 0 2 C0 1.34 0 0.68 0 0 Z " fill="#373B3D" transform="translate(43,98)"/>
<path d="M0 0 C2.97 0.33 5.94 0.66 9 1 C8.67 1.99 8.34 2.98 8 4 C5.36 4 2.72 4 0 4 C0 2.66666667 0 1.33333333 0 0 Z " fill="#33383B" transform="translate(86,218)"/>
<path d="M0 0 C2.875 -0.125 2.875 -0.125 6 0 C6.66 0.66 7.32 1.32 8 2 C7.8125 4 7.8125 4 7 6 C6.01 6.66 5.02 7.32 4 8 C4 6.68 4 5.36 4 4 C4.66 4 5.32 4 6 4 C6 3.34 6 2.68 6 2 C4.02 2 2.04 2 0 2 C0 1.34 0 0.68 0 0 Z " fill="#595245" transform="translate(111,79)"/>
<path d="M0 0 C0.25 7.625 0.25 7.625 -2 11 C-3.76462683 7.91190305 -4 6.76687864 -4 3 C-1.53571429 0 -1.53571429 0 0 0 Z " fill="#46494B" transform="translate(227,129)"/>
<path d="M0 0 C0.33 0 0.66 0 1 0 C2.25 7.625 2.25 7.625 0 11 C-0.33 10.67 -0.66 10.34 -1 10 C-1.33 10.66 -1.66 11.32 -2 12 C-3.32 11.67 -4.64 11.34 -6 11 C-4.7934375 9.948125 -4.7934375 9.948125 -3.5625 8.875 C-0.76566189 5.73708407 -0.28691249 4.11241237 0 0 Z " fill="#E0994D" transform="translate(152,94)"/>
<path d="M0 0 C1.31571603 0.2547514 2.62760376 0.52934141 3.9375 0.8125 C4.66839844 0.96332031 5.39929687 1.11414063 6.15234375 1.26953125 C6.76207031 1.51058594 7.37179688 1.75164062 8 2 C8.33 2.99 8.66 3.98 9 5 C3.5 5.36666667 3.5 5.36666667 1.125 3.625 C0 2 0 2 0 0 Z " fill="#303639" transform="translate(36,117)"/>
<path d="M0 0 C-0.33 0.99 -0.66 1.98 -1 3 C-3.64 2.67 -6.28 2.34 -9 2 C-9 1.34 -9 0.68 -9 0 C-5.93109813 -1.53445094 -3.29905734 -0.54984289 0 0 Z " fill="#3D3D3B" transform="translate(151,53)"/>
<path d="M0 0 C1.32 0 2.64 0 4 0 C4 1.32 4 2.64 4 4 C3.34 4 2.68 4 2 4 C2 5.65 2 7.3 2 9 C1.34 8.67 0.68 8.34 0 8 C0 5.36 0 2.72 0 0 Z " fill="#454741" transform="translate(199,140)"/>
<path d="M0 0 C0.33 0 0.66 0 1 0 C1.29296875 6.0546875 1.29296875 6.0546875 1 8 C0.01 8.66 -0.98 9.32 -2 10 C-2.1953125 3.9453125 -2.1953125 3.9453125 -2 2 C-1.34 1.34 -0.68 0.68 0 0 Z " fill="#353C3F" transform="translate(49,119)"/>
<path d="M0 0 C0.66 0.66 1.32 1.32 2 2 C1.8125 4.5 1.8125 4.5 1 7 C0.01 7.66 -0.98 8.32 -2 9 C-2.6875 6.75 -2.6875 6.75 -3 4 C-1.5625 1.6875 -1.5625 1.6875 0 0 Z " fill="#474841" transform="translate(88,94)"/>
<path d="M0 0 C0.99 0 1.98 0 3 0 C4.0625 1.8125 4.0625 1.8125 5 4 C4.67 4.99 4.34 5.98 4 7 C3.01 6.67 2.02 6.34 1 6 C0.67 4.02 0.34 2.04 0 0 Z " fill="#40413F" transform="translate(188,143)"/>
<path d="M0 0 C0.33 0.66 0.66 1.32 1 2 C1.99 2.33 2.98 2.66 4 3 C2.71034824 4.37562854 1.37310707 5.70766393 0 7 C-0.66 7 -1.32 7 -2 7 C-2 5.68 -2 4.36 -2 3 C-1.34 3 -0.68 3 0 3 C0 2.01 0 1.02 0 0 Z " fill="#4C4B48" transform="translate(96,215)"/>
<path d="M0 0 C0.66 0.33 1.32 0.66 2 1 C1.67 2.65 1.34 4.3 1 6 C0.01 6.33 -0.98 6.66 -2 7 C-2.33 6.01 -2.66 5.02 -3 4 C-1.5625 1.8125 -1.5625 1.8125 0 0 Z " fill="#393B3D" transform="translate(223,136)"/>
<path d="M0 0 C0.99 0.33 1.98 0.66 3 1 C3 4.63 3 8.26 3 12 C2.67 12 2.34 12 2 12 C2 9.69 2 7.38 2 5 C1.01 5.33 0.02 5.66 -1 6 C-0.67 4.02 -0.34 2.04 0 0 Z " fill="#94775B" transform="translate(187,129)"/>
<path d="M0 0 C0.93423645 3.01031744 1.04449911 3.86650268 0 7 C-0.99 7.33 -1.98 7.66 -3 8 C-2.74438677 5.6568787 -2.40729228 3.32156597 -2 1 C-1.34 0.67 -0.68 0.34 0 0 Z " fill="#303837" transform="translate(51,109)"/>
<path d="M0 0 C1.32 0 2.64 0 4 0 C4 1.32 4 2.64 4 4 C3.34 4 2.68 4 2 4 C2 5.65 2 7.3 2 9 C1.67 9 1.34 9 1 9 C0.67 6.03 0.34 3.06 0 0 Z " fill="#484A40" transform="translate(212,136)"/>
<path d="M0 0 C1.32 0 2.64 0 4 0 C3.67 1.65 3.34 3.3 3 5 C1.68 4.34 0.36 3.68 -1 3 C-0.67 2.01 -0.34 1.02 0 0 Z " fill="#4B4943" transform="translate(71,149)"/>
<path d="M0 0 C0.99 0 1.98 0 3 0 C3.33 1.65 3.66 3.3 4 5 C2.68 5 1.36 5 0 5 C-0.33 5.66 -0.66 6.32 -1 7 C-0.67 4.69 -0.34 2.38 0 0 Z " fill="#524B45" transform="translate(49,105)"/>
<path d="M0 0 C0.66 0 1.32 0 2 0 C2.33 0.66 2.66 1.32 3 2 C3.99 2 4.98 2 6 2 C6.33 3.32 6.66 4.64 7 6 C4.625 5.8125 4.625 5.8125 2 5 C0.6875 2.4375 0.6875 2.4375 0 0 Z " fill="#40413E" transform="translate(159,33)"/>
<path d="M0 0 C0.99 0 1.98 0 3 0 C3 2.97 3 5.94 3 9 C0.23776722 6.23776722 0.42143709 3.79293383 0 0 Z " fill="#343436" transform="translate(197,102)"/>
<path d="M0 0 C-1.49097658 3.7952131 -3.75700849 5.61042731 -7 8 C-4.18918919 0 -4.18918919 0 0 0 Z " fill="#E6A251" transform="translate(134,31)"/>
<path d="M0 0 C0.66 0 1.32 0 2 0 C1.34 2.97 0.68 5.94 0 9 C-0.33 9 -0.66 9 -1 9 C-1.09765625 2.84765625 -1.09765625 2.84765625 -1 1 C-0.67 0.67 -0.34 0.34 0 0 Z " fill="#343538" transform="translate(78,198)"/>
<path d="M0 0 C0.99 0.33 1.98 0.66 3 1 C1 4 1 4 -2.125 4.6875 C-3.07375 4.790625 -4.0225 4.89375 -5 5 C-4.34 4.67 -3.68 4.34 -3 4 C-3 3.34 -3 2.68 -3 2 C-2.01 1.34 -1.02 0.68 0 0 Z " fill="#393C3C" transform="translate(108,52)"/>
</svg>


